<svg width="75" height="55" viewBox="0 0 75 55" fill="none" xmlns="http://www.w3.org/2000/svg">
<path d="M74.2732 9.41299C74.2789 7.67717 73.8177 6.08708 72.7961 4.68986C71.1842 2.48544 68.9949 1.37395 66.272 1.37395C56.6645 1.37109 47.0557 1.37109 37.4468 1.37109C27.8379 1.37109 18.2291 1.37109 8.62165 1.37395C5.89876 1.37395 3.70938 2.48544 2.0975 4.68986C1.07588 6.08708 0.614737 7.67717 0.620413 9.41299C0.63744 14.7233 0.654467 20.035 0.654467 25.3453C0.653048 32.2472 0.614737 39.149 0.631764 46.0508C0.638859 49.2853 2.10885 51.6883 4.94241 53.2227C5.76964 53.6713 6.66781 53.9127 7.60145 54.0184C7.72348 54.0327 7.84408 54.0727 7.96469 54.0999H66.9289C67.0495 54.0727 67.1701 54.0327 67.2922 54.0184C68.2258 53.9127 69.124 53.6713 69.9512 53.2227C72.7848 51.6883 74.2548 49.2853 74.2619 46.0508C74.2789 39.149 74.2406 32.2472 74.2392 25.3453C74.2392 20.035 74.2562 14.7233 74.2732 9.41299V9.41299ZM66.4919 5.54419C66.3826 5.66563 66.3259 5.7342 66.2635 5.79706C56.9966 15.1005 47.7297 24.4039 38.4613 33.7073C38.1279 34.0416 37.7859 34.2144 37.4468 34.2244C37.1077 34.2144 36.7657 34.0416 36.4323 33.7073C27.164 24.4039 17.8971 15.1005 8.63016 5.79706C8.56773 5.7342 8.51097 5.66563 8.40172 5.54419H66.4919V5.54419ZM7.16868 49.631C6.95017 49.8525 6.78558 49.8839 6.51457 49.7468C5.73417 49.351 5.29998 48.7038 5.1368 47.8695C5.05309 47.4438 5.00768 47.0037 5.00768 46.5709C5.00201 33.7687 5.00201 20.9679 5.00201 8.16577V7.74432C12.3278 15.139 19.587 22.4652 26.9171 29.8642C26.8461 29.9128 26.7128 29.9742 26.6148 30.0728C20.129 36.5889 13.6446 43.1049 7.16868 49.631V49.631ZM12.3349 50.1254C18.1184 44.2864 23.9161 38.4332 29.7379 32.5572C29.8173 32.6315 29.9181 32.7215 30.0131 32.8186C32.1174 34.9459 34.2216 37.0732 36.3259 39.2004C36.7288 39.6076 37.0892 39.819 37.4468 39.8305C37.8044 39.819 38.1648 39.6076 38.5677 39.2004C40.672 37.0732 42.7762 34.9459 44.8805 32.8186C44.9755 32.7215 45.0763 32.6315 45.1557 32.5572C50.9775 38.4332 56.7752 44.2864 62.5587 50.1254H12.3349ZM69.8916 8.16577C69.8916 20.9679 69.8916 33.7687 69.8859 46.5709C69.8859 47.0037 69.8405 47.4438 69.7568 47.8695C69.5936 48.7038 69.1595 49.351 68.3791 49.7468C68.108 49.8839 67.9434 49.8525 67.7249 49.631C61.249 43.1049 54.7646 36.5889 48.2788 30.0728C48.1809 29.9742 48.0475 29.9128 47.9765 29.8642C55.3066 22.4652 62.5658 15.139 69.8916 7.74432V8.16577V8.16577Z" fill="white" stroke="white" stroke-width="0.836965" stroke-linecap="round" stroke-linejoin="round"/>
</svg>
