<svg width="260" height="180" viewBox="0 0 260 180" fill="none" xmlns="http://www.w3.org/2000/svg">
<path d="M198.978 19.3828L198.428 23.4036" stroke="#2755AE" stroke-width="3.3" stroke-linecap="round"/>
<path d="M198.365 19.6019L198.994 19.3672" stroke="#2755AE" stroke-width="3.3" stroke-linecap="round"/>
<path d="M187.299 7.04102L182.064 8.88712" stroke="#2755AE" stroke-width="3.3" stroke-linecap="round"/>
<path d="M202.703 1.59473L193.335 4.89581L187.299 7.02352" stroke="#2755AE" stroke-width="3.3" stroke-linecap="round"/>
<path d="M199.465 52.4098L199.041 51.9248" stroke="#2755AE" stroke-width="3.3" stroke-linecap="round"/>
<path d="M190.553 70.4016L231.501 54.1465" stroke="#2755AE" stroke-width="3.3" stroke-linecap="round"/>
<path d="M199.025 51.925L198.349 19.6025" stroke="#2755AE" stroke-width="3.3" stroke-linecap="round"/>
<path d="M47.5566 106.009C53.1841 103.85 58.277 102.77 62.8984 102.755C67.5356 102.723 71.7168 103.85 75.5366 106.149C77.6272 107.401 79.5921 109.059 81.4626 111.093" stroke="#2755AE" stroke-width="3.3" stroke-linecap="round"/>
<path d="M231.501 54.1465L224.521 87.7831" stroke="#2755AE" stroke-width="3.3" stroke-linecap="round"/>
<path d="M178.591 42.757L182.065 8.88574" stroke="#2755AE" stroke-width="3.3" stroke-linecap="round"/>
<path d="M221.991 43.6953L199.465 52.4095" stroke="#2755AE" stroke-width="3.3" stroke-linecap="round"/>
<path d="M119.062 104.428L118.669 70.9951" stroke="#2755AE" stroke-width="3.3" stroke-linecap="round"/>
<path d="M178.59 42.7568L177.663 93.2274" stroke="#2755AE" stroke-width="3.3" stroke-linecap="round"/>
<path d="M177.663 93.2274L181.404 59.6533" stroke="#2755AE" stroke-width="3.3" stroke-linecap="round"/>
<path d="M36.0659 60.4502L1.31104 72.7315" stroke="#2755AE" stroke-width="3.3" stroke-linecap="round"/>
<path d="M46.9121 179.055L81.8084 164.099" stroke="#2755AE" stroke-width="3.3" stroke-linecap="round"/>
<path d="M110.338 95.7148L111.329 128.726" stroke="#2755AE" stroke-width="3.3" stroke-linecap="round"/>
<path d="M159.57 55.5078L118.669 70.9963" stroke="#2755AE" stroke-width="3.3" stroke-linecap="round"/>
<path d="M177.663 93.2266L186.12 103.834" stroke="#2755AE" stroke-width="3.3" stroke-linecap="round"/>
<path d="M181.42 59.6533L190.553 70.3857" stroke="#2755AE" stroke-width="3.3" stroke-linecap="round"/>
<path d="M119.062 104.43L126.56 115.319" stroke="#2755AE" stroke-width="3.3" stroke-linecap="round"/>
<path d="M238.087 37.4686L202.704 1.59473" stroke="#2755AE" stroke-width="3.3" stroke-linecap="round"/>
<path d="M9.6107 106.134L1.31104 72.7324" stroke="#2755AE" stroke-width="3.3" stroke-linecap="round"/>
<path d="M110.338 95.715C110.15 89.2693 107.666 82.761 103.123 76.2215C98.2818 69.2595 92.4658 64.2061 85.5966 60.7799C78.7273 57.3537 71.1979 55.6484 62.8511 55.5545C54.4886 55.4763 45.6387 57.0721 36.0815 60.4514" stroke="#2755AE" stroke-width="3.3" stroke-linecap="round"/>
<path d="M68.9973 118.103L55.1331 123.594" stroke="#2755AE" stroke-width="3.3" stroke-linecap="round"/>
<path d="M118.669 70.9951L126.718 82.0561" stroke="#2755AE" stroke-width="3.3" stroke-linecap="round"/>
<path d="M224.506 87.7832L234.22 98.7972" stroke="#2755AE" stroke-width="3.3" stroke-linecap="round"/>
<path d="M231.501 54.1465L242.033 65.2857" stroke="#2755AE" stroke-width="3.3" stroke-linecap="round"/>
<path d="M234.22 98.7967L249.955 92.0537" stroke="#2755AE" stroke-width="3.3" stroke-linecap="round"/>
<path d="M198.978 19.3828L221.991 43.695" stroke="#2755AE" stroke-width="3.3" stroke-linecap="round"/>
<path d="M126.56 115.318L165.245 99.4854" stroke="#2755AE" stroke-width="3.3" stroke-linecap="round"/>
<path d="M248.053 47.5754L258.019 43.6172" stroke="#2755AE" stroke-width="3.3" stroke-linecap="round"/>
<path d="M182.064 8.88574L181.404 59.6536" stroke="#2755AE" stroke-width="3.3" stroke-linecap="round"/>
<path d="M249.955 92.0535L258.789 58.4639" stroke="#2755AE" stroke-width="3.3" stroke-linecap="round"/>
<path d="M258.789 58.4641L248.053 47.5908" stroke="#2755AE" stroke-width="3.3" stroke-linecap="round"/>
<path d="M165.245 99.4841L168.153 65.9883" stroke="#2755AE" stroke-width="3.3" stroke-linecap="round"/>
<path d="M234.22 98.7966L242.033 65.2852" stroke="#2755AE" stroke-width="3.3" stroke-linecap="round"/>
<path d="M242.033 65.285L258.789 58.4639" stroke="#2755AE" stroke-width="3.3" stroke-linecap="round"/>
<path d="M255.174 54.8033L258.019 43.6172" stroke="#2755AE" stroke-width="3.3" stroke-linecap="round"/>
<path d="M45.5601 106.775L47.5564 106.009" stroke="#2755AE" stroke-width="3.3" stroke-linecap="round"/>
<path d="M168.153 65.9899L159.57 55.5078" stroke="#2755AE" stroke-width="3.3" stroke-linecap="round"/>
<path d="M186.12 103.835L190.537 70.4014" stroke="#2755AE" stroke-width="3.3" stroke-linecap="round"/>
<path d="M78.3972 131.964C88.9919 127.646 96.9143 122.421 102.243 116.397C107.587 110.374 110.213 103.897 110.338 97.029V95.7305" stroke="#2755AE" stroke-width="3.3" stroke-linecap="round"/>
<path d="M186.12 103.835L224.506 87.7832" stroke="#2755AE" stroke-width="3.3" stroke-linecap="round"/>
<path d="M258.019 43.6172L247.943 33.6514" stroke="#2755AE" stroke-width="3.3" stroke-linecap="round"/>
<path d="M1.31104 72.7324L40.5929 147.359" stroke="#2755AE" stroke-width="3.3" stroke-linecap="round"/>
<path d="M40.593 147.359L78.3973 131.948" stroke="#2755AE" stroke-width="3.3" stroke-linecap="round"/>
<path d="M55.1175 123.594L28.8352 77.3477" stroke="#2755AE" stroke-width="3.3" stroke-linecap="round"/>
<path d="M41.9919 72.5917C48.0438 70.4015 53.514 69.3063 58.4812 69.2907C63.4485 69.2594 67.9284 70.4015 71.9996 72.7326C76.0709 75.0793 79.7491 78.7089 83.0816 83.8092C86.414 88.9251 88.1745 93.6185 88.2374 97.827C88.3003 102.036 86.7441 105.853 83.506 109.217C80.2678 112.58 75.4421 115.553 68.9973 118.103" stroke="#2755AE" stroke-width="3.3" stroke-linecap="round"/>
<path d="M46.9121 179.055L40.593 147.358" stroke="#2755AE" stroke-width="3.3" stroke-linecap="round"/>
<path d="M28.8352 77.3635L41.992 72.5918" stroke="#2755AE" stroke-width="3.3" stroke-linecap="round"/>
<path d="M247.943 33.6514L238.087 37.4687" stroke="#2755AE" stroke-width="3.3" stroke-linecap="round"/>
<path d="M126.56 115.318L126.702 82.0566" stroke="#2755AE" stroke-width="3.3" stroke-linecap="round"/>
<path d="M9.61084 106.134L46.9122 179.055" stroke="#2755AE" stroke-width="3.3" stroke-linecap="round"/>
<path d="M126.718 82.0556L168.153 65.9883" stroke="#2755AE" stroke-width="3.3" stroke-linecap="round"/>
<path d="M81.8083 164.114C91.6013 159.922 98.9264 154.821 103.878 148.954C108.829 143.088 111.25 136.736 111.36 130.008V128.726" stroke="#2755AE" stroke-width="3.3" stroke-linecap="round"/>
</svg>
