<svg width="256" height="170" viewBox="0 0 256 170" fill="none" xmlns="http://www.w3.org/2000/svg">
<g clip-path="url(#clip0_1168_61)">
<path d="M254.315 50.0638L244.057 39.7129" stroke="#27AE96" stroke-width="3.3" stroke-linecap="round"/>
<path d="M245.562 82.712L254.315 50.0635" stroke="#27AE96" stroke-width="3.3" stroke-linecap="round"/>
<path d="M190.577 106.379L245.546 82.7129" stroke="#27AE96" stroke-width="3.3" stroke-linecap="round"/>
<path d="M190.577 106.378L195.684 74.0635" stroke="#27AE96" stroke-width="3.3" stroke-linecap="round"/>
<path d="M182.796 96.6055L190.577 106.379" stroke="#27AE96" stroke-width="3.3" stroke-linecap="round"/>
<path d="M182.796 96.6058L187.249 64.1396" stroke="#27AE96" stroke-width="3.3" stroke-linecap="round"/>
<path d="M163.04 58.8643L154.742 48.6807" stroke="#27AE96" stroke-width="3.3" stroke-linecap="round"/>
<path d="M122.979 74.4898L163.04 58.8799" stroke="#27AE96" stroke-width="3.3" stroke-linecap="round"/>
<path d="M160.228 91.4064L163.04 58.8643" stroke="#27AE96" stroke-width="3.3" stroke-linecap="round"/>
<path d="M122.827 106.803L122.965 74.4893" stroke="#27AE96" stroke-width="3.3" stroke-linecap="round"/>
<path d="M154.742 48.6807L115.198 63.7282" stroke="#27AE96" stroke-width="3.3" stroke-linecap="round"/>
<path d="M41.0657 65.2946C46.9167 63.1667 52.2053 62.1027 57.0077 62.0875C61.8101 62.0571 66.1413 63.1667 70.0775 65.4314C74.0136 67.7113 77.5698 71.2376 80.7916 76.1927C84.0134 81.1629 85.7155 85.7228 85.7763 89.8114C85.8371 93.9001 84.3326 97.6088 81.2019 100.877C78.0713 104.145 73.4057 107.032 67.1748 109.51" stroke="#27AE96" stroke-width="3.3" stroke-linecap="round"/>
<path d="M53.7555 114.845L28.3455 69.915" stroke="#27AE96" stroke-width="3.3" stroke-linecap="round"/>
<path d="M39.713 137.931L76.2627 122.96" stroke="#27AE96" stroke-width="3.3" stroke-linecap="round"/>
<path d="M1.73486 65.415L39.7131 137.917" stroke="#27AE96" stroke-width="3.3" stroke-linecap="round"/>
<path d="M76.2627 122.961C86.5057 118.766 94.1652 113.689 99.3323 107.837C104.499 101.986 107.037 95.6929 107.159 89.0204V87.7588" stroke="#27AE96" stroke-width="3.3" stroke-linecap="round"/>
<path d="M174.939 25.8348C173.359 24.0413 172.508 22.3389 172.371 20.7278C172.234 19.1014 172.766 17.6423 173.951 16.3199C175.137 14.9976 176.915 13.9184 179.286 13.0672C181.58 12.2312 183.89 11.8057 186.246 11.7753C188.602 11.7449 190.805 12.0944 192.887 12.8544C194.969 13.6144 196.763 14.7696 198.267 16.3655C199.605 17.7791 200.456 19.2686 200.805 20.8038C201.155 22.3541 201.124 24.0869 200.729 26.002C200.334 27.9171 199.696 30.1667 198.829 32.7506" stroke="#27AE96" stroke-width="3.3" stroke-linecap="round"/>
<path d="M158.739 31.8397L174.939 25.8359" stroke="#27AE96" stroke-width="3.3" stroke-linecap="round"/>
<path d="M44.5154 98.4899L46.4454 97.7451" stroke="#27AE96" stroke-width="3.3" stroke-linecap="round"/>
<path d="M171.535 58.6977L174.939 25.8516" stroke="#27AE96" stroke-width="3.3" stroke-linecap="round"/>
<path d="M157.28 51.7968L158.739 31.8398" stroke="#27AE96" stroke-width="3.3" stroke-linecap="round"/>
<path d="M107.144 87.7591C106.961 81.4969 104.56 75.1739 100.168 68.8205C95.4874 62.0567 89.8644 57.1472 83.2232 53.8186C76.5819 50.4899 69.3176 48.8331 61.2326 48.7419C53.1476 48.6659 44.6066 50.2163 35.3514 53.4994" stroke="#27AE96" stroke-width="3.3" stroke-linecap="round"/>
<path d="M244.057 39.7129L212.72 52.6781" stroke="#27AE96" stroke-width="3.3" stroke-linecap="round"/>
<path d="M195.684 74.0635L254.315 50.0635" stroke="#27AE96" stroke-width="3.3" stroke-linecap="round"/>
<path d="M187.249 64.1396L195.684 74.0649" stroke="#27AE96" stroke-width="3.3" stroke-linecap="round"/>
<path d="M198.814 32.752L187.249 64.139" stroke="#27AE96" stroke-width="3.3" stroke-linecap="round"/>
<path d="M45.8224 168.727L39.713 137.933" stroke="#27AE96" stroke-width="3.3" stroke-linecap="round"/>
<path d="M152.417 49.578L154.24 20.6533" stroke="#27AE96" stroke-width="3.3" stroke-linecap="round"/>
<path d="M162.751 62.1319L171.535 58.6816" stroke="#27AE96" stroke-width="3.3" stroke-linecap="round"/>
<path d="M9.75907 97.866L1.73486 65.415" stroke="#27AE96" stroke-width="3.3" stroke-linecap="round"/>
<path d="M122.827 106.804L160.228 91.4219" stroke="#27AE96" stroke-width="3.3" stroke-linecap="round"/>
<path d="M79.5605 154.196C89.0285 150.122 96.1105 145.167 100.898 139.467C105.685 133.768 108.025 127.597 108.132 121.061V119.814" stroke="#27AE96" stroke-width="3.3" stroke-linecap="round"/>
<path d="M115.198 63.7432L122.98 74.4892" stroke="#27AE96" stroke-width="3.3" stroke-linecap="round"/>
<path d="M115.578 96.209L122.828 106.788" stroke="#27AE96" stroke-width="3.3" stroke-linecap="round"/>
<path d="M115.578 96.2089L115.198 63.7275" stroke="#27AE96" stroke-width="3.3" stroke-linecap="round"/>
<path d="M35.3362 53.4844L1.73486 65.416" stroke="#27AE96" stroke-width="3.3" stroke-linecap="round"/>
<path d="M9.75916 97.8662L45.8225 168.711" stroke="#27AE96" stroke-width="3.3" stroke-linecap="round"/>
<path d="M45.8224 168.727L79.5605 154.196" stroke="#27AE96" stroke-width="3.3" stroke-linecap="round"/>
<path d="M67.1748 109.494L53.7708 114.829" stroke="#27AE96" stroke-width="3.3" stroke-linecap="round"/>
<path d="M28.3455 69.9142L41.0657 65.2783" stroke="#27AE96" stroke-width="3.3" stroke-linecap="round"/>
<path d="M46.4456 97.7451C51.8862 95.6476 56.8102 94.5988 61.2782 94.5836C65.7614 94.5532 69.8039 95.6476 73.4969 97.8819C75.5181 99.0979 77.4178 100.709 79.2263 102.685" stroke="#27AE96" stroke-width="3.3" stroke-linecap="round"/>
<path d="M107.144 87.7588L108.101 119.83" stroke="#27AE96" stroke-width="3.3" stroke-linecap="round"/>
<path d="M172.705 47.465L175.684 45.9754C177.842 45.1546 180.015 44.7139 182.219 44.6835C184.423 44.6531 186.505 45.0027 188.45 45.7626C190.152 46.4162 191.656 47.4042 192.933 48.6961" stroke="#27AE96" stroke-width="3.3" stroke-linecap="round"/>
<path d="M217.477 27.0519L217.75 25.4104C218.267 21.8081 218.1 18.8442 217.279 16.4274C216.459 14.0259 215.06 11.8372 213.1 9.86125C210.091 6.82135 206.383 4.60222 201.945 3.11267C197.507 1.63831 192.69 0.984735 187.432 1.13673C182.188 1.28873 176.854 2.32229 171.368 4.26783C166.003 6.16777 161.839 8.5389 158.891 11.4116C156.034 14.1931 154.453 17.2634 154.24 20.6377" stroke="#27AE96" stroke-width="3.3" stroke-linecap="round"/>
<path d="M154.24 20.6377V20.9721C154.104 24.468 155.563 28.0855 158.739 31.8397" stroke="#27AE96" stroke-width="3.3" stroke-linecap="round"/>
<path d="M217.477 27.0518L212.811 52.1614" stroke="#27AE96" stroke-width="3.3" stroke-linecap="round"/>
</g>
<defs>
<clipPath id="clip0_1168_61">
<rect width="254.1" height="169.125" fill="white" transform="translate(0.974976 0.362305)"/>
</clipPath>
</defs>
</svg>
