<svg width="461" height="124" viewBox="0 0 461 124" fill="none" xmlns="http://www.w3.org/2000/svg">
<path d="M90.4229 80.2294C88.4715 76.4173 85.1185 75.0661 81.0422 75.2077C76.7891 75.3653 73.0342 76.6231 71.0604 80.7763C69.9448 83.1183 70.1666 84.8265 73.4779 84.627C75.6896 84.4919 77.911 84.6045 80.1324 84.6045C82.7396 84.5981 85.3564 84.6914 87.9572 84.5724C91.0241 84.4372 91.8213 82.9832 90.4229 80.2294V80.2294ZM90.4229 80.2294C88.4715 76.4173 85.1185 75.0661 81.0422 75.2077C76.7891 75.3653 73.0342 76.6231 71.0604 80.7763C69.9448 83.1183 70.1666 84.8265 73.4779 84.627C75.6896 84.4919 77.911 84.6045 80.1324 84.6045C82.7396 84.5981 85.3564 84.6914 87.9572 84.5724C91.0241 84.4372 91.8213 82.9832 90.4229 80.2294V80.2294ZM90.4229 80.2294C88.4715 76.4173 85.1185 75.0661 81.0422 75.2077C76.7891 75.3653 73.0342 76.6231 71.0604 80.7763C69.9448 83.1183 70.1666 84.8265 73.4779 84.627C75.6896 84.4919 77.911 84.6045 80.1324 84.6045C82.7396 84.5981 85.3564 84.6914 87.9572 84.5724C91.0241 84.4372 91.8213 82.9832 90.4229 80.2294V80.2294ZM120.063 114.507C119.922 114.088 119.825 113.709 119.732 113.345H119.716C119.619 113.725 119.52 114.111 119.391 114.5L118.767 116.35H120.696L120.063 114.507ZM120.063 114.507C119.922 114.088 119.825 113.709 119.732 113.345H119.716C119.619 113.725 119.52 114.111 119.391 114.5L118.767 116.35H120.696L120.063 114.507ZM90.4229 80.2294C88.4715 76.4173 85.1185 75.0661 81.0422 75.2077C76.7891 75.3653 73.0342 76.6231 71.0604 80.7763C69.9448 83.1183 70.1666 84.8265 73.4779 84.627C75.6896 84.4919 77.911 84.6045 80.1324 84.6045C82.7396 84.5981 85.3564 84.6914 87.9572 84.5724C91.0241 84.4372 91.8213 82.9832 90.4229 80.2294V80.2294ZM137.436 66.689C137.413 62.108 133.989 58.4953 129.415 58.1061C126.033 57.8198 122.609 58.0031 119.205 58.0031C118.446 58.0031 117.276 57.9066 117.228 58.7945C117.07 61.767 116.652 64.894 117.337 67.7088C117.928 70.1055 120.728 68.7833 122.522 68.9184C125.92 69.1726 127.28 70.6813 126.338 73.5059C125.58 75.7771 123.689 75.2238 122.069 75.2527C117.012 75.3556 117.012 75.3331 117.012 80.4321V90.9742C117.012 98.8977 117.967 99.8242 125.785 98.8591C128.203 98.5599 128.695 100.172 129.312 101.7C129.952 103.282 129.334 104.492 127.708 105.126C117.922 108.922 108.927 103.157 109.159 94.0464C109.294 88.9764 109.159 83.8904 109.191 78.8139C109.207 76.9062 109.348 75.1112 106.503 75.198C104.606 75.2624 104.243 73.7665 104.234 72.2094C104.217 70.4851 104.645 68.9506 106.747 69.0149C109.062 69.0793 109.252 67.741 109.191 66.0006C109.136 64.3085 109.072 62.6067 109.207 60.9242C109.374 58.8042 108.708 57.942 106.394 57.9517C90.0243 58.0385 73.6643 57.9999 57.3044 57.9838C55.9059 57.9838 55.0187 58.2444 54.2311 59.7017C51.566 64.6141 47.6536 64.6044 44.9982 59.6213C44.1753 58.0804 43.2751 57.9935 41.9539 57.9935C35.4086 57.9999 28.8666 58.016 22.3213 57.9871C20.9293 57.9806 20.1256 58.2798 19.3026 59.7114C16.8433 63.99 12.8152 64.1251 10.507 59.9173C9.3915 57.9002 8.49137 58.09 6.86469 58.7141C3.11628 60.1392 0.894875 63.6908 0.888445 68.7608C0.849868 83.0829 0.862727 97.3985 0.872371 111.724C0.878801 120.156 4.30253 123.54 12.8152 123.55H69.3662C88.613 123.55 107.857 123.566 127.094 123.533C133.363 123.527 137.384 120.226 137.432 114.738C137.542 98.7207 137.529 82.7065 137.432 66.689H137.436ZM14.5448 105.277C11.6676 105.316 10.8703 104.116 10.9024 101.584C10.9571 96.6651 10.9185 91.7366 10.9185 86.8082C10.9185 82.1403 10.9892 77.4757 10.8864 72.8078C10.8221 70.128 11.629 68.6965 14.6316 68.6868C17.4381 68.6804 18.7272 69.7323 18.7175 72.5376C18.6854 82.2658 18.6629 91.9875 18.7336 101.706C18.7561 104.737 17.2387 105.235 14.5448 105.274V105.277ZM27.2077 86.1133C27.4296 83.0282 28.828 81.2814 31.8788 81.2878C34.891 81.2942 36.6045 83.1311 36.6752 85.8752C36.7556 88.7448 34.6274 90.5174 31.9334 90.5882C29.1527 90.6589 27.436 88.8478 27.2077 86.1101V86.1133ZM53.4627 108.069C53.2345 117.325 44.8568 122.765 36.1866 119.522C33.8719 118.66 33.3029 117.283 33.753 114.999C34.2577 112.406 35.9648 112.547 37.9033 112.808C44.0917 113.654 45.6637 112.309 45.6733 106.078C45.6894 95.2818 45.6798 84.4855 45.6798 73.6892C45.6798 70.9837 46.0816 68.7865 49.7111 68.912C52.3183 68.9924 53.5752 69.8385 53.5367 72.5569C53.4563 78.6692 53.5142 84.7847 53.5142 90.897H53.4981C53.4981 96.6232 53.617 102.35 53.4659 108.069H53.4627ZM98.9484 87.5384C98.7202 90.1796 96.7206 90.7973 94.4188 90.7973C87.8832 90.7973 81.3476 90.7426 74.8184 90.8519C73.4103 90.8745 71.205 89.8804 70.7389 91.8074C70.2792 93.7215 71.5619 95.5488 73.2753 96.7358C78.3579 100.249 83.6462 100.628 89.1306 97.717C90.365 97.0672 91.4452 95.9541 93.0815 96.6426C96.068 97.9068 96.4249 100.645 93.6023 102.559C87.0249 107.027 79.8013 107.548 72.7352 104.376C65.6628 101.204 62.2069 95.2978 62.6666 87.3872C62.1908 79.7147 65.5277 74.0914 72.3013 70.5398C79.1937 66.9239 86.0219 67.6831 92.3517 71.8363C97.9647 75.5068 99.4982 81.1913 98.942 87.5352L98.9484 87.5384ZM116.636 119.01H113.081V112.612H113.91V118.315H116.636V119.01ZM121.545 119.01L120.857 116.993H118.587L117.932 119.01H117.077L119.243 112.612H120.24L122.423 119.01H121.545ZM126.856 118.463C126.406 118.875 125.686 119.065 124.644 119.065C124.075 119.065 123.641 119.026 123.365 118.985V112.695C123.728 112.615 124.297 112.56 124.876 112.56C125.699 112.56 126.226 112.702 126.631 113.027C126.962 113.271 127.161 113.651 127.161 114.159C127.161 114.777 126.75 115.314 126.078 115.559V115.581C126.685 115.732 127.399 116.231 127.399 117.18C127.399 117.733 127.177 118.151 126.862 118.46L126.856 118.463ZM124.872 115.941H124.194V118.377C124.352 118.409 124.589 118.415 124.882 118.415C125.737 118.415 126.525 118.106 126.525 117.173C126.525 116.305 125.772 115.938 124.872 115.938V115.941ZM126.319 114.249C126.319 113.496 125.75 113.204 124.921 113.204C124.541 113.204 124.319 113.226 124.194 113.258V115.314H124.937C125.814 115.314 126.319 114.854 126.319 114.246V114.249ZM119.729 113.348H119.713C119.616 113.728 119.517 114.114 119.388 114.503L118.764 116.353H120.693L120.06 114.51C119.918 114.092 119.822 113.712 119.729 113.348ZM81.039 75.2109C76.7858 75.3685 73.031 76.6264 71.0571 80.7795C69.9416 83.1215 70.1634 84.8297 73.4746 84.6303C75.6864 84.4952 77.9078 84.6077 80.1292 84.6077C82.7364 84.6013 85.3532 84.6946 87.9539 84.5756C91.0208 84.4405 91.8181 82.9864 90.4197 80.2326C88.4683 76.4205 85.1153 75.0693 81.039 75.2109V75.2109ZM90.4197 80.2326C88.4683 76.4205 85.1153 75.0693 81.039 75.2109C76.7858 75.3685 73.031 76.6264 71.0571 80.7795C69.9416 83.1215 70.1634 84.8297 73.4746 84.6303C75.6864 84.4952 77.9078 84.6077 80.1292 84.6077C82.7364 84.6013 85.3532 84.6946 87.9539 84.5756C91.0208 84.4405 91.8181 82.9864 90.4197 80.2326V80.2326ZM90.4197 80.2326C88.4683 76.4205 85.1153 75.0693 81.039 75.2109C76.7858 75.3685 73.031 76.6264 71.0571 80.7795C69.9416 83.1215 70.1634 84.8297 73.4746 84.6303C75.6864 84.4952 77.9078 84.6077 80.1292 84.6077C82.7364 84.6013 85.3532 84.6946 87.9539 84.5756C91.0208 84.4405 91.8181 82.9864 90.4197 80.2326V80.2326Z" fill="#6392C5"/>
<path d="M87.9542 84.57C85.3534 84.689 82.7366 84.5925 80.1294 84.6021C77.908 84.6021 75.6866 84.4928 73.4748 84.6247C70.1636 84.8209 69.9418 83.1127 71.0573 80.7739C73.0344 76.6208 76.786 75.3629 81.0392 75.2053C85.1187 75.0637 88.4685 76.4149 90.4199 80.227C91.8183 82.9808 91.021 84.4349 87.9542 84.57Z" fill="#FBFDFE"/>
<path d="M87.9542 84.57C85.3534 84.689 82.7366 84.5925 80.1294 84.6021C77.908 84.6021 75.6866 84.4928 73.4748 84.6247C70.1636 84.8209 69.9418 83.1127 71.0573 80.7739C73.0344 76.6208 76.786 75.3629 81.0392 75.2053C85.1187 75.0637 88.4685 76.4149 90.4199 80.227C91.8183 82.9808 91.021 84.4349 87.9542 84.57Z" fill="#6493C6"/>
<path d="M3.79468 40.2761C4.52764 40.1217 5.68496 40.0059 6.86156 40.0059C8.53967 40.0059 9.61983 40.2954 10.43 40.9517C11.1051 41.4535 11.5101 42.2256 11.5101 43.2486C11.5101 44.5032 10.6807 45.6034 9.31122 46.1053V46.1439C10.5457 46.4527 11.9923 47.4757 11.9923 49.4059C11.9923 50.5255 11.5487 51.3747 10.8929 52.0117C9.98632 52.8417 8.52038 53.2277 6.39864 53.2277C5.24132 53.2277 4.35405 53.1505 3.79468 53.0733V40.2761V40.2761ZM5.47279 45.6034H6.99658C8.77114 45.6034 9.81272 44.6769 9.81272 43.4223C9.81272 41.8975 8.6554 41.2991 6.95801 41.2991C6.18646 41.2991 5.74283 41.357 5.47279 41.4149V45.6034V45.6034ZM5.47279 51.838C5.80069 51.8959 6.28291 51.9152 6.88085 51.9152C8.61683 51.9152 10.2178 51.2782 10.2178 49.3866C10.2178 47.6109 8.69398 46.8774 6.86156 46.8774H5.47279V51.838V51.838Z" fill="white"/>
<path d="M16.178 40.2761C17.0267 40.1024 18.2419 40.0059 19.3992 40.0059C21.193 40.0059 22.3503 40.334 23.1605 41.0675C23.8163 41.6465 24.1827 42.5344 24.1827 43.5381C24.1827 45.256 23.1026 46.3948 21.7331 46.8581V46.916C22.7361 47.2634 23.334 48.1899 23.6427 49.5411C24.067 51.3554 24.3756 52.6101 24.6457 53.1119H22.9097C22.6975 52.7452 22.4082 51.6257 22.0417 50.0043C21.6559 48.2092 20.9615 47.5336 19.4378 47.4757H17.8561V53.1119H16.178V40.2761V40.2761ZM17.8561 46.2018H19.5728C21.3666 46.2018 22.5046 45.2174 22.5046 43.7311C22.5046 42.0519 21.2895 41.3184 19.5149 41.2991C18.7048 41.2991 18.1261 41.3763 17.8561 41.4535V46.2018V46.2018Z" fill="white"/>
<path d="M30.1622 40.1035V47.805C30.1622 50.7196 31.4546 51.9549 33.1905 51.9549C35.1194 51.9549 36.3539 50.681 36.3539 47.805V40.1035H38.0513V47.6892C38.0513 51.6847 35.9488 53.3254 33.1327 53.3254C30.4709 53.3254 28.4648 51.8005 28.4648 47.7664V40.1035H30.1622V40.1035Z" fill="white"/>
<path d="M42.8927 53.1131V40.1035H44.7251L48.8915 46.6855C49.8559 48.2104 50.6081 49.5808 51.2254 50.9126L51.264 50.8933C51.1096 49.1562 51.0711 47.5734 51.0711 45.5467V40.1035H52.6527V53.1131H50.9553L46.8276 46.5118C45.921 45.0641 45.053 43.5779 44.3972 42.1688L44.3393 42.1881C44.4358 43.8288 44.4744 45.3923 44.4744 47.5541V53.1131H42.8927V53.1131Z" fill="white"/>
<path d="M57.2819 51.0665C58.0342 51.5297 59.1336 51.9158 60.2909 51.9158C62.0076 51.9158 63.0106 51.0086 63.0106 49.696C63.0106 48.48 62.3162 47.7851 60.561 47.1096C58.4392 46.3568 57.1276 45.2566 57.1276 43.4229C57.1276 41.3962 58.8057 39.8906 61.3325 39.8906C62.6634 39.8906 63.6278 40.1995 64.2065 40.5276L63.7436 41.898C63.3192 41.6664 62.4512 41.2804 61.2746 41.2804C59.5001 41.2804 58.825 42.342 58.825 43.2299C58.825 44.4459 59.6158 45.0443 61.4097 45.7391C63.6086 46.5884 64.7273 47.65 64.7273 49.5609C64.7273 51.5683 63.2421 53.3055 60.1752 53.3055C58.9214 53.3055 57.5519 52.9388 56.8575 52.4755L57.2819 51.0665Z" fill="white"/>
<path d="M71.0702 53.1131L67.775 40.1035H69.5496L71.0927 46.6855C71.4784 48.3069 71.8256 49.9282 72.0571 51.1829H72.0957C72.3078 49.8896 72.7129 48.3455 73.1565 46.6662L74.8893 40.1035H76.6446L78.2262 46.7048C78.5927 48.249 78.9399 49.7931 79.1328 51.1636H79.1714C79.4414 49.7352 79.8079 48.2876 80.2129 46.6662L81.9296 40.1035H83.6463L79.9622 53.1131H78.2069L76.5674 46.3381C76.1623 44.6781 75.8923 43.4042 75.7187 42.0916H75.6801C75.4487 43.3849 75.1593 44.6588 74.6771 46.3381L72.8254 53.1131H71.0702V53.1131Z" fill="white"/>
<path d="M88.8734 40.1035V53.1131H87.1953V40.1035H88.8734Z" fill="white"/>
<path d="M102.819 52.6879C102.202 52.9967 100.967 53.3055 99.3858 53.3055C95.7209 53.3055 92.9626 50.9893 92.9626 46.7235C92.9626 42.4578 95.7209 39.8906 99.7522 39.8906C101.372 39.8906 102.395 40.2381 102.838 40.4697L102.433 41.8401C101.797 41.5313 100.89 41.2997 99.8101 41.2997C96.7625 41.2997 94.7372 43.2492 94.7372 46.6656C94.7372 49.8505 96.5696 51.8965 99.7329 51.8965C100.755 51.8965 101.797 51.6842 102.472 51.356L102.819 52.6879V52.6879Z" fill="white"/>
<path d="M106.85 40.1035H108.528V46.3767H108.586C108.934 45.8748 109.281 45.4116 109.609 44.9869L113.582 40.1035H115.665L110.959 45.6239L116.032 53.1131H114.045L109.763 46.7241L108.528 48.1525V53.1131H106.85V40.1035V40.1035Z" fill="white"/>
<g clip-path="url(#clip0_1227_35)">
<path d="M249.249 66.7013C248.444 65.8011 247.627 65.0214 246.968 64.1324C245.283 61.8612 244.478 59.2094 243.965 56.4673C243.688 54.987 243.497 53.4917 243.314 52.0001C243.269 51.631 243.348 51.2317 243.441 50.8663C243.568 50.3842 243.995 50.3503 244.291 50.5839C244.699 50.904 245.07 51.3146 245.347 51.7553C247.687 55.4579 250.514 58.6783 254.292 60.9685C257.378 62.8405 260.789 63.865 264.226 64.8293C267.544 65.7596 270.902 66.5807 274.164 67.6844C277.474 68.8031 280.409 70.6374 282.731 73.3343C283.008 73.6583 283.218 74.0387 283.461 74.389L283.27 74.6112C283.019 74.4756 282.723 74.3927 282.529 74.2006C278.619 70.321 273.587 68.9688 268.442 67.8802C265.226 67.1985 261.968 66.69 258.864 65.5299C254.281 63.816 250.29 61.2359 247.051 57.522C246.819 57.2546 246.564 57.006 246.321 56.7461L246.141 56.795C246.186 57.2131 246.19 57.6425 246.287 58.0493C247.066 61.2547 248.53 64.0119 251.589 65.5675C252.551 66.0572 253.663 66.253 254.7 66.592C255.21 66.7578 255.738 66.9009 256.198 67.157C256.453 67.3002 256.771 67.6881 256.737 67.9141C256.696 68.1929 256.359 68.5432 256.075 68.6449C255.558 68.8294 254.981 68.9537 254.435 68.9349C251.727 68.837 249.02 68.6825 246.317 68.5507C246.118 68.5394 245.92 68.5507 245.497 68.5507C245.927 68.8445 246.19 69.0592 246.482 69.2136C249.301 70.7165 252.308 71.6506 255.453 72.1328C256.404 72.2797 257.37 72.3098 258.325 72.4266C258.913 72.4981 259.628 72.4944 259.767 73.2628C259.909 74.0424 259.257 74.3814 258.692 74.5208C257.329 74.856 255.94 75.0858 254.554 75.3193C253.54 75.4888 252.514 75.5868 251.492 75.7299C251.282 75.76 251.08 75.8467 250.694 75.9634C251.132 76.2083 251.405 76.3891 251.701 76.5209C254.169 77.617 256.76 78.1895 259.445 78.3477C259.976 78.3778 260.515 78.2874 261.051 78.2309C261.545 78.1782 262.021 78.182 262.272 78.7018C262.537 79.2479 262.414 79.7677 262.006 80.1971C261.317 80.9241 260.388 81.1313 259.456 81.2895C257.715 81.587 255.974 81.8733 254.188 82.2914C254.446 82.4232 254.7 82.5701 254.966 82.6793C257.58 83.7641 260.332 83.8508 263.103 83.7604C263.93 83.734 264.754 83.6361 265.574 83.5344C266.173 83.459 266.653 83.7001 266.843 84.2689C267.042 84.864 266.802 85.2896 266.267 85.542C264.949 86.1635 263.62 86.7624 262.302 87.3839C261.736 87.6513 261.156 87.9074 260.632 88.2464C259.812 88.7738 259.853 89.335 260.778 89.6777C261.545 89.964 262.365 90.1523 263.181 90.2691C265.791 90.642 268.308 90.0619 270.809 89.3952C271.37 89.2483 271.943 89.1052 272.516 89.0638C273.153 89.0186 273.43 89.4405 273.085 89.9715C272.711 90.5478 272.235 91.0789 271.719 91.5309C270.992 92.1675 270.191 92.7136 269.42 93.2975C269.247 93.4293 269.079 93.5687 268.91 93.7043L268.955 93.8813C270.416 93.7834 271.876 93.6817 273.336 93.5837L273.381 93.7457C273.19 93.8738 273.01 94.0282 272.804 94.1261C271.307 94.8267 269.738 95.2863 268.079 95.3164C267.708 95.3239 267.192 95.1469 267.012 94.8757C266.888 94.6874 267.132 94.0922 267.379 93.8512C268.161 93.0828 269.026 92.3935 269.858 91.6703C270.086 91.4707 270.311 91.271 270.535 91.0714L270.457 90.9019C270.281 90.9283 270.101 90.9396 269.929 90.981C267.469 91.5761 265.024 92.2617 262.451 92.1637C261.16 92.1148 259.868 92.0319 258.756 91.3351C258.172 90.9697 257.674 90.4122 257.247 89.8548C256.839 89.3237 256.958 88.721 257.49 88.2992C258.175 87.7605 258.902 87.2709 259.617 86.7699C259.797 86.6418 259.995 86.5439 260.369 86.3254C259.759 86.2124 259.325 86.122 258.887 86.0542C255.801 85.5608 252.929 84.4346 250.147 83.0522C249.769 82.8639 249.387 82.6379 249.088 82.3441C248.874 82.1369 248.676 81.764 248.713 81.5042C248.739 81.3271 249.178 81.1313 249.455 81.0898C250.316 80.958 251.196 80.9241 252.061 80.7923C253.199 80.619 254.334 80.3855 255.633 80.1482C253.824 79.5267 252.184 79.0408 250.608 78.4004C249.14 77.8015 247.717 77.0708 246.313 76.3288C245.834 76.0764 245.426 75.6395 245.07 75.2139C244.729 74.8071 244.905 74.4342 245.422 74.3362C245.684 74.2873 245.957 74.3174 246.227 74.3061C248.152 74.2119 250.076 74.1178 252.001 74.0085C252.259 73.9935 252.518 73.9106 252.862 73.8428C251.641 73.5076 250.507 73.2552 249.413 72.8823C246.298 71.8239 243.913 69.8088 242.112 67.0742C241.839 66.6598 241.378 66.14 241.801 65.6994C241.977 65.5186 242.666 65.7333 243.074 65.8915C245.059 66.6598 247.111 66.8293 249.26 66.6975L249.249 66.7013Z" fill="url(#paint0_linear_1227_35)"/>
<path d="M326.39 94.0546C328.914 94.0546 331.445 94.0546 333.976 94.0546C335.743 94.0546 337.462 94.3182 339.08 95.0565C341.371 96.1036 342.824 97.8287 342.846 100.424C342.873 103.441 341.697 106.232 337.855 107.543C337.589 107.633 337.316 107.709 336.893 107.837C339.731 111.814 342.348 115.829 346.074 118.929C344.397 119.92 341.483 119.634 339.828 118.312C338.379 117.155 337.357 115.645 336.361 114.112C335.26 112.413 334.193 110.692 333.059 109.016C332.564 108.289 331.905 107.705 330.887 107.573C330.887 107.912 330.883 108.213 330.887 108.515C330.932 111.355 330.984 114.199 331.025 117.039C331.029 117.374 330.999 117.717 330.928 118.04C330.696 119.114 330.089 119.634 328.989 119.611C328.146 119.596 327.304 119.472 326.446 119.393C327.019 110.869 326.854 102.454 326.386 94.0508L326.39 94.0546ZM330.962 99.6744H330.891C330.891 100.597 330.898 101.524 330.891 102.447C330.879 103.369 330.861 104.292 330.823 105.215C330.801 105.705 330.966 105.995 331.479 106.029C332.546 106.1 333.624 106.311 334.68 106.221C336.878 106.04 338.106 104.853 338.544 102.658C338.66 102.07 338.671 101.448 338.649 100.846C338.582 98.9323 337.717 97.4897 335.998 96.6196C334.553 95.8889 332.984 95.8098 331.411 95.8625C331.258 95.8663 330.992 96.1827 330.984 96.3635C330.943 97.4671 330.966 98.5707 330.966 99.6744H330.962Z" fill="white"/>
<path d="M416.442 119.046C413.956 119.675 411.597 119.904 409.489 118.066C407.893 116.676 406.605 115.038 405.452 113.283C404.34 111.591 403.288 109.855 402.183 108.16C401.876 107.693 401.603 107.132 400.854 107.019C400.839 107.294 400.813 107.527 400.817 107.764C400.861 110.695 400.918 113.629 400.948 116.56C400.955 117.094 400.933 117.644 400.824 118.168C400.637 119.076 400.027 119.611 399.128 119.607C398.199 119.603 397.274 119.475 396.421 119.407C396.964 110.853 396.765 102.457 396.32 94.0049C397.263 93.3458 399.506 93.6433 400.405 94.6264C400.88 95.1462 400.951 95.7753 400.94 96.4495C400.888 99.4477 400.858 102.446 400.82 105.448C400.82 105.527 400.858 105.61 400.895 105.757C401.067 105.651 401.213 105.602 401.311 105.501C403.943 102.789 406.617 100.118 409.166 97.3309C409.945 96.4796 410.376 95.3044 410.986 94.2874C411.08 94.1292 411.286 93.9522 411.451 93.9447C412.076 93.9145 412.712 93.8957 413.33 93.9786C414.266 94.1066 414.63 94.875 414.019 95.666C413.034 96.9429 411.971 98.1821 410.814 99.3008C408.904 101.143 406.897 102.883 404.92 104.653C404.613 104.928 404.456 105.15 404.748 105.553C407.519 109.358 410.32 113.143 413.619 116.514C414.48 117.392 415.446 118.164 416.438 119.049L416.442 119.046Z" fill="white"/>
<path d="M315.254 107.618C316.363 107.407 317.475 107.392 318.546 107.818C319.515 108.202 319.916 109.113 319.845 110.466C319.744 112.356 319.654 114.247 319.59 116.138C319.557 117.193 319.583 118.247 319.583 119.336C319.193 119.336 318.819 119.313 318.448 119.336C315.988 119.494 313.532 119.735 311.068 119.818C304.74 120.029 299.101 116.73 298.101 109.528C297.431 104.714 298.723 100.443 302.179 96.966C304.654 94.4725 307.739 93.4216 311.214 93.4894C313.221 93.5271 315.187 93.8322 317.052 94.6232C319.392 95.6138 319.778 96.8153 318.474 99.0075C318.452 99.0452 318.426 99.0829 318.4 99.1205C317.812 100.07 317.815 100.062 317.112 99.177C315.475 97.1204 313.427 95.7155 310.765 95.5196C307.455 95.2786 304.658 96.9434 303.37 100.175C301.426 105.057 301.842 109.829 304.879 114.18C306.762 116.876 309.503 117.92 312.757 117.551C313.491 117.468 314.221 117.351 314.94 117.189C315.146 117.144 315.449 116.892 315.46 116.718C315.681 113.709 315.805 110.695 315.254 107.614V107.618Z" fill="white"/>
<path d="M263.545 105.161C263.223 105.161 263.032 105.15 262.844 105.161C260.205 105.323 257.662 104.894 255.232 103.85C254.846 103.685 254.472 103.451 254.15 103.18C253.551 102.671 253.648 102.02 254.397 101.79C255.206 101.538 256.052 101.41 256.887 101.248C261.141 100.423 265.342 99.4132 269.345 97.7182C270.168 97.3717 270.936 96.8896 271.733 96.479C272.037 96.3246 272.351 96.1965 272.662 96.0571L272.834 96.2643C272.67 96.4941 272.55 96.7916 272.333 96.9385C271.22 97.6881 270.142 98.5243 268.94 99.093C265.859 100.547 262.725 101.895 259.373 102.637C258.995 102.72 258.617 102.803 258.243 102.886L258.228 103.172C258.812 103.297 259.4 103.541 259.984 103.526C261.41 103.492 262.837 103.346 264.263 103.24C264.308 103.24 264.353 103.221 264.395 103.218C264.975 103.165 265.623 103.01 266.005 103.587C266.353 104.114 265.975 104.619 265.724 105.093C265.409 105.681 265.083 106.261 264.653 107.044C265.117 106.935 265.383 106.89 265.638 106.811C266.514 106.536 267.379 106.231 268.255 105.967C269.423 105.613 270.303 106.065 271.011 106.999C271.595 107.771 271.786 107.76 272.471 107.075C274.399 105.154 276.275 103.169 278.301 101.353C279.649 100.144 281.184 99.1382 282.689 98.1213C284.783 96.705 286.838 95.2624 288.325 93.1568C289.935 90.878 290.744 88.2866 291.189 85.5784C291.706 82.4219 292.14 79.2542 292.556 76.0827C292.863 73.7398 294.301 72.2407 296.956 71.6456C295.259 67.8827 291.987 67.9166 289.793 69.8903C288.778 70.8056 287.86 71.8339 286.894 72.8057C286.617 73.0844 286.322 73.3443 285.883 73.7511C285.883 73.3632 285.82 73.1522 285.891 73.0129C287.003 70.8132 288.366 68.8055 290.523 67.5098C293.316 65.8337 296.892 66.8582 298.472 69.7058C298.648 70.0259 298.944 70.3084 299.24 70.5307C300.067 71.1522 300.453 72.0147 300.659 72.9865C300.76 73.4649 300.535 73.6231 300.09 73.4724C299.857 73.3933 299.629 73.2991 299.404 73.1937C298.787 72.9074 298.184 72.7643 297.573 73.2464C297.412 73.3745 297.15 73.4385 296.941 73.4272C295.945 73.3707 295.248 73.8943 294.934 74.7305C294.518 75.8341 294.207 76.9942 294.016 78.1581C293.499 81.3145 293.237 84.5199 292.575 87.6425C291.466 92.8555 288.325 96.6372 283.809 99.3341C281.259 100.86 278.818 102.528 276.822 104.792C275.605 106.178 274.295 107.478 273.01 108.803C272.778 109.041 272.494 109.244 272.198 109.391C271.505 109.734 270.928 109.523 270.561 108.845C269.756 107.365 268.978 107.063 267.42 107.658C266.896 107.858 266.409 108.156 265.874 108.318C265.173 108.528 264.451 108.751 263.732 108.781C262.459 108.83 262.058 108.137 262.612 106.999C262.788 106.638 263.017 106.295 263.204 105.937C263.312 105.73 263.391 105.508 263.541 105.165L263.545 105.161Z" fill="#BA1618"/>
<path d="M347.681 119.277C350.01 115.774 350.912 111.732 352.346 107.916C354.061 103.351 355.641 98.7297 357.262 94.1268C357.431 93.6485 357.618 93.5166 358.131 93.656C360.307 94.2361 361.617 95.6636 362.302 97.7579C363.639 101.837 364.938 105.931 366.346 109.984C367.196 112.425 368.204 114.809 369.181 117.205C369.473 117.921 369.892 118.587 370.274 119.314C369.016 119.646 367.698 119.815 366.373 119.446C365.395 119.175 364.8 118.474 364.512 117.488C363.924 115.48 363.295 113.487 362.707 111.48C362.565 110.99 362.329 110.798 361.808 110.809C359.251 110.87 356.697 110.903 354.14 110.918C353.705 110.918 353.567 111.111 353.458 111.476C352.956 113.178 352.447 114.881 351.912 116.576C351.717 117.194 351.485 117.815 351.182 118.388C350.508 119.661 348.984 120.038 347.681 119.277V119.277ZM358.034 98.0404L357.704 98.0705C356.536 101.686 355.372 105.302 354.181 108.998H361.906C360.58 105.25 359.307 101.645 358.034 98.0404Z" fill="white"/>
<path d="M461 119.336C459.869 119.63 458.618 119.781 457.345 119.495C456.286 119.257 455.63 118.568 455.32 117.536C454.724 115.555 454.114 113.577 453.537 111.592C453.376 111.039 453.133 110.786 452.515 110.805C450.003 110.873 447.49 110.907 444.978 110.918C444.528 110.918 444.349 111.106 444.233 111.502C443.693 113.31 443.147 115.118 442.585 116.922C442.439 117.393 442.259 117.86 442.027 118.297C441.304 119.664 439.758 120.082 438.47 119.265C440.694 116.003 441.548 112.161 442.911 108.538C444.274 104.918 445.524 101.257 446.824 97.6143C447.247 96.4278 447.681 95.2451 448.086 94.0511C448.217 93.6706 448.348 93.5237 448.804 93.6367C451.051 94.1791 452.373 95.6406 453.103 97.7763C455.106 103.648 457.109 109.524 459.173 115.374C459.648 116.719 460.363 117.977 460.996 119.336H461ZM448.831 98.0437L448.497 98.0663C447.333 101.682 446.165 105.298 444.97 109.001H452.699C451.377 105.253 450.104 101.648 448.831 98.0437Z" fill="white"/>
<path d="M432.707 104.76C432.883 106.523 432.303 107.223 430.644 107.201C429.053 107.182 427.462 107.11 425.87 107.02C425.309 106.99 425.058 107.099 425.076 107.735C425.148 110.598 425.178 113.464 425.219 116.331C425.223 116.689 425.211 117.005 425.732 116.979C428.753 116.832 431.779 116.719 434.801 116.549C435.392 116.515 435.976 116.293 436.703 116.127C436.658 116.851 436.662 117.559 436.553 118.248C436.444 118.934 435.928 119.306 435.269 119.337C433.614 119.408 431.955 119.465 430.296 119.457C427.357 119.442 424.417 119.374 421.478 119.333C421.239 119.333 420.995 119.333 420.752 119.333C421.28 110.881 421.048 102.511 420.617 94.0964C425.361 94.0135 430.101 93.9307 434.853 93.8516C435.093 95.4561 434.201 96.605 432.457 96.5598C430.244 96.4995 428.035 96.266 425.822 96.1078C425.649 96.0965 425.473 96.0776 425.275 96.0626C425.249 96.2321 425.208 96.3639 425.208 96.492C425.178 99.0872 425.166 101.682 425.118 104.274C425.106 104.854 425.279 105.072 425.882 105.05C427.832 104.982 429.783 104.971 431.734 104.922C432.041 104.914 432.348 104.824 432.7 104.764L432.707 104.76Z" fill="white"/>
<path d="M268.364 53.3296C268.131 54.6064 268.345 55.5895 268.611 56.5613C269.004 58.0002 269.741 59.2507 270.689 60.3882C271.022 60.7913 271.565 61.2395 271.228 61.7781C270.85 62.3808 270.165 62.0681 269.704 61.8233C268.461 61.1679 267.259 60.4334 266.061 59.6952C265.649 59.4428 265.293 59.0925 264.911 58.7836L264.668 58.8364C264.668 59.4164 264.586 60.0078 264.687 60.569C264.84 61.4278 265.125 62.264 265.327 63.1153C265.368 63.281 265.282 63.4769 265.256 63.6614C265.069 63.5823 264.791 63.556 264.705 63.4166C263.275 61.1077 262.594 58.648 263.44 55.9549C263.556 55.5895 263.9 55.1036 264.204 55.0509C264.469 55.0057 264.87 55.4502 265.132 55.7515C265.604 56.2939 266.02 56.8928 266.563 57.6047C266.51 56.2223 266.349 55.0735 266.454 53.951C266.6 52.4406 266.944 50.9453 267.222 49.4462C267.266 49.2126 267.386 48.9678 267.536 48.7795C267.663 48.6213 267.903 48.4103 268.049 48.4405C268.236 48.4781 268.438 48.7041 268.532 48.9C268.865 49.5855 269.124 50.3049 269.468 50.9829C269.633 51.3106 269.925 51.5743 270.326 51.8342C270.419 51.0281 270.487 50.2145 270.614 49.4123C271.101 46.3387 271.981 43.4271 274.272 41.1746C274.759 40.6963 275.369 40.3045 275.991 40.022C276.938 39.5964 277.642 40.1765 277.41 41.1822C276.38 45.6569 277.919 49.4725 280.361 53.0621C281.334 54.4972 282.345 55.9059 283.334 57.3297C285.138 59.9362 285.846 62.8516 285.535 65.9817C285.385 67.4959 284.996 68.9874 284.689 70.4828C284.637 70.7389 284.461 70.9725 284.337 71.2135L284.135 71.1834C284.105 71.0064 284.037 70.8256 284.045 70.6485C284.079 69.8161 284.124 68.9837 284.176 68.1513C284.378 64.9684 283.697 62.0116 281.933 59.3411C281.128 58.1207 280.342 56.8777 279.447 55.7251C277.197 52.8211 275.777 49.5554 275.051 45.9658C274.931 45.382 274.722 44.8132 274.557 44.2369L274.321 44.1804C274.092 44.5608 273.755 44.9187 273.651 45.333C273.25 46.8961 272.774 48.4631 272.606 50.0563C272.426 51.789 272.55 53.5518 272.561 55.3033C272.561 55.8193 272.333 56.098 271.872 55.872C271.198 55.5406 270.565 55.1187 269.955 54.678C269.438 54.3051 268.981 53.8569 268.36 53.322L268.364 53.3296Z" fill="url(#paint1_linear_1227_35)"/>
<path d="M383.027 119.399C382.08 119.478 381.192 119.603 380.305 119.607C379.298 119.607 378.601 118.959 378.526 117.945C378.452 116.959 378.47 115.964 378.47 114.97C378.463 112.623 378.474 110.277 378.459 107.934C378.459 107.636 378.403 107.286 378.246 107.045C376.445 104.329 374.64 101.613 372.786 98.9277C371.689 97.3382 370.513 95.8089 369.375 94.2496C369.338 94.2006 369.327 94.129 369.278 94.001C370.761 93.7298 372.213 93.6356 373.681 93.903C374.494 94.0537 374.894 94.6639 375.299 95.308C377.111 98.2045 378.946 101.09 380.777 103.979C380.942 104.239 381.147 104.468 381.402 104.8C381.612 104.502 381.78 104.303 381.911 104.08C383.181 101.93 384.439 99.7714 385.708 97.6207C386.12 96.9239 386.524 96.2195 386.977 95.549C388.119 93.8465 389.194 93.4322 391.186 93.8767C391.373 93.9181 391.561 93.9784 391.811 94.0499C391.366 94.4944 390.916 94.8447 390.594 95.2891C388.82 97.7224 387.049 100.159 385.33 102.634C384.431 103.926 383.622 105.282 382.817 106.634C382.623 106.962 382.503 107.395 382.518 107.772C382.668 111.373 382.855 114.97 383.031 118.567C383.042 118.789 383.031 119.011 383.031 119.396L383.027 119.399Z" fill="white"/>
</g>
<line x1="174.56" y1="98.1772" x2="196.461" y2="76.2766" stroke="white" stroke-width="4.52233" stroke-linecap="round"/>
<line x1="196.453" y1="98.8574" x2="174.552" y2="76.9568" stroke="white" stroke-width="4.52233" stroke-linecap="round"/>
<path d="M14.1937 11.7685C14.0909 10.8564 13.6669 10.1497 12.9218 9.64869C12.1766 9.14121 11.2388 8.88747 10.1082 8.88747C9.29877 8.88747 8.59858 9.01595 8.0076 9.2729C7.41661 9.52342 6.95731 9.87031 6.6297 10.3135C6.30851 10.7504 6.14792 11.2482 6.14792 11.8071C6.14792 12.276 6.25712 12.6807 6.47553 13.0212C6.70036 13.3616 6.99264 13.6475 7.35237 13.8787C7.71853 14.1036 8.11038 14.2931 8.52792 14.4472C8.94547 14.595 9.34695 14.717 9.73238 14.8134L11.6595 15.3144C12.289 15.4686 12.9346 15.6774 13.5963 15.9408C14.2579 16.2041 14.8714 16.551 15.4367 16.9814C16.002 17.4118 16.4581 17.945 16.8049 18.5809C17.1583 19.2169 17.3349 19.9781 17.3349 20.8646C17.3349 21.9823 17.0458 22.9748 16.4677 23.842C15.896 24.7092 15.0641 25.3933 13.9721 25.8944C12.8864 26.3954 11.5728 26.646 10.0311 26.646C8.55362 26.646 7.27529 26.4115 6.19609 25.9426C5.1169 25.4736 4.27218 24.8088 3.66192 23.948C3.05166 23.0808 2.71441 22.053 2.65018 20.8646H5.63723C5.69504 21.5776 5.9263 22.1718 6.33099 22.6472C6.74211 23.1161 7.26565 23.4662 7.9016 23.6975C8.54398 23.9223 9.24738 24.0347 10.0118 24.0347C10.8533 24.0347 11.6017 23.903 12.2569 23.6396C12.9186 23.3699 13.4389 22.9973 13.8179 22.5219C14.1969 22.0401 14.3864 21.4781 14.3864 20.8357C14.3864 20.2511 14.2194 19.7725 13.8853 19.4C13.5577 19.0274 13.1113 18.719 12.546 18.4749C11.9871 18.2308 11.3544 18.0156 10.6478 17.8294L8.31594 17.1934C6.73569 16.763 5.48306 16.1303 4.55803 15.2952C3.63944 14.4601 3.18014 13.3552 3.18014 11.9805C3.18014 10.8435 3.48848 9.85104 4.10516 9.0031C4.72184 8.15516 5.55693 7.49673 6.61043 7.02779C7.66392 6.55243 8.85232 6.31475 10.1756 6.31475C11.5118 6.31475 12.6905 6.54922 13.7119 7.01816C14.7397 7.48709 15.5491 8.13268 16.1401 8.95492C16.7311 9.77074 17.0394 10.7086 17.0651 11.7685H14.1937ZM20.8929 26.3184V6.58455H27.9269C29.4622 6.58455 30.7341 6.86398 31.7426 7.42285C32.7511 7.98172 33.5059 8.74615 34.007 9.71614C34.508 10.6797 34.7586 11.7653 34.7586 12.973C34.7586 14.1871 34.5048 15.2791 33.9973 16.2491C33.4963 17.2127 32.7383 17.9771 31.7233 18.5424C30.7148 19.1013 29.4461 19.3807 27.9173 19.3807H23.0802V16.8562H27.6475C28.6174 16.8562 29.4044 16.6891 30.0082 16.3551C30.612 16.0146 31.0553 15.5521 31.3379 14.9676C31.6206 14.383 31.7619 13.7181 31.7619 12.973C31.7619 12.2278 31.6206 11.5662 31.3379 10.988C31.0553 10.4099 30.6088 9.95703 29.9986 9.62942C29.3947 9.3018 28.5982 9.138 27.6089 9.138H23.8703V26.3184H20.8929ZM55.3909 16.4515C55.3909 18.5585 55.0055 20.37 54.2346 21.886C53.4638 23.3955 52.4071 24.5582 51.0645 25.3741C49.7283 26.1835 48.2091 26.5882 46.5068 26.5882C44.7981 26.5882 43.2725 26.1835 41.9299 25.3741C40.5938 24.5582 39.5403 23.3923 38.7694 21.8763C37.9985 20.3603 37.6131 18.552 37.6131 16.4515C37.6131 14.3445 37.9985 12.5362 38.7694 11.0266C39.5403 9.51058 40.5938 8.34787 41.9299 7.53848C43.2725 6.72266 44.7981 6.31475 46.5068 6.31475C48.2091 6.31475 49.7283 6.72266 51.0645 7.53848C52.4071 8.34787 53.4638 9.51058 54.2346 11.0266C55.0055 12.5362 55.3909 14.3445 55.3909 16.4515ZM52.4424 16.4515C52.4424 14.8455 52.1822 13.4933 51.6619 12.3948C51.148 11.29 50.4414 10.4549 49.5421 9.88958C48.6492 9.31786 47.6374 9.03201 46.5068 9.03201C45.3698 9.03201 44.3549 9.31786 43.462 9.88958C42.5691 10.4549 41.8624 11.29 41.3421 12.3948C40.8282 13.4933 40.5713 14.8455 40.5713 16.4515C40.5713 18.0574 40.8282 19.4128 41.3421 20.5177C41.8624 21.6162 42.5691 22.4513 43.462 23.023C44.3549 23.5883 45.3698 23.8709 46.5068 23.8709C47.6374 23.8709 48.6492 23.5883 49.5421 23.023C50.4414 22.4513 51.148 21.6162 51.6619 20.5177C52.1822 19.4128 52.4424 18.0574 52.4424 16.4515ZM75.0308 6.58455V26.3184H72.2942L62.2635 11.8456H62.0804V26.3184H59.103V6.58455H61.8588L71.8992 21.0766H72.0822V6.58455H75.0308ZM90.137 11.7685C90.0343 10.8564 89.6103 10.1497 88.8651 9.64869C88.12 9.14121 87.1821 8.88747 86.0515 8.88747C85.2421 8.88747 84.5419 9.01595 83.951 9.2729C83.36 9.52342 82.9007 9.87031 82.5731 10.3135C82.2519 10.7504 82.0913 11.2482 82.0913 11.8071C82.0913 12.276 82.2005 12.6807 82.4189 13.0212C82.6437 13.3616 82.936 13.6475 83.2957 13.8787C83.6619 14.1036 84.0537 14.2931 84.4713 14.4472C84.8888 14.595 85.2903 14.717 85.6757 14.8134L87.6029 15.3144C88.2324 15.4686 88.878 15.6774 89.5396 15.9408C90.2013 16.2041 90.8147 16.551 91.38 16.9814C91.9453 17.4118 92.4014 17.945 92.7483 18.5809C93.1016 19.2169 93.2783 19.9781 93.2783 20.8646C93.2783 21.9823 92.9892 22.9748 92.4111 23.842C91.8393 24.7092 91.0075 25.3933 89.9154 25.8944C88.8298 26.3954 87.5161 26.646 85.9744 26.646C84.497 26.646 83.2186 26.4115 82.1395 25.9426C81.0603 25.4736 80.2155 24.8088 79.6053 23.948C78.995 23.0808 78.6578 22.053 78.5935 20.8646H81.5806C81.6384 21.5776 81.8697 22.1718 82.2744 22.6472C82.6855 23.1161 83.209 23.4662 83.845 23.6975C84.4873 23.9223 85.1907 24.0347 85.9552 24.0347C86.7967 24.0347 87.5451 23.903 88.2003 23.6396C88.8619 23.3699 89.3822 22.9973 89.7613 22.5219C90.1403 22.0401 90.3298 21.4781 90.3298 20.8357C90.3298 20.2511 90.1627 19.7725 89.8287 19.4C89.5011 19.0274 89.0546 18.719 88.4893 18.4749C87.9305 18.2308 87.2977 18.0156 86.5911 17.8294L84.2593 17.1934C82.679 16.763 81.4264 16.1303 80.5014 15.2952C79.5828 14.4601 79.1235 13.3552 79.1235 11.9805C79.1235 10.8435 79.4318 9.85104 80.0485 9.0031C80.6652 8.15516 81.5003 7.49673 82.5538 7.02779C83.6073 6.55243 84.7957 6.31475 86.119 6.31475C87.4551 6.31475 88.6339 6.54922 89.6553 7.01816C90.6831 7.48709 91.4925 8.13268 92.0834 8.95492C92.6744 9.77074 92.9828 10.7086 93.0085 11.7685H90.137ZM113.978 16.4515C113.978 18.5585 113.593 20.37 112.822 21.886C112.051 23.3955 110.994 24.5582 109.652 25.3741C108.315 26.1835 106.796 26.5882 105.094 26.5882C103.385 26.5882 101.86 26.1835 100.517 25.3741C99.1809 24.5582 98.1274 23.3923 97.3566 21.8763C96.5857 20.3603 96.2003 18.552 96.2003 16.4515C96.2003 14.3445 96.5857 12.5362 97.3566 11.0266C98.1274 9.51058 99.1809 8.34787 100.517 7.53848C101.86 6.72266 103.385 6.31475 105.094 6.31475C106.796 6.31475 108.315 6.72266 109.652 7.53848C110.994 8.34787 112.051 9.51058 112.822 11.0266C113.593 12.5362 113.978 14.3445 113.978 16.4515ZM111.03 16.4515C111.03 14.8455 110.769 13.4933 110.249 12.3948C109.735 11.29 109.029 10.4549 108.129 9.88958C107.236 9.31786 106.225 9.03201 105.094 9.03201C103.957 9.03201 102.942 9.31786 102.049 9.88958C101.156 10.4549 100.45 11.29 99.9293 12.3948C99.4154 13.4933 99.1584 14.8455 99.1584 16.4515C99.1584 18.0574 99.4154 19.4128 99.9293 20.5177C100.45 21.6162 101.156 22.4513 102.049 23.023C102.942 23.5883 103.957 23.8709 105.094 23.8709C106.225 23.8709 107.236 23.5883 108.129 23.023C109.029 22.4513 109.735 21.6162 110.249 20.5177C110.769 19.4128 111.03 18.0574 111.03 16.4515ZM117.69 26.3184V6.58455H124.724C126.253 6.58455 127.522 6.84793 128.53 7.37467C129.545 7.90142 130.303 8.63052 130.804 9.56197C131.305 10.487 131.556 11.5565 131.556 12.7706C131.556 13.9783 131.302 15.0414 130.795 15.96C130.294 16.8722 129.536 17.582 128.521 18.0895C127.512 18.597 126.243 18.8507 124.715 18.8507H119.386V16.2876H124.445C125.408 16.2876 126.192 16.1495 126.796 15.8733C127.406 15.5971 127.853 15.1956 128.135 14.6689C128.418 14.1421 128.559 13.5094 128.559 12.7706C128.559 12.0255 128.415 11.3799 128.126 10.8339C127.843 10.2879 127.396 9.87031 126.786 9.58124C126.182 9.28575 125.389 9.138 124.406 9.138H120.668V26.3184H117.69ZM127.432 17.415L132.307 26.3184H128.916L124.136 17.415H127.432ZM135.179 26.3184V6.58455H147.551V9.14763H138.156V15.1603H146.905V17.7137H138.156V23.7553H147.667V26.3184H135.179ZM157.917 26.3184H151.528V6.58455H158.119C160.052 6.58455 161.713 6.97961 163.101 7.76974C164.488 8.55343 165.551 9.68081 166.29 11.1518C167.035 12.6165 167.408 14.3734 167.408 16.4225C167.408 18.4782 167.032 20.2447 166.28 21.7222C165.535 23.1996 164.456 24.3366 163.043 25.1332C161.63 25.9233 159.921 26.3184 157.917 26.3184ZM154.506 23.7167H157.753C159.256 23.7167 160.505 23.4341 161.501 22.8688C162.497 22.2971 163.242 21.4716 163.737 20.3924C164.231 19.3068 164.478 17.9835 164.478 16.4225C164.478 14.8744 164.231 13.5608 163.737 12.4816C163.248 11.4024 162.519 10.5833 161.549 10.0245C160.579 9.46561 159.375 9.18618 157.936 9.18618H154.506V23.7167ZM178.291 26.3184V6.58455H185.518C186.918 6.58455 188.078 6.81581 188.996 7.27832C189.915 7.73441 190.602 8.3543 191.058 9.138C191.515 9.91527 191.743 10.7921 191.743 11.7685C191.743 12.5908 191.592 13.2845 191.29 13.8498C190.988 14.4087 190.583 14.8584 190.076 15.1988C189.575 15.5329 189.022 15.777 188.418 15.9311V16.1238C189.073 16.156 189.713 16.3679 190.336 16.7598C190.965 17.1452 191.486 17.6945 191.897 18.4075C192.308 19.1205 192.513 19.9877 192.513 21.0091C192.513 22.0176 192.276 22.9234 191.8 23.7264C191.331 24.5229 190.606 25.1557 189.623 25.6246C188.64 26.0871 187.384 26.3184 185.855 26.3184H178.291ZM181.269 23.7649H185.566C186.992 23.7649 188.014 23.4887 188.63 22.9362C189.247 22.3838 189.555 21.6932 189.555 20.8646C189.555 20.2415 189.398 19.6698 189.083 19.1494C188.768 18.6291 188.319 18.2148 187.734 17.9064C187.156 17.5981 186.469 17.4439 185.672 17.4439H181.269V23.7649ZM181.269 15.1217H185.258C185.926 15.1217 186.526 14.9933 187.06 14.7363C187.599 14.4794 188.026 14.1196 188.341 13.6571C188.662 13.1882 188.823 12.6357 188.823 11.9998C188.823 11.184 188.537 10.4998 187.965 9.94739C187.394 9.39495 186.517 9.11873 185.335 9.11873H181.269V15.1217ZM194.522 6.58455H197.905L203.06 15.5553H203.272L208.427 6.58455H211.809L204.649 18.5713V26.3184H201.682V18.5713L194.522 6.58455Z" fill="white"/>
<defs>
<linearGradient id="paint0_linear_1227_35" x1="238.787" y1="64.6033" x2="269.626" y2="79.8254" gradientUnits="userSpaceOnUse">
<stop stop-color="#F37920"/>
<stop offset="1" stop-color="#C82D1C"/>
</linearGradient>
<linearGradient id="paint1_linear_1227_35" x1="264.031" y1="43.6568" x2="284.261" y2="67.1174" gradientUnits="userSpaceOnUse">
<stop stop-color="#F37920"/>
<stop offset="1" stop-color="#C82D1C"/>
</linearGradient>
<clipPath id="clip0_1227_35">
<rect width="219.379" height="79.943" fill="white" transform="translate(241.621 39.8887)"/>
</clipPath>
</defs>
</svg>
