<svg width="302" height="125" viewBox="0 0 302 125" fill="none" xmlns="http://www.w3.org/2000/svg">
<path d="M31.8071 10.378V36.0394H35.9353V10.378H31.8071ZM36.6605 4.18576C36.6605 2.67955 35.4332 1.39648 33.8712 1.39648C32.3092 1.39648 31.0819 2.67955 31.0819 4.18576C31.0819 5.74777 32.3092 6.97505 33.8712 6.97505C35.4332 6.97505 36.6605 5.74777 36.6605 4.18576ZM38.8348 21.0331C38.8348 29.4567 45.6407 36.3184 54.0643 36.3184V32.1902C47.9279 32.1344 42.963 27.1695 42.963 21.0331V1.78698H38.8348V21.0331ZM56.9761 21.0331C56.9761 29.4567 63.782 36.3184 72.2056 36.3184V32.1902C66.0692 32.1344 61.1042 27.1695 61.1042 21.0331V1.78698H56.9761V21.0331ZM75.1174 10.378V36.0394H79.2455V10.378H75.1174ZM79.9707 4.18576C79.9707 2.67955 78.7434 1.39648 77.1814 1.39648C75.6194 1.39648 74.3921 2.67955 74.3921 4.18576C74.3921 5.74777 75.6194 6.97505 77.1814 6.97505C78.7434 6.97505 79.9707 5.74777 79.9707 4.18576ZM112.604 21.1446C112.604 12.721 105.798 5.85934 97.3746 5.85934C88.9509 5.85934 82.1451 12.6094 82.1451 21.0331V36.0394H86.2732V21.1446C86.2732 15.0082 91.2381 9.98748 97.3746 9.98748C103.511 9.98748 108.476 15.0082 108.476 21.1446V36.0394H112.604V21.1446ZM130.717 5.80355C122.293 5.80355 115.431 12.6094 115.431 21.0331C115.431 29.4567 122.293 36.3184 130.717 36.3184C139.14 36.3184 145.946 29.4567 145.946 21.0331C145.946 12.6094 139.14 5.80355 130.717 5.80355ZM130.717 32.1902C124.58 32.1902 119.559 27.1695 119.559 21.0331C119.559 14.8966 124.58 9.9317 130.717 9.9317C136.853 9.9317 141.818 14.8966 141.818 21.0331C141.818 27.1695 136.853 32.1902 130.717 32.1902ZM148.826 10.378V36.0394H152.955V10.378H148.826ZM153.68 4.18576C153.68 2.67955 152.453 1.39648 150.891 1.39648C149.329 1.39648 148.101 2.67955 148.101 4.18576C148.101 5.74777 149.329 6.97505 150.891 6.97505C152.453 6.97505 153.68 5.74777 153.68 4.18576ZM166.565 6.08248C165.338 10.9358 161.042 14.4503 155.854 14.4503V18.6343C161.767 18.5785 166.9 15.1756 169.41 10.2664H182.129V21.0331C182.129 27.1695 177.109 32.1902 170.972 32.1902C165.561 32.1902 160.986 28.2852 160.038 23.0971H155.854C156.858 30.5724 163.274 36.3184 170.972 36.3184C179.396 36.3184 186.257 29.4567 186.257 21.0331V6.08248H166.565ZM58.1938 43.7312V52.6011C55.4045 49.6445 51.4437 47.8036 47.0924 47.8036C38.6688 47.8036 31.8071 54.6094 31.8071 63.0331C31.8071 71.4567 38.6688 78.3184 47.0924 78.3184C55.5161 78.3184 62.3219 71.4567 62.3219 63.0331V43.7312H58.1938ZM58.1938 63.0331C58.1938 69.1695 53.2289 74.1902 47.0924 74.1902C40.956 74.1902 35.9353 69.1695 35.9353 63.0331C35.9353 56.8966 40.956 51.9317 47.0924 51.9317C53.2289 51.9317 58.1938 56.8966 58.1938 63.0331ZM94.713 57.5661C92.5373 51.8201 86.9588 47.8036 80.4876 47.8036C72.064 47.8036 65.2023 54.6094 65.2023 63.0331C65.2023 71.4567 72.064 78.3184 80.4876 78.3184C88.186 78.3184 94.6014 72.5724 95.6055 65.0971H91.4216C90.4175 70.2852 85.8988 74.1902 80.4876 74.1902C79.7624 74.1902 79.0372 74.0786 78.312 73.9671L94.713 57.5661ZM69.3305 63.0331C69.3305 56.8966 74.3512 51.9317 80.4876 51.9317C84.281 51.9317 87.684 53.8842 89.6923 56.7851L74.2396 72.2377C71.283 70.2294 69.3305 66.8823 69.3305 63.0331ZM109.199 48.0825C107.972 52.9358 103.677 56.4503 98.4885 56.4503V60.6343C104.402 60.5785 109.534 57.1756 112.044 52.2664H124.764V63.0331C124.764 69.1695 119.743 74.1902 113.606 74.1902C108.195 74.1902 103.621 70.2852 102.672 65.0971H98.4885C99.4927 72.5724 105.908 78.3184 113.606 78.3184C122.03 78.3184 128.892 71.4567 128.892 63.0331V48.0825H109.199ZM131.775 52.378V78.0394H135.903V52.378H131.775ZM136.628 46.1858C136.628 44.6795 135.401 43.3965 133.839 43.3965C132.277 43.3965 131.05 44.6795 131.05 46.1858C131.05 47.7478 132.277 48.9751 133.839 48.9751C135.401 48.9751 136.628 47.7478 136.628 46.1858ZM154.144 65.0971H165.022C164.018 70.2852 159.499 74.1902 154.088 74.1902C147.951 74.1902 142.931 69.1695 142.931 63.0331C142.931 56.8966 147.951 51.9317 154.088 51.9317C157.937 51.9317 161.34 53.8842 163.348 56.8408H168.034C165.635 51.4854 160.28 47.8036 154.088 47.8036C145.664 47.8036 138.802 54.6094 138.802 63.0331C138.802 71.4567 145.664 78.3184 154.088 78.3184C162.511 78.3184 169.317 71.4567 169.317 63.0331C169.317 62.3636 169.261 61.6384 169.206 60.969H154.144V65.0971ZM202.657 63.1446C202.657 54.721 195.851 47.8593 187.427 47.8593C179.003 47.8593 172.198 54.6094 172.198 63.0331V78.0394H176.326V63.1446C176.326 57.0082 181.291 51.9875 187.427 51.9875C193.564 51.9875 198.529 57.0082 198.529 63.1446V78.0394H202.657V63.1446ZM47.0924 116.19C40.956 116.19 35.9353 111.169 35.9353 105.033C35.9353 98.8966 40.956 93.9317 47.0924 93.9317C52.5036 93.9317 57.0223 97.8367 58.0264 102.969H62.2104C61.2062 95.5495 54.7909 89.8036 47.0924 89.8036C38.6688 89.8036 31.8071 96.6094 31.8071 105.033C31.8071 113.457 38.6688 120.318 47.0924 120.318C54.7909 120.318 61.2062 114.572 62.2104 107.097H58.0264C57.0223 112.285 52.5036 116.19 47.0924 116.19ZM69.2215 105.312C69.2215 99.1756 74.1864 94.1548 80.3229 94.1548C86.5151 94.1548 91.48 99.1756 91.48 105.312V120.039H95.6082V105.312C95.6082 96.8883 88.8023 90.0267 80.3229 90.0267C75.9716 90.0267 72.0108 91.8676 69.2215 94.8243V85.7312H65.0934V120.039H69.2215V105.312ZM129.003 105.033C129.003 96.6094 122.197 89.8036 113.774 89.8036C105.35 89.8036 98.4885 96.6094 98.4885 105.033C98.4885 113.457 105.35 120.318 113.774 120.318C118.125 120.318 122.086 118.477 124.875 115.521V120.039H129.003V105.033ZM113.774 116.19C107.637 116.19 102.617 111.169 102.617 105.033C102.617 98.8966 107.637 93.9317 113.774 93.9317C119.91 93.9317 124.875 98.8966 124.875 105.033C124.875 111.169 119.91 116.19 113.774 116.19ZM131.884 105.033C131.884 113.457 138.69 120.318 147.113 120.318V116.19C140.977 116.134 136.012 111.169 136.012 105.033V85.787H131.884V105.033ZM150.025 105.033C150.025 113.457 156.831 120.318 165.254 120.318V116.19C159.118 116.134 154.153 111.169 154.153 105.033V85.787H150.025V105.033ZM197.677 99.5661C195.501 93.8201 189.923 89.8036 183.452 89.8036C175.028 89.8036 168.166 96.6094 168.166 105.033C168.166 113.457 175.028 120.318 183.452 120.318C191.15 120.318 197.565 114.572 198.569 107.097H194.386C193.381 112.285 188.863 116.19 183.452 116.19C182.726 116.19 182.001 116.079 181.276 115.967L197.677 99.5661ZM172.294 105.033C172.294 98.8966 177.315 93.9317 183.452 93.9317C187.245 93.9317 190.648 95.8842 192.656 98.7851L177.204 114.238C174.247 112.229 172.294 108.882 172.294 105.033ZM231.911 105.145C231.911 96.721 225.106 89.8593 216.682 89.8593C208.258 89.8593 201.452 96.6094 201.452 105.033V120.039H205.581V105.145C205.581 99.0082 210.546 93.9875 216.682 93.9875C222.818 93.9875 227.783 99.0082 227.783 105.145V120.039H231.911V105.145ZM250.08 107.097H260.958C259.954 112.285 255.435 116.19 250.024 116.19C243.888 116.19 238.867 111.169 238.867 105.033C238.867 98.8966 243.888 93.9317 250.024 93.9317C253.873 93.9317 257.276 95.8842 259.284 98.8408H263.97C261.572 93.4854 256.216 89.8036 250.024 89.8036C241.6 89.8036 234.739 96.6094 234.739 105.033C234.739 113.457 241.6 120.318 250.024 120.318C258.448 120.318 265.254 113.457 265.254 105.033C265.254 104.364 265.198 103.638 265.142 102.969H250.08V107.097ZM297.645 99.5661C295.469 93.8201 289.89 89.8036 283.419 89.8036C274.996 89.8036 268.134 96.6094 268.134 105.033C268.134 113.457 274.996 120.318 283.419 120.318C291.118 120.318 297.533 114.572 298.537 107.097H294.353C293.349 112.285 288.83 116.19 283.419 116.19C282.694 116.19 281.969 116.079 281.244 115.967L297.645 99.5661ZM272.262 105.033C272.262 98.8966 277.283 93.9317 283.419 93.9317C287.213 93.9317 290.616 95.8842 292.624 98.7851L277.171 114.238C274.215 112.229 272.262 108.882 272.262 105.033Z" fill="#ACE1AF"/>
<path d="M17.2404 29.7536C17.2404 28.9243 16.568 28.252 15.7387 28.252H4.04083C3.21149 28.252 2.53918 28.9243 2.53918 29.7536V103.999C2.53918 104.24 2.59728 104.477 2.70855 104.691L8.55749 115.939C9.1183 117.018 10.6612 117.018 11.222 115.939L17.071 104.691C17.1823 104.477 17.2404 104.24 17.2404 103.999V29.7536Z" fill="#ACE1AF"/>
<ellipse rx="9.45075" ry="9.78605" transform="matrix(-1 0 0 1 9.88933 10.3642)" fill="#317DEE"/>
</svg>
