<svg width="59" height="59" viewBox="0 0 59 59" fill="none" xmlns="http://www.w3.org/2000/svg">
<path d="M47.1863 57.9421H11.753C11.6521 57.918 11.5523 57.8818 11.4493 57.8708C5.48029 57.226 1.00493 52.2658 1.00274 46.2726C0.998354 35.0703 0.998354 23.868 1.00932 12.6646C1.00932 11.9573 1.07073 11.2379 1.20452 10.5448C2.29457 4.88609 7.02105 1.00066 12.7882 1.00066C23.9114 0.999559 35.0345 0.999559 46.1576 1.00285C46.5787 1.00285 47.0009 1.02478 47.4199 1.06645C52.3437 1.55118 56.3684 5.0133 57.5801 9.81993C57.7403 10.4538 57.8236 11.1085 57.942 11.7533V47.185C57.9168 47.2991 57.8806 47.411 57.8675 47.5261C57.3038 52.5499 53.709 56.5625 48.772 57.6625C48.2489 57.7787 47.7148 57.85 47.1852 57.9421H47.1863ZM5.41997 29.4708C5.41997 35.0462 5.41449 40.6216 5.42217 46.1959C5.42765 50.3324 8.61007 53.516 12.7378 53.5171C23.9015 53.5193 35.0641 53.5204 46.2278 53.5171C50.3106 53.516 53.5127 50.3335 53.516 46.2496C53.5259 35.0594 53.5259 23.8702 53.516 12.68C53.5127 8.61252 50.3292 5.42565 46.2607 5.42236C35.0707 5.41249 23.8818 5.41797 12.6917 5.42345C12.2465 5.42345 11.7925 5.45526 11.356 5.5386C7.84682 6.20866 5.42765 9.12904 5.42217 12.7063C5.41449 18.2949 5.41997 23.8834 5.41997 29.4719V29.4708Z" fill="white"/>
<path d="M13.0382 29.4495C13.0426 20.3989 20.4306 13.0261 29.4855 13.0371C38.5448 13.0491 45.9064 20.4263 45.8988 29.4846C45.89 38.5364 38.502 45.9092 29.4504 45.8993C20.3955 45.8884 13.0349 38.5112 13.0382 29.4506V29.4495ZM17.4543 29.4759C17.4565 36.0832 22.8476 41.4765 29.457 41.4831C36.0828 41.4886 41.4848 36.0887 41.4826 29.4594C41.4815 22.851 36.0905 17.4599 29.4789 17.4544C22.8476 17.45 17.4522 22.8433 17.4543 29.4759Z" fill="white"/>
<path d="M48.8543 13.3861C48.8445 15.166 47.4024 16.5872 45.616 16.5773C43.8394 16.5675 42.4226 15.1243 42.4302 13.3324C42.4379 11.5503 43.88 10.1312 45.6686 10.1455C47.4583 10.1597 48.8653 11.5898 48.8543 13.385V13.3861Z" fill="white"/>
<path d="M47.1863 57.9421H11.753C11.6521 57.918 11.5523 57.8818 11.4493 57.8708C5.48029 57.226 1.00493 52.2658 1.00274 46.2726C0.998354 35.0703 0.998354 23.868 1.00932 12.6646C1.00932 11.9573 1.07073 11.2379 1.20452 10.5448C2.29457 4.88609 7.02105 1.00066 12.7882 1.00066C23.9114 0.999559 35.0345 0.999559 46.1576 1.00285C46.5787 1.00285 47.0009 1.02478 47.4199 1.06645C52.3437 1.55118 56.3684 5.0133 57.5801 9.81993C57.7403 10.4538 57.8236 11.1085 57.942 11.7533V47.185C57.9168 47.2991 57.8806 47.411 57.8675 47.5261C57.3038 52.5499 53.709 56.5625 48.772 57.6625C48.2489 57.7787 47.7148 57.85 47.1852 57.9421H47.1863ZM5.41997 29.4708C5.41997 35.0462 5.41449 40.6216 5.42217 46.1959C5.42765 50.3324 8.61007 53.516 12.7378 53.5171C23.9015 53.5193 35.0641 53.5204 46.2278 53.5171C50.3106 53.516 53.5127 50.3335 53.516 46.2496C53.5259 35.0594 53.5259 23.8702 53.516 12.68C53.5127 8.61252 50.3292 5.42565 46.2607 5.42236C35.0707 5.41249 23.8818 5.41797 12.6917 5.42345C12.2465 5.42345 11.7925 5.45526 11.356 5.5386C7.84682 6.20866 5.42765 9.12904 5.42217 12.7063C5.41449 18.2949 5.41997 23.8834 5.41997 29.4719V29.4708Z" stroke="white" stroke-width="1.67393"/>
<path d="M13.0382 29.4495C13.0426 20.3989 20.4306 13.0261 29.4855 13.0371C38.5448 13.0491 45.9064 20.4263 45.8988 29.4846C45.89 38.5364 38.502 45.9092 29.4504 45.8993C20.3955 45.8884 13.0349 38.5112 13.0382 29.4506V29.4495ZM17.4543 29.4759C17.4565 36.0832 22.8476 41.4765 29.457 41.4831C36.0828 41.4886 41.4848 36.0887 41.4826 29.4594C41.4815 22.851 36.0905 17.4599 29.4789 17.4544C22.8476 17.45 17.4522 22.8433 17.4543 29.4759Z" stroke="white" stroke-width="1.67393"/>
<path d="M48.8543 13.3861C48.8445 15.166 47.4024 16.5872 45.616 16.5773C43.8394 16.5675 42.4226 15.1243 42.4302 13.3324C42.4379 11.5503 43.88 10.1312 45.6686 10.1455C47.4583 10.1597 48.8653 11.5898 48.8543 13.385V13.3861Z" stroke="white" stroke-width="1.67393"/>
</svg>
