<svg width="561" height="384" viewBox="0 0 561 384" fill="none" xmlns="http://www.w3.org/2000/svg">
<path d="M200.454 365.333L263.144 256.75C264.127 255.048 264.127 252.952 263.144 251.25L200.454 142.667C199.471 140.965 197.656 139.917 195.691 139.917H70.3094C68.3444 139.917 66.5287 140.965 65.5463 142.667L2.85565 251.25C1.87317 252.952 1.87317 255.048 2.85565 256.75L65.5463 365.333C66.5287 367.035 68.3444 368.083 70.3094 368.083H195.691C197.656 368.083 199.471 367.035 200.454 365.333Z" stroke="#FF8616" stroke-width="3"/>
<circle cx="133" cy="254" r="58.5" stroke="#FF8616" stroke-width="3"/>
<path d="M624.454 365.333L687.144 256.75C688.127 255.048 688.127 252.952 687.144 251.25L624.454 142.667C623.471 140.965 621.656 139.917 619.691 139.917H494.309C492.344 139.917 490.529 140.965 489.546 142.667L426.856 251.25C425.873 252.952 425.873 255.048 426.856 256.75L489.546 365.333C490.529 367.035 492.344 368.083 494.309 368.083H619.691C621.656 368.083 623.471 367.035 624.454 365.333Z" stroke="#FF8616" stroke-width="3"/>
<circle cx="557" cy="254" r="58.5" stroke="#FF8616" stroke-width="3"/>
<path d="M412.454 241.333L475.144 132.75C476.127 131.048 476.127 128.952 475.144 127.25L412.454 18.6667C411.471 16.965 409.656 15.9167 407.691 15.9167L282.309 15.9167C280.344 15.9167 278.529 16.965 277.546 18.6667L214.856 127.25C213.873 128.952 213.873 131.048 214.856 132.75L277.546 241.333C278.529 243.035 280.344 244.083 282.309 244.083H407.691C409.656 244.083 411.471 243.035 412.454 241.333Z" stroke="#FF8616" stroke-width="3"/>
<circle cx="345" cy="130" r="58.5" stroke="#FF8616" stroke-width="3"/>
</svg>
