<svg width="50" height="45" viewBox="0 0 50 45" fill="none" xmlns="http://www.w3.org/2000/svg">
<path d="M28.2948 4C28.2948 2.18036 26.8196 0.705247 25 0.705247C23.1804 0.705247 21.7052 2.18036 21.7052 4L28.2948 4ZM22.6703 43.9841C23.9569 45.2707 26.0431 45.2707 27.3297 43.9841L48.2974 23.0164C49.5841 21.7297 49.5841 19.6436 48.2974 18.3569C47.0107 17.0702 44.9246 17.0702 43.6379 18.3569L25 36.9948L6.36206 18.3569C5.07538 17.0702 2.98926 17.0702 1.70258 18.3569C0.415895 19.6436 0.415895 21.7297 1.70258 23.0164L22.6703 43.9841ZM21.7052 4L21.7052 41.6543L28.2948 41.6543L28.2948 4L21.7052 4Z" fill="#317DEE"/>
</svg>
