<svg width="393" height="199" viewBox="0 0 393 199" fill="none" xmlns="http://www.w3.org/2000/svg">
<mask id="path-1-inside-1_577_450" fill="white">
<path d="M9.38297 197.454C5.85885 197.454 4.05682 193.227 6.49701 190.684L182.614 7.17496C185.109 4.57515 189.5 6.34128 189.5 9.94467L189.5 193.454C189.5 195.663 187.709 197.454 185.5 197.454L9.38297 197.454Z"/>
</mask>
<path d="M182.614 7.17496L184.779 9.25223L182.614 7.17496ZM8.66147 192.761L184.779 9.25223L180.45 5.09768L4.33254 188.607L8.66147 192.761ZM186.5 9.94467L186.5 193.454L192.5 193.454L192.5 9.94467L186.5 9.94467ZM185.5 194.454L9.38297 194.454L9.38297 200.454L185.5 200.454L185.5 194.454ZM186.5 193.454C186.5 194.006 186.052 194.454 185.5 194.454L185.5 200.454C189.366 200.454 192.5 197.32 192.5 193.454L186.5 193.454ZM184.779 9.25223C185.402 8.6023 186.5 9.0438 186.5 9.94467L192.5 9.94467C192.5 3.63876 184.816 0.547994 180.45 5.09768L184.779 9.25223ZM4.33254 188.607C0.0621989 193.056 3.21578 200.454 9.38297 200.454L9.38297 194.454C8.50193 194.454 8.05143 193.397 8.66147 192.761L4.33254 188.607Z" fill="#FF8616" mask="url(#path-1-inside-1_577_450)"/>
<mask id="path-3-inside-2_577_450" fill="white">
<path d="M86.1183 164.454C82.634 164.454 80.8156 160.309 83.1753 157.745L151.057 83.9969C153.525 81.3158 158 83.0618 158 86.7059L158 160.454C158 162.663 156.209 164.454 154 164.454L86.1183 164.454Z"/>
</mask>
<path d="M85.3826 159.777L153.264 86.0286L148.85 81.9652L80.968 155.713L85.3826 159.777ZM155 86.7059L155 160.454L161 160.454L161 86.7059L155 86.7059ZM154 161.454L86.1183 161.454L86.1183 167.454L154 167.454L154 161.454ZM155 160.454C155 161.006 154.552 161.454 154 161.454L154 167.454C157.866 167.454 161 164.32 161 160.454L155 160.454ZM153.264 86.0286C153.881 85.3583 155 85.7948 155 86.7059L161 86.7059C161 80.3288 153.168 77.2732 148.85 81.9652L153.264 86.0286ZM80.968 155.713C76.8385 160.2 80.0208 167.454 86.1183 167.454L86.1183 161.454C85.2473 161.454 84.7926 160.417 85.3826 159.777L80.968 155.713Z" fill="#FF8616" mask="url(#path-3-inside-2_577_450)"/>
<mask id="path-5-inside-3_577_450" fill="white">
<path d="M383.14 0.977141C386.664 0.977142 388.466 5.20423 386.026 7.74685L209.909 191.256C207.414 193.856 203.023 192.09 203.023 188.486L203.023 4.97713C203.023 2.76799 204.814 0.97712 207.023 0.977121L383.14 0.977141Z"/>
</mask>
<path d="M209.909 191.256L207.745 189.179L209.909 191.256ZM383.862 5.66957L207.745 189.179L212.074 193.333L388.191 9.82412L383.862 5.66957ZM206.023 188.486L206.023 4.97713L200.023 4.97713L200.023 188.486L206.023 188.486ZM207.023 3.97712L383.14 3.97714L383.14 -2.02286L207.023 -2.02288L207.023 3.97712ZM206.023 4.97713C206.023 4.42484 206.471 3.97712 207.023 3.97712L207.023 -2.02288C203.157 -2.02288 200.023 1.11114 200.023 4.97713L206.023 4.97713ZM207.745 189.179C207.121 189.829 206.023 189.387 206.023 188.486L200.023 188.486C200.023 194.792 207.707 197.883 212.074 193.333L207.745 189.179ZM388.191 9.82412C392.461 5.37454 389.307 -2.02286 383.14 -2.02286L383.14 3.97714C384.021 3.97714 384.472 5.03392 383.862 5.66957L388.191 9.82412Z" fill="#FF8616" mask="url(#path-5-inside-3_577_450)"/>
<mask id="path-7-inside-4_577_450" fill="white">
<path d="M306.405 33.9771C309.889 33.9771 311.708 38.1224 309.348 40.686L241.466 114.434C238.998 117.115 234.523 115.369 234.523 111.725L234.523 37.9771C234.523 35.7679 236.314 33.9771 238.523 33.9771L306.405 33.9771Z"/>
</mask>
<path d="M307.141 38.6543L239.259 112.402L243.674 116.466L311.555 42.7178L307.141 38.6543ZM237.523 111.725L237.523 37.9771L231.523 37.9771L231.523 111.725L237.523 111.725ZM238.523 36.9771L306.405 36.9771L306.405 30.9771L238.523 30.9771L238.523 36.9771ZM237.523 37.9771C237.523 37.4248 237.971 36.9771 238.523 36.9771L238.523 30.9771C234.657 30.9771 231.523 34.1111 231.523 37.9771L237.523 37.9771ZM239.259 112.402C238.642 113.073 237.523 112.636 237.523 111.725L231.523 111.725C231.523 118.102 239.355 121.158 243.674 116.466L239.259 112.402ZM311.555 42.7178C315.685 38.2314 312.502 30.9771 306.405 30.9771L306.405 36.9771C307.276 36.9771 307.731 38.0134 307.141 38.6543L311.555 42.7178Z" fill="#FF8616" mask="url(#path-7-inside-4_577_450)"/>
</svg>
