<svg width="493" height="449" viewBox="0 0 463 409" fill="none" xmlns="http://www.w3.org/2000/svg">
<g clip-path="url(#clip0_1181_164)">
<path d="M194.635 224.044L191.014 149.225" stroke="#317DEE" stroke-width="6.07895" stroke-linecap="round" stroke-linejoin="round"/>
<path d="M158.147 111.49L154.738 112.706C131.344 121.165 107.511 134.701 88.678 152.96C69.8447 171.22 55.9986 194.193 51.2495 218.167" stroke="#303030" stroke-width="6.07895" stroke-linecap="round" stroke-linejoin="round" stroke-dasharray="26.05 26.05"/>
<path d="M413.956 211.06C409.645 193.477 401.062 177.711 390.449 164.564" stroke="#303030" stroke-width="6.07895" stroke-linecap="round" stroke-linejoin="round" stroke-dasharray="26.05 26.05"/>
<path d="M254.606 240.951L317.384 215.698" stroke="#317DEE" stroke-width="6.07895" stroke-linecap="round" stroke-linejoin="round"/>
<path d="M18.3821 267.057L4.56104 192.751" stroke="#303030" stroke-width="6.07895" stroke-linecap="round" stroke-linejoin="round"/>
<path d="M390.449 164.553C373.345 143.047 345.615 123.108 311.319 111.327" stroke="#303030" stroke-width="6.07895" stroke-linecap="round" stroke-linejoin="round" stroke-dasharray="26.05 26.05"/>
<path d="M194.635 224.044L247.99 304.202" stroke="#317DEE" stroke-width="6.07895" stroke-linecap="round" stroke-linejoin="round"/>
<path d="M314.201 289.69L317.384 215.698" stroke="#317DEE" stroke-width="6.07895" stroke-linecap="round" stroke-linejoin="round"/>
<path d="M308.888 179.141L294.516 184.793" stroke="#317DEE" stroke-width="6.07895" stroke-linecap="round" stroke-linejoin="round"/>
<path d="M134.489 247.68L127.41 173.124" stroke="#317DEE" stroke-width="6.07895" stroke-linecap="round" stroke-linejoin="round"/>
<path d="M254.844 303.626L254.619 240.938" stroke="#317DEE" stroke-width="6.07895" stroke-linecap="round" stroke-linejoin="round"/>
<path d="M311.582 103.908L176.378 74.9453" stroke="#317DEE" stroke-width="6.07895" stroke-linecap="round" stroke-linejoin="round"/>
<path d="M311.582 103.907L251.423 126.516" stroke="#317DEE" stroke-width="6.07895" stroke-linecap="round" stroke-linejoin="round"/>
<path d="M191.002 149.225L254.606 240.95" stroke="#317DEE" stroke-width="6.07895" stroke-linecap="round" stroke-linejoin="round"/>
<path d="M194.636 224.044L134.502 247.68" stroke="#317DEE" stroke-width="6.07895" stroke-linecap="round" stroke-linejoin="round"/>
<path d="M397.491 89.2186C386.088 75.721 370.651 62.8501 351.655 52.21C332.659 41.5698 310.104 33.1605 286.434 28.3229C239.081 18.6603 187.243 23.3475 149.275 37.0957C110.857 49.8288 71.5114 76.9116 51.7509 111.915C41.8644 129.423 36.8773 148.899 37.2156 167.685C37.5539 186.471 43.2302 204.543 52.4902 220.309C61.675 236.05 75.9347 252.079 95.5323 265.777C115.13 279.475 140.066 290.817 167.445 297.51C194.824 304.202 224.621 306.22 252.426 303.839C280.231 301.457 306.044 294.677 327.408 285.679C348.835 276.731 369.448 264.01 385.9 248.257C402.34 232.503 414.608 213.717 420.848 194.354C427.088 174.991 427.301 155.065 422.765 136.98C418.229 118.896 408.944 102.666 397.516 89.2061L397.491 89.2186Z" stroke="#303030" stroke-width="6.07895" stroke-linecap="round" stroke-linejoin="round"/>
<path d="M425.459 78.5911C411.851 62.9254 393.619 48.0493 371.352 35.7924C349.086 23.5356 322.797 13.8855 295.268 8.34612C240.196 -2.72012 180.175 2.64381 135.893 18.4223C98.5395 30.9173 60.0084 54.0523 34.4839 85.5592C21.7153 101.313 12.2047 119.159 7.06725 137.532C1.94229 155.904 1.19047 174.816 4.56116 192.75" stroke="#303030" stroke-width="6.07895" stroke-linecap="round" stroke-linejoin="round"/>
<path d="M459.191 183.965L448.415 258.383" stroke="#303030" stroke-width="6.07895" stroke-linecap="round" stroke-linejoin="round"/>
<path d="M4.56104 192.75C7.19243 206.937 12.3299 220.497 19.3219 232.93C29.8475 251.716 46.4503 270.966 69.5439 287.459C92.6501 303.964 122.26 317.712 154.914 325.833C187.556 333.942 223.23 336.411 256.473 333.516C289.716 330.621 320.516 322.387 345.89 311.496C374.685 299.314 402.002 281.13 422.226 258.822C442.45 236.514 455.594 210.095 459.191 183.965" stroke="#303030" stroke-width="6.07895" stroke-linecap="round" stroke-linejoin="round"/>
<path d="M18.3823 267.056C20.9761 281.055 25.9382 294.428 32.642 306.659C42.729 325.157 58.5174 344.057 80.3955 360.249C102.274 376.441 130.242 389.901 161.004 397.846C191.779 405.779 225.348 408.186 256.649 405.366C287.95 402.533 316.958 394.475 340.903 383.81C368.057 371.879 393.882 354.045 413.091 332.126C432.288 310.206 444.869 284.188 448.427 258.396" stroke="#303030" stroke-width="6.07895" stroke-linecap="round" stroke-linejoin="round"/>
<path d="M459.191 183.966C465.268 143.473 449.279 105.512 425.459 78.5918" stroke="#303030" stroke-width="6.07895" stroke-linecap="round" stroke-linejoin="round"/>
<path d="M176.379 74.9326L127.41 173.113" stroke="#317DEE" stroke-width="6.07895" stroke-linecap="round" stroke-linejoin="round"/>
<path d="M311.582 103.907L308.901 179.14" stroke="#317DEE" stroke-width="6.07895" stroke-linecap="round" stroke-linejoin="round"/>
<path d="M317.384 215.698L251.423 126.517" stroke="#317DEE" stroke-width="6.07895" stroke-linecap="round" stroke-linejoin="round"/>
<path d="M191.002 149.225L127.41 173.124" stroke="#317DEE" stroke-width="6.07895" stroke-linecap="round" stroke-linejoin="round"/>
</g>
<defs>
<clipPath id="clip0_1181_164">
<rect width="463" height="409" fill="white"/>
</clipPath>
</defs>
</svg>
