<svg width="72" height="56" viewBox="0 0 72 56" fill="none" xmlns="http://www.w3.org/2000/svg">
<g clip-path="url(#clip0_1227_224)">
<path d="M49.5739 49.5705C51.6998 48.7377 53.7339 47.7651 55.6898 46.5638C55.6082 46.4887 55.5606 46.4375 55.5061 46.3932C55.1354 46.0929 54.7612 45.7994 54.3938 45.4956C54.2578 45.383 54.1387 45.3523 53.9618 45.4376C52.2951 46.2259 50.5841 46.9085 48.829 47.475C46.9615 48.0791 45.0635 48.5569 43.1348 48.8981C41.9069 49.1166 40.6687 49.277 39.4238 49.3759C37.6311 49.5193 35.8351 49.5705 34.0391 49.4544C33.0629 49.3896 32.0867 49.3213 31.1138 49.2189C30.3655 49.137 29.6206 49.0039 28.879 48.8811C27.6885 48.69 26.5184 48.4204 25.3551 48.1098C22.9196 47.4614 20.5521 46.6116 18.2595 45.557C18.1847 45.5229 18.103 45.5024 18.0384 45.4547C17.8377 45.3147 17.6846 45.3864 17.5146 45.5297C17.188 45.8096 16.8411 46.069 16.5043 46.342C16.4295 46.4034 16.3614 46.4683 16.2628 46.557C18.2187 47.7583 20.246 48.7275 22.3787 49.567C21.2596 51.8434 19.967 53.9661 18.4976 55.9967C18.3071 55.9387 18.137 55.8875 17.967 55.8329C16.2798 55.2902 14.6199 54.6759 12.9905 53.9832C10.6401 52.9832 8.35085 51.8502 6.16368 50.5294C5.04798 49.8571 3.94588 49.1575 2.8574 48.4408C2.05464 47.9119 1.2893 47.3249 0.503545 46.772C0.350476 46.6628 0.282446 46.5399 0.272241 46.3488C0.22462 45.4683 0.166794 44.5878 0.102165 43.7073C-0.0338956 41.8986 0.0103242 40.0864 0.0171272 38.2776C0.0171272 37.5234 0.0715516 36.7658 0.122574 36.0116C0.241628 34.3222 0.404901 32.6397 0.656613 30.9641C1.02058 28.5376 1.5206 26.1418 2.17029 23.7734C2.83019 21.3708 3.62614 19.016 4.57857 16.7192C5.08539 15.4974 5.63644 14.2927 6.19769 13.0914C7.18753 10.9755 8.32364 8.93811 9.53798 6.94506C9.95977 6.25227 10.4054 5.57654 10.834 4.88717C10.9292 4.737 11.0517 4.63121 11.2115 4.55613C13.6402 3.43674 16.1233 2.47093 18.6813 1.68599C20.712 1.06487 22.7665 0.552958 24.8482 0.146839C25.1033 0.0956477 25.3619 0.0615201 25.617 0.00691591C25.7632 -0.023799 25.8483 0.00691591 25.9197 0.150252C26.2701 0.849868 26.634 1.54607 26.981 2.2491C27.2157 2.72689 27.4232 3.21491 27.6409 3.69952C27.7429 3.92135 27.7565 3.93842 28.0116 3.90429C28.43 3.8531 28.8484 3.78826 29.2668 3.73706C29.8179 3.66881 30.3723 3.59373 30.9234 3.54595C31.7363 3.47769 32.5527 3.41968 33.3656 3.37531C34.7909 3.30023 36.2229 3.27293 37.6482 3.33436C38.9577 3.38896 40.2639 3.49476 41.5667 3.60738C42.3457 3.67564 43.1178 3.79849 43.8899 3.90088C44.2029 3.94183 44.2063 3.93159 44.3492 3.63127C44.8696 2.53236 45.3968 1.43686 45.9207 0.341367C45.9309 0.317477 45.9445 0.293588 45.9581 0.269699C46.1179 -0.0169734 46.1213 -0.0203862 46.4445 0.0376308C48.8732 0.460813 51.2576 1.06146 53.6081 1.79862C56.0572 2.56307 58.4383 3.49817 60.7649 4.57319C60.9146 4.64145 61.0098 4.74724 61.0948 4.87693C62.2378 6.61744 63.316 8.39548 64.3059 10.2247C65.6563 12.716 66.8468 15.2756 67.8605 17.9239C68.6836 20.0705 69.3877 22.2547 69.9694 24.4832C70.466 26.3842 70.8708 28.3055 71.1769 30.2474C71.3368 31.2712 71.4661 32.2985 71.5783 33.3257C71.6872 34.3359 71.7654 35.3495 71.8402 36.3665C71.8811 36.8955 71.8845 37.4279 71.9049 37.9602C71.9219 38.3834 71.9321 38.8066 71.9491 39.2298C71.9661 39.6803 72.0035 40.1273 71.9967 40.5778C71.9865 41.1614 71.9389 41.745 71.9151 42.3286C71.9049 42.5265 71.9151 42.7245 71.9049 42.9224C71.8504 43.8916 71.7892 44.8643 71.7314 45.8335C71.7212 46.0212 71.6906 46.2089 71.6838 46.4C71.677 46.5604 71.6089 46.6696 71.4831 46.7583C70.8674 47.1986 70.2619 47.6491 69.6429 48.0791C67.8367 49.3452 65.9624 50.4987 64.0236 51.5499C61.6731 52.8262 59.2512 53.9456 56.7443 54.8739C55.7919 55.2254 54.8292 55.5462 53.87 55.8807C53.8292 55.8943 53.785 55.9114 53.7408 55.925C53.4482 56.0172 53.4482 56.0172 53.2747 55.7783C53.0809 55.5052 52.8938 55.2322 52.7033 54.9592C51.557 53.2835 50.5433 51.5328 49.6249 49.7206C49.6079 49.6899 49.6011 49.6558 49.5739 49.5739V49.5705ZM17.5384 30.9914C17.5146 31.7866 17.7391 32.8582 18.0622 33.7011C18.6643 35.2642 19.6269 36.5303 21.0793 37.3869C22.4434 38.1889 23.906 38.4073 25.4401 38.0217C26.8007 37.677 27.9028 36.9159 28.7804 35.8239C29.9165 34.411 30.4335 32.7694 30.505 30.9743C30.5322 30.3259 30.4675 29.6775 30.3417 29.0427C30.0628 27.6298 29.4403 26.3876 28.4641 25.333C27.9198 24.746 27.2803 24.2887 26.5592 23.9406C25.3142 23.34 24.0149 23.2069 22.6747 23.5174C21.2154 23.8553 20.0555 24.6744 19.1541 25.8586C18.052 27.3056 17.5384 28.954 17.535 30.9982L17.5384 30.9914ZM54.4109 30.5648C54.4347 29.5785 54.2136 28.4728 53.7476 27.4182C53.1489 26.0634 52.2509 24.9542 50.9685 24.2034C49.2337 23.1864 47.4139 23.0567 45.5669 23.8621C44.1349 24.4832 43.1042 25.5583 42.3831 26.9302C41.6517 28.326 41.3558 29.8208 41.4783 31.3975C41.5327 32.1108 41.662 32.8104 41.9001 33.4827C42.4749 35.1072 43.4341 36.4347 44.9172 37.3357C46.305 38.1752 47.7949 38.4176 49.3732 38.0114C50.9413 37.6087 52.1454 36.677 53.0468 35.3495C53.9925 33.9605 54.4177 32.4077 54.4109 30.5648Z" fill="white"/>
</g>
<defs>
<clipPath id="clip0_1227_224">
<rect width="72" height="56" fill="white"/>
</clipPath>
</defs>
</svg>
