<svg width="264" height="182" viewBox="0 0 264 182" fill="none" xmlns="http://www.w3.org/2000/svg">
<g clip-path="url(#clip0_1168_123)">
<path d="M37.422 58.1914L1.56079 70.8911" stroke="#2796AE" stroke-width="3.3" stroke-linecap="round"/>
<path d="M10.1245 105.431L48.6133 180.836L42.0931 148.059" stroke="#2796AE" stroke-width="3.3" stroke-linecap="round"/>
<path d="M48.6135 180.852L84.6208 165.386" stroke="#2796AE" stroke-width="3.3" stroke-linecap="round"/>
<path d="M173.714 63.9183L164.858 53.0791" stroke="#2796AE" stroke-width="3.3" stroke-linecap="round"/>
<path d="M130.96 80.5493L173.714 63.9346" stroke="#2796AE" stroke-width="3.3" stroke-linecap="round"/>
<path d="M49.2786 105.3C55.0851 103.068 60.3402 101.951 65.1088 101.935C69.8935 101.903 74.2079 103.068 78.1492 105.446C80.3064 106.74 82.3339 108.455 84.264 110.558" stroke="#2796AE" stroke-width="3.3" stroke-linecap="round"/>
<path d="M170.714 98.5549L173.714 63.918" stroke="#2796AE" stroke-width="3.3" stroke-linecap="round"/>
<path d="M47.2185 106.094L49.2784 105.301" stroke="#2796AE" stroke-width="3.3" stroke-linecap="round"/>
<path d="M164.858 53.0791L122.655 69.0952" stroke="#2796AE" stroke-width="3.3" stroke-linecap="round"/>
<path d="M57.0799 123.502L29.9609 75.6797" stroke="#2796AE" stroke-width="3.3" stroke-linecap="round"/>
<path d="M123.061 103.666L122.655 69.0938" stroke="#2796AE" stroke-width="3.3" stroke-linecap="round"/>
<path d="M123.061 103.667L130.798 114.927" stroke="#2796AE" stroke-width="3.3" stroke-linecap="round"/>
<path d="M122.655 69.0938L130.96 80.5315" stroke="#2796AE" stroke-width="3.3" stroke-linecap="round"/>
<path d="M42.0935 148.059L81.1014 132.124" stroke="#2796AE" stroke-width="3.3" stroke-linecap="round"/>
<path d="M1.56079 70.8906L42.0933 148.059" stroke="#2796AE" stroke-width="3.3" stroke-linecap="round"/>
<path d="M163.804 53.4822L165.815 23.1162" stroke="#2796AE" stroke-width="3.3" stroke-linecap="round"/>
<path d="M81.1013 132.14C92.0332 127.675 100.208 122.271 105.706 116.043C111.221 109.814 113.93 103.117 114.059 96.0146V94.6719" stroke="#2796AE" stroke-width="3.3" stroke-linecap="round"/>
<path d="M167.648 56.4924L169.4 32.7432" stroke="#2796AE" stroke-width="3.3" stroke-linecap="round"/>
<path d="M183.154 61.3292L186.787 26.3525" stroke="#2796AE" stroke-width="3.3" stroke-linecap="round"/>
<path d="M169.4 32.7594L186.787 26.3691" stroke="#2796AE" stroke-width="3.3" stroke-linecap="round"/>
<path d="M194.362 59.8568L197.735 32.8721" stroke="#2796AE" stroke-width="3.3" stroke-linecap="round"/>
<path d="M204.385 55.9423L206.332 42.4014" stroke="#2796AE" stroke-width="3.3" stroke-linecap="round"/>
<path d="M197.735 32.8721L206.332 42.4009L214.295 39.3594C217.523 38.1299 220.621 37.4181 223.622 37.2401C226.622 37.0622 229.331 37.3695 231.78 38.1461C234.229 38.9388 236.24 40.1521 237.83 41.8185C239.419 43.4524 240.23 45.1349 240.263 46.8822L240.133 48.2573" stroke="#2796AE" stroke-width="3.3" stroke-linecap="round"/>
<path d="M240.133 48.2734C239.874 49.5191 239.225 50.7325 238.17 51.8811C236.727 53.4504 234.618 54.8093 231.829 55.9256C229.136 56.9933 226.411 57.6243 223.638 57.8184C220.864 58.0125 218.285 57.7537 215.917 57.0742C213.549 56.3786 211.603 55.2623 210.078 53.7254" stroke="#2796AE" stroke-width="3.3" stroke-linecap="round"/>
<path d="M261.867 50.021C262.159 48.8724 262.289 47.7238 262.289 46.5589C262.257 42.6439 260.456 38.9877 256.985 35.5256C253.239 31.74 248.584 29.2647 242.988 28.019C237.392 26.7733 231.326 27.016 224.676 28.7632" stroke="#2796AE" stroke-width="3.3" stroke-linecap="round"/>
<path d="M191.183 61.1035C194.573 64.9215 199.066 67.8012 204.629 69.6616C210.192 71.5221 216.323 72.2986 222.941 71.9589C229.558 71.6192 236.111 70.1146 242.517 67.4938" stroke="#2796AE" stroke-width="3.3" stroke-linecap="round"/>
<path d="M210.078 53.71L191.166 61.1033" stroke="#2796AE" stroke-width="3.3" stroke-linecap="round"/>
<path d="M242.501 67.5088C249.07 64.8233 254.017 61.6201 257.358 57.9315C259.71 55.3592 261.202 52.706 261.867 50.0205" stroke="#2796AE" stroke-width="3.3" stroke-linecap="round"/>
<path d="M173.617 65.05L183.154 61.3291" stroke="#2796AE" stroke-width="3.3" stroke-linecap="round"/>
<path d="M130.798 114.927L170.714 98.5547" stroke="#2796AE" stroke-width="3.3" stroke-linecap="round"/>
<path d="M43.5366 70.7609C49.7811 68.496 55.4255 67.3635 60.5509 67.3473C65.6762 67.315 70.2988 68.496 74.4996 70.9065C78.7004 73.3332 82.4958 77.0864 85.9343 82.3604C89.3729 87.6506 91.1894 92.504 91.2543 96.8558C91.3192 101.208 89.7135 105.155 86.3723 108.633C83.031 112.112 78.0517 115.185 71.4017 117.822" stroke="#2796AE" stroke-width="3.3" stroke-linecap="round"/>
<path d="M130.798 114.926L130.944 80.5322" stroke="#2796AE" stroke-width="3.3" stroke-linecap="round"/>
<path d="M261.867 50.0205L253.19 84.8192" stroke="#2796AE" stroke-width="3.3" stroke-linecap="round"/>
<path d="M187.031 95.7884L191.166 61.1191" stroke="#2796AE" stroke-width="3.3" stroke-linecap="round"/>
<path d="M205.618 29.9277L197.735 32.8721" stroke="#2796AE" stroke-width="3.3" stroke-linecap="round"/>
<path d="M224.206 28.3104C228.277 25.9646 230.661 23.1497 231.407 19.9303L231.488 19.542" stroke="#2796AE" stroke-width="3.3" stroke-linecap="round"/>
<path d="M114.059 94.6556C113.864 87.9903 111.302 81.2603 106.614 74.4979C101.619 67.2987 95.6175 62.0732 88.5296 58.5303C81.4417 54.9873 73.6725 53.2239 65.06 53.1269C56.4312 53.046 47.3159 54.6961 37.4382 58.1905" stroke="#2796AE" stroke-width="3.3" stroke-linecap="round"/>
<path d="M29.9609 75.6798L43.5366 70.7617" stroke="#2796AE" stroke-width="3.3" stroke-linecap="round"/>
<path d="M71.4018 117.807L57.0962 123.485" stroke="#2796AE" stroke-width="3.3" stroke-linecap="round"/>
<path d="M10.1247 105.43L1.56079 70.8906" stroke="#2796AE" stroke-width="3.3" stroke-linecap="round"/>
<path d="M84.6206 165.385C94.7253 161.05 102.284 155.776 107.393 149.709C112.502 143.642 115 137.074 115.113 130.118V128.791" stroke="#2796AE" stroke-width="3.3" stroke-linecap="round"/>
<path d="M184.062 52.5935L184.127 52.545C185.49 51.2508 187.29 50.1669 189.528 49.3094C191.653 48.5005 193.761 48.0637 195.854 47.999" stroke="#2796AE" stroke-width="3.3" stroke-linecap="round"/>
<path d="M213.971 22.4541C213.76 23.7969 213.046 25.0749 211.814 26.2883C210.386 27.6957 208.31 28.9091 205.618 29.9283" stroke="#2796AE" stroke-width="3.3" stroke-linecap="round"/>
<path d="M185.214 22.0163L185.246 21.7898C185.473 20.2529 186.317 18.8454 187.777 17.535C189.22 16.2246 191.134 15.1568 193.502 14.2994C195.854 13.4582 198.173 13.0213 200.476 12.9728C202.796 12.9405 204.937 13.2802 206.916 13.992C208.911 14.7039 210.581 15.7878 211.927 17.2276C213.371 18.716 214.068 20.2367 214.02 21.806L213.955 22.4369" stroke="#2796AE" stroke-width="3.3" stroke-linecap="round"/>
<path d="M234.878 102.097C241.041 99.4442 245.696 96.2895 248.859 92.6495C251.081 90.0933 252.525 87.4887 253.19 84.8193" stroke="#2796AE" stroke-width="3.3" stroke-linecap="round"/>
<path d="M165.815 23.1162C165.605 26.3356 166.772 29.555 169.416 32.7583" stroke="#2796AE" stroke-width="3.3" stroke-linecap="round"/>
<path d="M224.66 28.7631L224.222 28.2939" stroke="#2796AE" stroke-width="3.3" stroke-linecap="round"/>
<path d="M186.787 26.3694C185.587 24.9296 185.068 23.4736 185.214 22.0176" stroke="#2796AE" stroke-width="3.3" stroke-linecap="round"/>
<path d="M114.059 94.6562L115.081 128.792" stroke="#2796AE" stroke-width="3.3" stroke-linecap="round"/>
<path d="M187.031 95.7891C190.177 99.5585 194.346 102.406 199.52 104.234C204.694 106.062 210.403 106.822 216.566 106.499C222.73 106.175 228.877 104.687 234.878 102.098" stroke="#2796AE" stroke-width="3.3" stroke-linecap="round"/>
<path d="M231.488 19.542L230.012 27.6633" stroke="#2796AE" stroke-width="3.3" stroke-linecap="round"/>
<path d="M231.488 19.5418C232.056 16.4518 230.775 13.4103 227.774 10.4336C224.871 7.50538 221.156 5.32136 216.583 3.83299C212.009 2.34462 207.029 1.68133 201.563 1.81075C196.114 1.94018 190.599 2.99174 184.955 4.98162C179.375 6.95533 174.931 9.41437 171.638 12.4235C168.346 15.4164 166.416 18.6681 165.897 22.2111L165.799 23.1171" stroke="#2796AE" stroke-width="3.3" stroke-linecap="round"/>
</g>
<defs>
<clipPath id="clip0_1168_123">
<rect width="262.35" height="180.675" fill="white" transform="translate(0.75 0.986328)"/>
</clipPath>
</defs>
</svg>
