<svg width="245" height="176" viewBox="0 0 245 176" fill="none" xmlns="http://www.w3.org/2000/svg">
<g clip-path="url(#clip0_1168_5)">
<path d="M48.3518 100.86C54.0834 98.6725 59.2706 97.579 63.9775 97.5631C68.7005 97.5314 72.9591 98.6725 76.8495 101.002C78.9789 102.27 80.9801 103.95 82.8853 106.01" stroke="#219653" stroke-width="3.3" stroke-linecap="round" stroke-linejoin="round"/>
<path d="M29.2841 71.8415L42.6844 67.0078" stroke="#219653" stroke-width="3.3" stroke-linecap="round" stroke-linejoin="round"/>
<path d="M70.1894 113.127L56.0686 118.69" stroke="#219653" stroke-width="3.3" stroke-linecap="round" stroke-linejoin="round"/>
<path d="M47.6954 174.871L83.2376 159.721" stroke="#219653" stroke-width="3.3" stroke-linecap="round" stroke-linejoin="round"/>
<path d="M36.6485 54.7266L1.25049 67.1515" stroke="#219653" stroke-width="3.3" stroke-linecap="round" stroke-linejoin="round"/>
<path d="M83.2375 159.72C93.2118 155.472 100.672 150.306 105.716 144.363C110.759 138.42 113.224 131.985 113.336 125.171V123.871" stroke="#219653" stroke-width="3.3" stroke-linecap="round" stroke-linejoin="round"/>
<path d="M9.70375 101.002L1.25049 67.1504" stroke="#219653" stroke-width="3.3" stroke-linecap="round" stroke-linejoin="round"/>
<path d="M46.3185 101.637L48.3518 100.86" stroke="#219653" stroke-width="3.3" stroke-linecap="round" stroke-linejoin="round"/>
<path d="M171.901 7.19824L158.949 23.2999" stroke="#219653" stroke-width="3.3" stroke-linecap="round" stroke-linejoin="round"/>
<path d="M177.552 53.0146L218.842 101.938" stroke="#219653" stroke-width="3.3" stroke-linecap="round" stroke-linejoin="round"/>
<path d="M128.978 76.612L171.18 60.3359" stroke="#219653" stroke-width="3.3" stroke-linecap="round" stroke-linejoin="round"/>
<path d="M168.219 94.2668L171.18 60.3359" stroke="#219653" stroke-width="3.3" stroke-linecap="round" stroke-linejoin="round"/>
<path d="M180.914 18.7197L225.486 68.0867" stroke="#219653" stroke-width="3.3" stroke-linecap="round" stroke-linejoin="round"/>
<path d="M177.552 53.0139L180.914 18.7344" stroke="#219653" stroke-width="3.3" stroke-linecap="round" stroke-linejoin="round"/>
<path d="M166.777 54.9792L168.378 34.3291" stroke="#219653" stroke-width="3.3" stroke-linecap="round" stroke-linejoin="round"/>
<path d="M42.6842 67.0243C48.848 64.8055 54.4195 63.6962 59.4787 63.6803C64.5378 63.6486 69.1007 64.8055 73.2472 67.1669C77.3938 69.5441 81.1402 73.2209 84.5343 78.3874C87.9284 83.5697 89.7215 88.3242 89.7855 92.5873C89.8496 96.8505 88.2646 100.717 84.9665 104.125C81.6685 107.532 76.7534 110.543 70.1893 113.127" stroke="#219653" stroke-width="3.3" stroke-linecap="round" stroke-linejoin="round"/>
<path d="M56.0527 118.689L29.2841 71.8418" stroke="#219653" stroke-width="3.3" stroke-linecap="round" stroke-linejoin="round"/>
<path d="M157.284 51.6509L158.949 23.3145" stroke="#219653" stroke-width="3.3" stroke-linecap="round" stroke-linejoin="round"/>
<path d="M128.818 110.306L168.218 94.2676" stroke="#219653" stroke-width="3.3" stroke-linecap="round" stroke-linejoin="round"/>
<path d="M120.781 65.4082L128.978 76.6128" stroke="#219653" stroke-width="3.3" stroke-linecap="round" stroke-linejoin="round"/>
<path d="M121.181 99.2754L128.818 110.306" stroke="#219653" stroke-width="3.3" stroke-linecap="round" stroke-linejoin="round"/>
<path d="M171.1 61.2878L177.104 53.1895" stroke="#219653" stroke-width="3.3" stroke-linecap="round" stroke-linejoin="round"/>
<path d="M79.7634 127.153C90.5541 122.778 98.6232 117.485 104.051 111.384C109.494 105.282 112.168 98.721 112.296 91.7636V90.4482" stroke="#219653" stroke-width="3.3" stroke-linecap="round" stroke-linejoin="round"/>
<path d="M1.25049 67.1504L41.2594 142.746L79.7634 127.136" stroke="#219653" stroke-width="3.3" stroke-linecap="round" stroke-linejoin="round"/>
<path d="M243.849 60.6534L187.991 1.55566" stroke="#219653" stroke-width="3.3" stroke-linecap="round" stroke-linejoin="round"/>
<path d="M177.088 53.1887L180.418 18.9092" stroke="#219653" stroke-width="3.3" stroke-linecap="round" stroke-linejoin="round"/>
<path d="M168.379 34.3294L180.418 18.9092" stroke="#219653" stroke-width="3.3" stroke-linecap="round" stroke-linejoin="round"/>
<path d="M225.486 68.1017L243.849 60.6689" stroke="#219653" stroke-width="3.3" stroke-linecap="round" stroke-linejoin="round"/>
<path d="M121.181 99.2757L120.781 65.4082" stroke="#219653" stroke-width="3.3" stroke-linecap="round" stroke-linejoin="round"/>
<path d="M218.842 101.921L225.502 68.1016" stroke="#219653" stroke-width="3.3" stroke-linecap="round" stroke-linejoin="round"/>
<path d="M162.439 49.7178L120.781 65.4074" stroke="#219653" stroke-width="3.3" stroke-linecap="round" stroke-linejoin="round"/>
<path d="M128.818 110.304L128.962 76.6113" stroke="#219653" stroke-width="3.3" stroke-linecap="round" stroke-linejoin="round"/>
<path d="M218.842 101.922L236.053 94.584" stroke="#219653" stroke-width="3.3" stroke-linecap="round" stroke-linejoin="round"/>
<path d="M180.434 18.9087L180.914 18.7344" stroke="#219653" stroke-width="3.3" stroke-linecap="round" stroke-linejoin="round"/>
<path d="M171.18 60.336L162.439 49.7178" stroke="#219653" stroke-width="3.3" stroke-linecap="round" stroke-linejoin="round"/>
<path d="M177.088 53.189L177.552 53.0146" stroke="#219653" stroke-width="3.3" stroke-linecap="round" stroke-linejoin="round"/>
<path d="M158.949 23.3145L168.378 34.3289" stroke="#219653" stroke-width="3.3" stroke-linecap="round" stroke-linejoin="round"/>
<path d="M187.991 1.55566L171.917 7.1976" stroke="#219653" stroke-width="3.3" stroke-linecap="round" stroke-linejoin="round"/>
<path d="M112.296 90.4476C112.103 83.9182 109.574 77.3254 104.947 70.7009C100.016 63.6484 94.0923 58.5295 87.0959 55.0587C80.0996 51.588 72.4308 49.8606 63.9295 49.7655C55.4122 49.6862 46.3986 51.3027 36.6646 54.7259" stroke="#219653" stroke-width="3.3" stroke-linecap="round" stroke-linejoin="round"/>
<path d="M112.296 90.4482L113.304 123.888" stroke="#219653" stroke-width="3.3" stroke-linecap="round" stroke-linejoin="round"/>
<path d="M47.6954 174.871L41.2594 142.763" stroke="#219653" stroke-width="3.3" stroke-linecap="round" stroke-linejoin="round"/>
<path d="M9.70374 101.003L47.6954 174.871" stroke="#219653" stroke-width="3.3" stroke-linecap="round" stroke-linejoin="round"/>
<path d="M243.644 60.7197L236.264 94.5072" stroke="#219653" stroke-width="3.3" stroke-linecap="round"/>
</g>
<defs>
<clipPath id="clip0_1168_5">
<rect width="244.2" height="174.9" fill="white" transform="translate(0.450073 0.762695)"/>
</clipPath>
</defs>
</svg>
