<svg width="220" height="246" viewBox="0 0 220 246" fill="none" xmlns="http://www.w3.org/2000/svg">
<path d="M131.561 81.3388C129.609 77.5266 126.256 76.1755 122.18 76.317C117.927 76.4747 114.172 77.7325 112.198 81.8857C111.083 84.2276 111.304 85.9359 114.616 85.7364C116.827 85.6013 119.049 85.7139 121.27 85.7139C123.877 85.7075 126.494 85.8008 129.095 85.6817C132.162 85.5466 132.959 84.0925 131.561 81.3388V81.3388ZM131.561 81.3388C129.609 77.5266 126.256 76.1755 122.18 76.317C117.927 76.4747 114.172 77.7325 112.198 81.8857C111.083 84.2276 111.304 85.9359 114.616 85.7364C116.827 85.6013 119.049 85.7139 121.27 85.7139C123.877 85.7075 126.494 85.8008 129.095 85.6817C132.162 85.5466 132.959 84.0925 131.561 81.3388V81.3388ZM131.561 81.3388C129.609 77.5266 126.256 76.1755 122.18 76.317C117.927 76.4747 114.172 77.7325 112.198 81.8857C111.083 84.2276 111.304 85.9359 114.616 85.7364C116.827 85.6013 119.049 85.7139 121.27 85.7139C123.877 85.7075 126.494 85.8008 129.095 85.6817C132.162 85.5466 132.959 84.0925 131.561 81.3388V81.3388ZM161.201 115.616C161.059 115.198 160.963 114.818 160.87 114.455H160.854C160.757 114.834 160.657 115.22 160.529 115.61L159.905 117.459H161.834L161.201 115.616ZM161.201 115.616C161.059 115.198 160.963 114.818 160.87 114.455H160.854C160.757 114.834 160.657 115.22 160.529 115.61L159.905 117.459H161.834L161.201 115.616ZM131.561 81.3388C129.609 77.5266 126.256 76.1755 122.18 76.317C117.927 76.4747 114.172 77.7325 112.198 81.8857C111.083 84.2276 111.304 85.9359 114.616 85.7364C116.827 85.6013 119.049 85.7139 121.27 85.7139C123.877 85.7075 126.494 85.8008 129.095 85.6817C132.162 85.5466 132.959 84.0925 131.561 81.3388V81.3388ZM178.573 67.7984C178.551 63.2174 175.127 59.6047 170.552 59.2155C167.171 58.9291 163.747 59.1125 160.342 59.1125C159.584 59.1125 158.414 59.016 158.365 59.9039C158.208 62.8764 157.79 66.0033 158.475 68.8182C159.066 71.2149 161.866 69.8927 163.66 70.0278C167.058 70.2819 168.418 71.7907 167.476 74.6152C166.717 76.8865 164.827 76.3331 163.207 76.3621C158.15 76.465 158.15 76.4425 158.15 81.5415V92.0836C158.15 100.007 159.105 100.934 166.923 99.9684C169.341 99.6693 169.832 101.281 170.45 102.809C171.089 104.392 170.472 105.601 168.845 106.235C159.06 110.031 150.065 104.266 150.296 95.1558C150.431 90.0858 150.296 84.9997 150.328 79.9233C150.344 78.0156 150.486 76.2205 147.641 76.3074C145.744 76.3717 145.381 74.8758 145.371 73.3188C145.355 71.5945 145.783 70.06 147.885 70.1243C150.2 70.1887 150.389 68.8504 150.328 67.11C150.274 65.4178 150.209 63.716 150.344 62.0336C150.512 59.9135 149.846 59.0514 147.532 59.061C131.162 59.1479 114.802 59.1093 98.4421 59.0932C97.0436 59.0932 96.1564 59.3538 95.3687 60.8111C92.7037 65.7235 88.7913 65.7138 86.1359 60.7307C85.313 59.1897 84.4128 59.1029 83.0916 59.1029C76.5463 59.1093 70.0042 59.1254 63.459 59.0964C62.067 59.09 61.2633 59.3892 60.4403 60.8207C57.981 65.0994 53.9529 65.2345 51.6447 61.0266C50.5292 59.0096 49.6291 59.1994 48.0024 59.8235C44.254 61.2486 42.0326 64.8002 42.0261 69.8702C41.9876 84.1923 42.0004 98.5079 42.0101 112.833C42.0165 121.265 45.4402 124.649 53.9529 124.659H110.504C129.751 124.659 148.994 124.675 168.231 124.643C174.5 124.636 178.522 121.336 178.57 115.848C178.679 99.8301 178.667 83.8159 178.57 67.7984H178.573ZM55.6825 106.386C52.8053 106.425 52.008 105.225 52.0401 102.693C52.0948 97.7744 52.0562 92.846 52.0562 87.9175C52.0562 83.2497 52.1269 78.585 52.0241 73.9172C51.9598 71.2374 52.7667 69.8058 55.7693 69.7962C58.5758 69.7897 59.8649 70.8417 59.8552 73.6469C59.8231 83.3751 59.8006 93.0969 59.8713 102.815C59.8938 105.846 58.3764 106.345 55.6825 106.383V106.386ZM68.3454 87.2227C68.5672 84.1376 69.9657 82.3907 73.0165 82.3972C76.0287 82.4036 77.7422 84.2405 77.8129 86.9846C77.8933 89.8542 75.7651 91.6268 73.0711 91.6975C70.2904 91.7683 68.5737 89.9571 68.3454 87.2195V87.2227ZM94.6004 109.179C94.3722 118.434 85.9945 123.874 77.3243 120.631C75.0096 119.769 74.4406 118.392 74.8907 116.108C75.3954 113.515 77.1024 113.657 79.041 113.917C85.2294 114.763 86.8014 113.419 86.811 107.187C86.8271 96.3911 86.8175 85.5949 86.8175 74.7986C86.8175 72.0931 87.2193 69.8959 90.8488 70.0214C93.456 70.1018 94.7129 70.9479 94.6744 73.6662C94.594 79.7785 94.6519 85.8941 94.6519 92.0064H94.6358C94.6358 97.7326 94.7547 103.459 94.6036 109.179H94.6004ZM140.086 88.6478C139.858 91.289 137.858 91.9066 135.557 91.9066C129.021 91.9066 122.485 91.8519 115.956 91.9613C114.548 91.9838 112.343 90.9898 111.877 92.9168C111.417 94.8309 112.7 96.6581 114.413 97.8452C119.496 101.358 124.784 101.738 130.268 98.8264C131.503 98.1766 132.583 97.0635 134.219 97.7519C137.206 99.0162 137.563 101.754 134.74 103.668C128.163 108.136 120.939 108.658 113.873 105.486C106.8 102.314 103.345 96.4072 103.804 88.4966C103.329 80.8241 106.665 75.2007 113.439 71.6492C120.331 68.0333 127.16 68.7925 133.489 72.9456C139.102 76.6162 140.636 82.3007 140.08 88.6446L140.086 88.6478ZM157.774 120.12H154.218V113.721H155.048V119.425H157.774V120.12ZM162.683 120.12L161.995 118.103H159.725L159.069 120.12H158.214L160.381 113.721H161.378L163.56 120.12H162.683ZM167.994 119.573C167.543 119.985 166.823 120.174 165.782 120.174C165.213 120.174 164.779 120.136 164.502 120.094V113.805C164.866 113.724 165.435 113.67 166.013 113.67C166.836 113.67 167.363 113.811 167.768 114.136C168.1 114.381 168.299 114.76 168.299 115.269C168.299 115.886 167.887 116.423 167.216 116.668V116.69C167.823 116.842 168.537 117.34 168.537 118.289C168.537 118.843 168.315 119.261 168 119.57L167.994 119.573ZM166.01 117.051H165.332V119.486C165.489 119.518 165.727 119.525 166.02 119.525C166.875 119.525 167.662 119.216 167.662 118.283C167.662 117.414 166.91 117.048 166.01 117.048V117.051ZM167.457 115.359C167.457 114.606 166.888 114.313 166.058 114.313C165.679 114.313 165.457 114.336 165.332 114.368V116.423H166.074C166.952 116.423 167.457 115.963 167.457 115.355V115.359ZM160.866 114.458H160.85C160.754 114.837 160.654 115.223 160.526 115.613L159.902 117.462H161.831L161.198 115.619C161.056 115.201 160.96 114.821 160.866 114.458ZM122.177 76.3203C117.924 76.4779 114.169 77.7357 112.195 81.8889C111.079 84.2309 111.301 85.9391 114.612 85.7396C116.824 85.6045 119.046 85.7171 121.267 85.7171C123.874 85.7107 126.491 85.804 129.092 85.6849C132.159 85.5498 132.956 84.0958 131.557 81.342C129.606 77.5299 126.253 76.1787 122.177 76.3203V76.3203ZM131.557 81.342C129.606 77.5299 126.253 76.1787 122.177 76.3203C117.924 76.4779 114.169 77.7357 112.195 81.8889C111.079 84.2309 111.301 85.9391 114.612 85.7396C116.824 85.6045 119.046 85.7171 121.267 85.7171C123.874 85.7107 126.491 85.804 129.092 85.6849C132.159 85.5498 132.956 84.0958 131.557 81.342V81.342ZM131.557 81.342C129.606 77.5299 126.253 76.1787 122.177 76.3203C117.924 76.4779 114.169 77.7357 112.195 81.8889C111.079 84.2309 111.301 85.9391 114.612 85.7396C116.824 85.6045 119.046 85.7171 121.267 85.7171C123.874 85.7107 126.491 85.804 129.092 85.6849C132.159 85.5498 132.956 84.0958 131.557 81.342V81.342Z" fill="#6392C5"/>
<path d="M129.092 85.6793C126.491 85.7984 123.874 85.7019 121.267 85.7115C119.046 85.7115 116.824 85.6021 114.613 85.734C111.301 85.9303 111.08 84.222 112.195 81.8833C114.172 77.7301 117.924 76.4723 122.177 76.3147C126.256 76.1731 129.606 77.5242 131.558 81.3364C132.956 84.0901 132.159 85.5442 129.092 85.6793Z" fill="#FBFDFE"/>
<path d="M129.092 85.6793C126.491 85.7984 123.874 85.7019 121.267 85.7115C119.046 85.7115 116.824 85.6021 114.613 85.734C111.301 85.9303 111.08 84.222 112.195 81.8833C114.172 77.7301 117.924 76.4723 122.177 76.3147C126.256 76.1731 129.606 77.5242 131.558 81.3364C132.956 84.0901 132.159 85.5442 129.092 85.6793Z" fill="#6493C6"/>
<path d="M54 41.3855C54.733 41.231 55.8903 41.1152 57.0669 41.1152C58.745 41.1152 59.8252 41.4048 60.6353 42.061C61.3104 42.5629 61.7154 43.335 61.7154 44.358C61.7154 45.6126 60.886 46.7128 59.5165 47.2147V47.2533C60.751 47.5621 62.1977 48.5851 62.1977 50.5153C62.1977 51.6348 61.754 52.4841 61.0982 53.1211C60.1916 53.9511 58.7257 54.3371 56.604 54.3371C55.4466 54.3371 54.5594 54.2599 54 54.1827V41.3855V41.3855ZM55.6781 46.7128H57.2019C58.9765 46.7128 60.018 45.7863 60.018 44.5317C60.018 43.0068 58.8607 42.4085 57.1633 42.4085C56.3918 42.4085 55.9481 42.4664 55.6781 42.5243V46.7128V46.7128ZM55.6781 52.9474C56.006 53.0053 56.4882 53.0246 57.0862 53.0246C58.8221 53.0246 60.4231 52.3876 60.4231 50.496C60.4231 48.7202 58.8993 47.9867 57.0669 47.9867H55.6781V52.9474V52.9474Z" fill="white"/>
<path d="M66.3833 41.3855C67.232 41.2117 68.4472 41.1152 69.6045 41.1152C71.3983 41.1152 72.5557 41.4434 73.3658 42.1768C74.0216 42.7559 74.3881 43.6438 74.3881 44.6475C74.3881 46.3654 73.3079 47.5042 71.9384 47.9674V48.0254C72.9414 48.3728 73.5394 49.2993 73.848 50.6504C74.2723 52.4648 74.581 53.7194 74.851 54.2213H73.115C72.9028 53.8546 72.6135 52.735 72.247 51.1137C71.8613 49.3186 71.1669 48.643 69.6431 48.5851H68.0614V54.2213H66.3833V41.3855V41.3855ZM68.0614 47.3112H69.7781C71.5719 47.3112 72.71 46.3268 72.71 44.8405C72.71 43.1612 71.4948 42.4278 69.7202 42.4085C68.9101 42.4085 68.3314 42.4857 68.0614 42.5629V47.3112V47.3112Z" fill="white"/>
<path d="M80.3676 41.2129V48.9144C80.3676 51.829 81.6599 53.0643 83.3959 53.0643C85.3247 53.0643 86.5592 51.7904 86.5592 48.9144V41.2129H88.2566V48.7986C88.2566 52.7941 86.1541 54.4348 83.338 54.4348C80.6762 54.4348 78.6702 52.9099 78.6702 48.8758V41.2129H80.3676V41.2129Z" fill="white"/>
<path d="M93.0979 54.2224V41.2129H94.9303L99.0967 47.7949C100.061 49.3197 100.813 50.6902 101.431 52.022L101.469 52.0027C101.315 50.2655 101.276 48.6828 101.276 46.6561V41.2129H102.858V54.2224H101.161L97.0328 47.6212C96.1262 46.1735 95.2582 44.6873 94.6024 43.2782L94.5445 43.2975C94.641 44.9382 94.6796 46.5016 94.6796 48.6635V54.2224H93.0979V54.2224Z" fill="white"/>
<path d="M107.487 52.1759C108.239 52.6391 109.339 53.0251 110.496 53.0251C112.213 53.0251 113.216 52.118 113.216 50.8054C113.216 49.5894 112.521 48.8945 110.766 48.219C108.644 47.4662 107.333 46.366 107.333 44.5323C107.333 42.5056 109.011 41 111.538 41C112.869 41 113.833 41.3088 114.412 41.637L113.949 43.0074C113.524 42.7758 112.656 42.3897 111.48 42.3897C109.705 42.3897 109.03 43.4514 109.03 44.3392C109.03 45.5553 109.821 46.1536 111.615 46.8485C113.814 47.6978 114.932 48.7594 114.932 50.6703C114.932 52.6777 113.447 54.4149 110.38 54.4149C109.127 54.4149 107.757 54.0482 107.063 53.5849L107.487 52.1759Z" fill="white"/>
<path d="M121.275 54.2224L117.98 41.2129H119.755L121.298 47.7949C121.684 49.4162 122.031 51.0376 122.262 52.2922H122.301C122.513 50.999 122.918 49.4548 123.362 47.7756L125.094 41.2129H126.85L128.431 47.8142C128.798 49.3583 129.145 50.9025 129.338 52.2729H129.377C129.647 50.8446 130.013 49.3969 130.418 47.7756L132.135 41.2129H133.852L130.167 54.2224H128.412L126.773 47.4474C126.368 45.7875 126.098 44.5135 125.924 43.201H125.885C125.654 44.4942 125.365 45.7682 124.882 47.4474L123.031 54.2224H121.275V54.2224Z" fill="white"/>
<path d="M139.079 41.2129V54.2224H137.401V41.2129H139.079Z" fill="white"/>
<path d="M153.024 53.7972C152.407 54.1061 151.173 54.4149 149.591 54.4149C145.926 54.4149 143.168 52.0987 143.168 47.8329C143.168 43.5672 145.926 41 149.958 41C151.578 41 152.6 41.3474 153.044 41.5791L152.639 42.9495C152.002 42.6407 151.096 42.409 150.015 42.409C146.968 42.409 144.943 44.3585 144.943 47.775C144.943 50.9598 146.775 53.0058 149.938 53.0058C150.961 53.0058 152.002 52.7935 152.677 52.4654L153.024 53.7972V53.7972Z" fill="white"/>
<path d="M157.056 41.2129H158.734V47.486H158.792C159.139 46.9842 159.486 46.5209 159.814 46.0963L163.787 41.2129H165.871L161.164 46.7333L166.237 54.2224H164.25L159.968 47.8335L158.734 49.2618V54.2224H157.056V41.2129V41.2129Z" fill="white"/>
<g clip-path="url(#clip0_1252_7)">
<path d="M7.61882 165.82C6.81378 164.92 5.99751 164.141 5.3385 163.252C3.65354 160.98 2.8485 158.329 2.33552 155.586C2.05844 154.106 1.86747 152.611 1.684 151.119C1.63907 150.75 1.7177 150.351 1.81131 149.985C1.93862 149.503 2.36547 149.469 2.66128 149.703C3.06942 150.023 3.44011 150.434 3.71719 150.874C6.05742 154.577 8.88441 157.797 12.6625 160.088C15.7478 161.96 19.1589 162.984 22.5963 163.948C25.9138 164.879 29.2725 165.7 32.5338 166.804C35.8438 167.922 38.7794 169.757 41.1009 172.453C41.378 172.777 41.5877 173.158 41.8311 173.508L41.6401 173.73C41.3892 173.595 41.0934 173.512 40.8987 173.32C36.9896 169.44 31.9572 168.088 26.8124 166.999C23.596 166.318 20.3384 165.809 17.2343 164.649C12.6512 162.935 8.65975 160.355 5.42088 156.641C5.18873 156.374 4.93411 156.125 4.69073 155.865L4.511 155.914C4.55593 156.332 4.55967 156.762 4.65703 157.168C5.43585 160.374 6.8999 163.131 9.95905 164.687C10.9213 165.176 12.0334 165.372 13.0706 165.711C13.5798 165.877 14.1078 166.02 14.5684 166.276C14.823 166.419 15.1412 166.807 15.1075 167.033C15.0664 167.312 14.7294 167.662 14.4448 167.764C13.9281 167.949 13.3514 168.073 12.8048 168.054C10.0976 167.956 7.39041 167.802 4.68698 167.67C4.48853 167.659 4.29008 167.67 3.86696 167.67C4.29757 167.964 4.55967 168.178 4.85173 168.333C7.67124 169.836 10.678 170.77 13.8232 171.252C14.7743 171.399 15.7403 171.429 16.6952 171.546C17.283 171.617 17.9982 171.614 18.1367 172.382C18.279 173.162 17.6275 173.501 17.0621 173.64C15.6992 173.975 14.31 174.205 12.9246 174.438C11.9099 174.608 10.8839 174.706 9.86169 174.849C9.65201 174.879 9.44981 174.966 9.06414 175.083C9.50223 175.327 9.77557 175.508 10.0714 175.64C12.5389 176.736 15.13 177.309 17.8147 177.467C18.3464 177.497 18.8856 177.407 19.4211 177.35C19.9153 177.297 20.3908 177.301 20.6417 177.821C20.9076 178.367 20.784 178.887 20.3759 179.316C19.6869 180.043 18.7583 180.25 17.826 180.409C16.0848 180.706 14.3437 180.992 12.5576 181.411C12.816 181.542 13.0706 181.689 13.3365 181.798C15.95 182.883 18.7021 182.97 21.473 182.88C22.3005 182.853 23.1242 182.755 23.9442 182.654C24.5433 182.578 25.0226 182.819 25.2136 183.388C25.412 183.983 25.1724 184.409 24.637 184.661C23.3189 185.283 21.9897 185.882 20.6717 186.503C20.1063 186.77 19.5259 187.027 19.0017 187.366C18.1817 187.893 18.2229 188.454 19.1477 188.797C19.9153 189.083 20.7353 189.271 21.5516 189.388C24.1614 189.761 26.6776 189.181 29.1789 188.514C29.7405 188.367 30.3134 188.224 30.8863 188.183C31.5228 188.138 31.7999 188.56 31.4554 189.091C31.081 189.667 30.6055 190.198 30.0887 190.65C29.3623 191.287 28.561 191.833 27.7897 192.417C27.6175 192.548 27.449 192.688 27.2805 192.823L27.3254 193C28.7857 192.903 30.246 192.801 31.7063 192.703L31.7512 192.865C31.5603 192.993 31.3806 193.147 31.1746 193.245C29.6769 193.946 28.108 194.405 26.4492 194.436C26.0785 194.443 25.5618 194.266 25.3821 193.995C25.2585 193.807 25.5019 193.211 25.749 192.97C26.5316 192.202 27.3966 191.513 28.2278 190.789C28.4562 190.59 28.6809 190.39 28.9055 190.191L28.8269 190.021C28.6509 190.047 28.4712 190.059 28.2989 190.1C25.8389 190.695 23.3938 191.381 20.8214 191.283C19.5296 191.234 18.2378 191.151 17.1258 190.454C16.5416 190.089 16.0436 189.531 15.6168 188.974C15.2086 188.443 15.3285 187.84 15.8602 187.418C16.5454 186.88 17.2718 186.39 17.987 185.889C18.1667 185.761 18.3651 185.663 18.7396 185.445C18.1292 185.332 17.6949 185.241 17.2568 185.173C14.1715 184.68 11.2995 183.554 8.51747 182.171C8.13929 181.983 7.75736 181.757 7.45781 181.463C7.24438 181.256 7.04593 180.883 7.08337 180.623C7.10959 180.446 7.54768 180.25 7.82476 180.209C8.68596 180.077 9.56589 180.043 10.4308 179.911C11.5691 179.738 12.7037 179.505 14.003 179.267C12.1944 178.646 10.5544 178.16 8.97802 177.52C7.51023 176.921 6.08737 176.19 4.68324 175.448C4.20396 175.196 3.79582 174.759 3.44011 174.333C3.09937 173.926 3.27535 173.553 3.79208 173.455C4.05418 173.406 4.32752 173.437 4.59712 173.425C6.52172 173.331 8.44632 173.237 10.3709 173.128C10.6293 173.113 10.8876 173.03 11.2321 172.962C10.0115 172.627 8.87692 172.374 7.78357 172.001C4.66826 170.943 2.2831 168.928 0.482059 166.193C0.208721 165.779 -0.251836 165.259 0.171277 164.818C0.347262 164.638 1.03623 164.852 1.44436 165.011C3.42887 165.779 5.48079 165.948 7.63005 165.817L7.61882 165.82Z" fill="url(#paint0_linear_1252_7)"/>
<path d="M84.7601 193.174C87.2838 193.174 89.815 193.174 92.3462 193.174C94.1135 193.174 95.8322 193.437 97.4497 194.176C99.7413 195.223 101.194 196.948 101.217 199.543C101.243 202.56 100.067 205.351 96.2253 206.662C95.9595 206.752 95.6861 206.828 95.263 206.956C98.1013 210.933 100.719 214.949 104.444 218.049C102.767 219.039 99.8536 218.753 98.1986 217.431C96.7495 216.274 95.7273 214.764 94.7313 213.231C93.6305 211.532 92.5633 209.811 91.4288 208.135C90.9345 207.408 90.2755 206.824 89.2571 206.692C89.2571 207.031 89.2533 207.332 89.2571 207.634C89.302 210.474 89.3544 213.318 89.3956 216.158C89.3994 216.493 89.3694 216.836 89.2983 217.16C89.0661 218.233 88.4595 218.753 87.3587 218.73C86.5162 218.715 85.6737 218.591 84.8163 218.512C85.3891 209.988 85.2244 201.573 84.7563 193.17L84.7601 193.174ZM89.332 198.794H89.2608C89.2608 199.716 89.2683 200.643 89.2608 201.566C89.2496 202.489 89.2309 203.411 89.1934 204.334C89.1709 204.824 89.3357 205.114 89.8487 205.148C90.9158 205.219 91.9942 205.43 93.0501 205.34C95.2481 205.159 96.4762 203.973 96.9143 201.777C97.0304 201.189 97.0416 200.568 97.0191 199.965C96.9517 198.051 96.0868 196.609 94.3681 195.739C92.9228 195.008 91.3539 194.929 89.7813 194.982C89.6278 194.985 89.3619 195.302 89.3544 195.483C89.3132 196.586 89.3357 197.69 89.3357 198.794H89.332Z" fill="white"/>
<path d="M174.812 218.165C172.326 218.794 169.967 219.023 167.859 217.185C166.264 215.795 164.975 214.157 163.822 212.402C162.71 210.71 161.658 208.974 160.553 207.279C160.246 206.812 159.973 206.251 159.224 206.138C159.209 206.413 159.183 206.646 159.187 206.884C159.232 209.814 159.288 212.748 159.318 215.679C159.325 216.214 159.303 216.763 159.194 217.287C159.007 218.195 158.397 218.73 157.498 218.726C156.569 218.722 155.645 218.594 154.791 218.526C155.334 209.972 155.135 201.576 154.69 193.124C155.633 192.465 157.876 192.762 158.775 193.746C159.25 194.265 159.321 194.894 159.31 195.569C159.258 198.567 159.228 201.565 159.19 204.567C159.19 204.646 159.228 204.729 159.265 204.876C159.438 204.771 159.584 204.722 159.681 204.62C162.313 201.908 164.987 199.237 167.537 196.45C168.315 195.599 168.746 194.424 169.356 193.407C169.45 193.248 169.656 193.071 169.821 193.064C170.446 193.034 171.083 193.015 171.7 193.098C172.636 193.226 173 193.994 172.389 194.785C171.405 196.062 170.341 197.301 169.184 198.42C167.275 200.262 165.268 202.002 163.291 203.772C162.983 204.047 162.826 204.27 163.118 204.673C165.889 208.477 168.69 212.262 171.989 215.633C172.85 216.511 173.816 217.283 174.808 218.168L174.812 218.165Z" fill="white"/>
<path d="M73.6244 206.737C74.7328 206.526 75.8448 206.511 76.9157 206.937C77.8855 207.321 78.2862 208.233 78.215 209.585C78.1139 211.476 78.0241 213.366 77.9604 215.257C77.9267 216.312 77.9529 217.367 77.9529 218.455C77.5635 218.455 77.1891 218.433 76.8184 218.455C74.3583 218.613 71.902 218.854 69.4382 218.937C63.1103 219.148 57.4712 215.849 56.4715 208.647C55.8013 203.833 57.0931 199.562 60.5491 196.085C63.0241 193.592 66.1095 192.541 69.5843 192.609C71.5912 192.646 73.557 192.951 75.4217 193.742C77.7619 194.733 78.1476 195.934 76.8446 198.127C76.8221 198.164 76.7959 198.202 76.7697 198.24C76.1818 199.189 76.1856 199.181 75.4816 198.296C73.8453 196.24 71.7972 194.835 69.1349 194.639C65.8249 194.398 63.0279 196.063 61.7398 199.294C59.7965 204.176 60.2121 208.948 63.2488 213.299C65.1322 215.996 67.8731 217.039 71.1269 216.67C71.8608 216.587 72.591 216.47 73.3099 216.308C73.5158 216.263 73.8191 216.011 73.8304 215.837C74.0513 212.828 74.1748 209.815 73.6244 206.733V206.737Z" fill="white"/>
<path d="M21.9147 204.28C21.5926 204.28 21.4017 204.269 21.2145 204.28C18.5747 204.442 16.0323 204.013 13.6022 202.969C13.2165 202.804 12.8421 202.57 12.52 202.299C11.921 201.79 12.0183 201.139 12.7672 200.909C13.576 200.657 14.4222 200.529 15.2572 200.367C19.5108 199.542 23.712 198.532 27.7147 196.837C28.5384 196.491 29.306 196.009 30.1036 195.598C30.4069 195.444 30.7214 195.316 31.0322 195.176L31.2044 195.383C31.0397 195.613 30.9199 195.911 30.7027 196.058C29.5906 196.807 28.5122 197.643 27.3103 198.212C24.2287 199.666 21.0946 201.015 17.7434 201.757C17.3653 201.839 16.9871 201.922 16.6126 202.005L16.5977 202.291C17.1818 202.416 17.7696 202.661 18.3538 202.646C19.7804 202.612 21.207 202.465 22.6336 202.359C22.6785 202.359 22.7234 202.34 22.7646 202.337C23.345 202.284 23.9928 202.129 24.3747 202.706C24.7229 203.233 24.3448 203.738 24.0939 204.212C23.7794 204.8 23.4536 205.38 23.023 206.164C23.4873 206.054 23.7531 206.009 24.0078 205.93C24.8839 205.655 25.7489 205.35 26.6251 205.086C27.7933 204.732 28.6732 205.184 29.3809 206.118C29.965 206.891 30.156 206.879 30.8412 206.194C32.7696 204.273 34.6455 202.288 36.6712 200.472C38.0192 199.263 39.5544 198.257 41.0596 197.24C43.1527 195.824 45.2084 194.382 46.6949 192.276C48.3049 189.997 49.1137 187.406 49.5593 184.698C50.076 181.541 50.5104 178.373 50.926 175.202C51.233 172.859 52.6709 171.36 55.3256 170.765C53.6294 167.002 50.3568 167.036 48.1627 169.009C47.1479 169.925 46.2306 170.953 45.2645 171.925C44.9874 172.204 44.6916 172.463 44.2535 172.87C44.2535 172.482 44.1899 172.271 44.261 172.132C45.3731 169.932 46.7361 167.925 48.8928 166.629C51.6861 164.953 55.262 165.977 56.8421 168.825C57.0181 169.145 57.3139 169.428 57.6097 169.65C58.4372 170.271 58.8229 171.134 59.0288 172.106C59.1299 172.584 58.9052 172.742 58.4597 172.592C58.2275 172.512 57.9991 172.418 57.7744 172.313C57.1566 172.027 56.5538 171.883 55.9434 172.366C55.7824 172.494 55.5203 172.558 55.3106 172.546C54.3146 172.49 53.6182 173.013 53.3037 173.85C52.888 174.953 52.5773 176.113 52.3863 177.277C51.8696 180.434 51.6075 183.639 50.9447 186.762C49.8364 191.975 46.6949 195.756 42.1792 198.453C39.6292 199.979 37.1879 201.647 35.1922 203.911C33.9753 205.297 32.6647 206.597 31.3804 207.923C31.1483 208.16 30.8637 208.363 30.5679 208.51C29.8752 208.853 29.2985 208.642 28.9316 207.964C28.1266 206.484 27.3477 206.182 25.7901 206.778C25.2659 206.977 24.7791 207.275 24.2437 207.437C23.5435 207.648 22.8208 207.87 22.1019 207.9C20.8288 207.949 20.4281 207.256 20.9823 206.118C21.1583 205.757 21.3867 205.414 21.5739 205.056C21.6825 204.849 21.7611 204.627 21.9109 204.284L21.9147 204.28Z" fill="#BA1618"/>
<path d="M106.051 218.396C108.38 214.893 109.282 210.851 110.716 207.036C112.431 202.47 114.011 197.849 115.633 193.246C115.801 192.768 115.988 192.636 116.501 192.775C118.677 193.355 119.987 194.783 120.673 196.877C122.009 200.956 123.309 205.051 124.716 209.104C125.566 211.544 126.574 213.929 127.551 216.324C127.843 217.04 128.262 217.707 128.644 218.433C127.386 218.765 126.068 218.934 124.743 218.565C123.765 218.294 123.17 217.594 122.882 216.607C122.294 214.599 121.665 212.606 121.077 210.599C120.935 210.109 120.699 209.917 120.178 209.928C117.621 209.989 115.067 210.023 112.51 210.038C112.075 210.038 111.937 210.23 111.828 210.595C111.327 212.298 110.817 214 110.282 215.695C110.087 216.313 109.855 216.934 109.552 217.507C108.878 218.78 107.354 219.157 106.051 218.396V218.396ZM116.404 197.16L116.074 197.19C114.906 200.806 113.742 204.422 112.551 208.117H120.276C118.95 204.369 117.677 200.764 116.404 197.16Z" fill="white"/>
<path d="M219.37 218.456C218.239 218.749 216.989 218.9 215.715 218.614C214.656 218.377 214.001 217.687 213.69 216.655C213.094 214.674 212.484 212.696 211.907 210.711C211.746 210.158 211.503 209.905 210.885 209.924C208.373 209.992 205.86 210.026 203.348 210.037C202.898 210.037 202.719 210.226 202.603 210.621C202.063 212.429 201.517 214.237 200.955 216.041C200.809 216.512 200.629 216.979 200.397 217.416C199.675 218.783 198.128 219.201 196.84 218.384C199.064 215.122 199.918 211.28 201.281 207.657C202.644 204.037 203.895 200.376 205.194 196.733C205.617 195.547 206.051 194.364 206.456 193.17C206.587 192.79 206.718 192.643 207.175 192.756C209.421 193.298 210.743 194.76 211.473 196.895C213.476 202.768 215.48 208.644 217.543 214.493C218.018 215.838 218.733 217.096 219.366 218.456H219.37ZM207.201 197.163L206.868 197.185C205.703 200.801 204.535 204.417 203.34 208.12H211.069C209.747 204.372 208.474 200.768 207.201 197.163Z" fill="white"/>
<path d="M191.078 203.879C191.254 205.642 190.673 206.342 189.014 206.32C187.423 206.301 185.832 206.229 184.24 206.139C183.679 206.109 183.428 206.218 183.447 206.855C183.518 209.717 183.548 212.584 183.589 215.45C183.593 215.808 183.581 216.124 184.102 216.098C187.124 215.951 190.149 215.838 193.171 215.668C193.762 215.635 194.346 215.412 195.073 215.247C195.028 215.97 195.032 216.678 194.923 217.367C194.814 218.053 194.298 218.426 193.639 218.456C191.984 218.527 190.325 218.584 188.666 218.576C185.727 218.561 182.788 218.493 179.848 218.452C179.609 218.452 179.365 218.452 179.122 218.452C179.65 210 179.418 201.63 178.987 193.216C183.731 193.133 188.472 193.05 193.223 192.971C193.463 194.575 192.572 195.724 190.827 195.679C188.614 195.619 186.405 195.385 184.192 195.227C184.019 195.216 183.844 195.197 183.645 195.182C183.619 195.351 183.578 195.483 183.578 195.611C183.548 198.206 183.536 200.802 183.488 203.393C183.477 203.973 183.649 204.192 184.252 204.169C186.202 204.101 188.153 204.09 190.104 204.041C190.411 204.033 190.718 203.943 191.07 203.883L191.078 203.879Z" fill="white"/>
<path d="M26.7337 152.449C26.5015 153.726 26.715 154.709 26.9808 155.68C27.374 157.119 28.1116 158.37 29.0589 159.507C29.3922 159.91 29.9351 160.359 29.5981 160.897C29.2199 161.5 28.5347 161.187 28.0742 160.942C26.831 160.287 25.6291 159.553 24.4309 158.814C24.019 158.562 23.6633 158.212 23.2814 157.903L23.038 157.956C23.038 158.536 22.9556 159.127 23.0567 159.688C23.2102 160.547 23.4948 161.383 23.697 162.234C23.7382 162.4 23.6521 162.596 23.6259 162.781C23.4386 162.701 23.1616 162.675 23.0754 162.536C21.6451 160.227 20.9636 157.767 21.8099 155.074C21.9259 154.709 22.2704 154.223 22.5737 154.17C22.8396 154.125 23.2402 154.569 23.5023 154.871C23.9741 155.413 24.3897 156.012 24.9327 156.724C24.8802 155.341 24.7192 154.193 24.8241 153.07C24.9701 151.56 25.3146 150.064 25.5917 148.565C25.6366 148.332 25.7564 148.087 25.9062 147.899C26.0335 147.74 26.2731 147.529 26.4192 147.56C26.6064 147.597 26.8086 147.823 26.9022 148.019C27.2354 148.705 27.4938 149.424 27.8383 150.102C28.003 150.43 28.2951 150.693 28.6957 150.953C28.7893 150.147 28.8567 149.334 28.9841 148.531C29.4708 145.458 30.3507 142.546 32.6423 140.294C33.1291 139.815 33.7394 139.424 34.361 139.141C35.3083 138.716 36.0122 139.296 35.7801 140.301C34.7504 144.776 36.2893 148.592 38.7306 152.181C39.7042 153.616 40.7152 155.025 41.7037 156.449C43.5084 159.055 44.2161 161.971 43.9054 165.101C43.7556 166.615 43.3662 168.107 43.0591 169.602C43.0067 169.858 42.8307 170.092 42.7072 170.333L42.505 170.303C42.475 170.126 42.4076 169.945 42.4151 169.768C42.4488 168.935 42.4937 168.103 42.5461 167.27C42.7483 164.088 42.0669 161.131 40.3033 158.46C39.4982 157.24 38.7119 155.997 37.817 154.844C35.5666 151.94 34.1475 148.675 33.4211 145.085C33.3013 144.501 33.0916 143.932 32.9269 143.356L32.691 143.3C32.4626 143.68 32.1256 144.038 32.0207 144.452C31.6201 146.015 31.1446 147.582 30.9761 149.175C30.7963 150.908 30.9199 152.671 30.9311 154.422C30.9311 154.938 30.7027 155.217 30.2422 154.991C29.5682 154.66 28.9354 154.238 28.325 153.797C27.8083 153.424 27.3515 152.976 26.7299 152.441L26.7337 152.449Z" fill="url(#paint1_linear_1252_7)"/>
<path d="M141.397 218.519C140.45 218.598 139.563 218.722 138.675 218.726C137.668 218.726 136.971 218.078 136.897 217.065C136.822 216.078 136.84 215.083 136.84 214.089C136.833 211.742 136.844 209.396 136.829 207.053C136.829 206.755 136.773 206.405 136.616 206.164C134.815 203.448 133.01 200.732 131.156 198.047C130.059 196.457 128.884 194.928 127.745 193.369C127.708 193.32 127.697 193.248 127.648 193.12C129.131 192.849 130.584 192.755 132.051 193.022C132.864 193.173 133.264 193.783 133.669 194.427C135.481 197.324 137.316 200.209 139.147 203.098C139.312 203.358 139.518 203.588 139.772 203.919C139.982 203.621 140.15 203.422 140.281 203.2C141.551 201.049 142.809 198.891 144.078 196.74C144.49 196.043 144.894 195.339 145.348 194.668C146.49 192.966 147.564 192.551 149.556 192.996C149.743 193.037 149.931 193.097 150.182 193.169C149.736 193.614 149.287 193.964 148.965 194.408C147.19 196.842 145.419 199.279 143.7 201.753C142.801 203.045 141.993 204.401 141.188 205.753C140.993 206.081 140.873 206.514 140.888 206.891C141.038 210.492 141.225 214.089 141.401 217.686C141.412 217.908 141.401 218.131 141.401 218.515L141.397 218.519Z" fill="white"/>
</g>
<line x1="2.26117" y1="-2.26117" x2="34.1899" y2="-2.26117" transform="matrix(0.715976 -0.698125 0.715976 0.698125 98.0083 170)" stroke="white" stroke-width="4.52233" stroke-linecap="round"/>
<line x1="2.26117" y1="-2.26117" x2="34.1899" y2="-2.26117" transform="matrix(-0.715976 -0.698125 0.715976 -0.698125 124.098 167.447)" stroke="white" stroke-width="4.52233" stroke-linecap="round"/>
<path d="M17.3364 11.4502C17.2336 10.538 16.8096 9.83138 16.0645 9.33033C15.3193 8.82285 14.3815 8.56911 13.2509 8.56911C12.4415 8.56911 11.7413 8.69759 11.1503 8.95454C10.5593 9.20506 10.1 9.55195 9.7724 9.99519C9.45121 10.432 9.29062 10.9298 9.29062 11.4887C9.29062 11.9576 9.39982 12.3623 9.61823 12.7028C9.84306 13.0433 10.1353 13.3291 10.4951 13.5604C10.8612 13.7852 11.2531 13.9747 11.6706 14.1289C12.0882 14.2766 12.4897 14.3987 12.8751 14.495L14.8022 14.9961C15.4317 15.1503 16.0773 15.359 16.739 15.6224C17.4006 15.8858 18.0141 16.2327 18.5794 16.6631C19.1447 17.0934 19.6008 17.6266 19.9476 18.2626C20.301 18.8985 20.4776 19.6597 20.4776 20.5462C20.4776 21.664 20.1885 22.6564 19.6104 23.5236C19.0387 24.3908 18.2068 25.075 17.1148 25.576C16.0291 26.0771 14.7155 26.3276 13.1738 26.3276C11.6963 26.3276 10.418 26.0931 9.33879 25.6242C8.2596 25.1553 7.41488 24.4904 6.80462 23.6296C6.19436 22.7624 5.85711 21.7346 5.79288 20.5462H8.77993C8.83774 21.2593 9.069 21.8535 9.47369 22.3288C9.88481 22.7978 10.4084 23.1478 11.0443 23.3791C11.6867 23.6039 12.3901 23.7164 13.1545 23.7164C13.996 23.7164 14.7444 23.5847 15.3996 23.3213C16.0613 23.0515 16.5816 22.6789 16.9606 22.2036C17.3396 21.7218 17.5291 21.1597 17.5291 20.5173C17.5291 19.9328 17.3621 19.4542 17.028 19.0816C16.7004 18.709 16.254 18.4007 15.6887 18.1566C15.1298 17.9125 14.4971 17.6973 13.7905 17.511L11.4586 16.875C9.87839 16.4446 8.62576 15.8119 7.70073 14.9768C6.78214 14.1417 6.32284 13.0368 6.32284 11.6622C6.32284 10.5251 6.63118 9.53268 7.24786 8.68474C7.86454 7.8368 8.69963 7.17837 9.75313 6.70943C10.8066 6.23407 11.995 5.99639 13.3183 5.99639C14.6545 5.99639 15.8332 6.23086 16.8546 6.6998C17.8824 7.16873 18.6918 7.81432 19.2828 8.63656C19.8738 9.45238 20.1821 10.3902 20.2078 11.4502H17.3364ZM24.0356 26V6.26619H31.0696C32.6049 6.26619 33.8768 6.54563 34.8853 7.10449C35.8938 7.66336 36.6486 8.42779 37.1497 9.39778C37.6507 10.3613 37.9013 11.447 37.9013 12.6546C37.9013 13.8687 37.6475 14.9608 37.14 15.9307C36.639 16.8943 35.881 17.6587 34.866 18.224C33.8575 18.7829 32.5888 19.0623 31.06 19.0623H26.2229V16.5378H30.7902C31.7601 16.5378 32.5471 16.3708 33.1509 16.0367C33.7547 15.6963 34.198 15.2338 34.4806 14.6492C34.7633 14.0646 34.9046 13.3998 34.9046 12.6546C34.9046 11.9095 34.7633 11.2478 34.4806 10.6697C34.198 10.0915 33.7515 9.63867 33.1413 9.31106C32.5374 8.98345 31.7409 8.81964 30.7516 8.81964H27.013V26H24.0356ZM58.5336 16.1331C58.5336 18.2401 58.1482 20.0516 57.3773 21.5676C56.6065 23.0772 55.5498 24.2399 54.2072 25.0557C52.871 25.8651 51.3518 26.2698 49.6495 26.2698C47.9408 26.2698 46.4152 25.8651 45.0726 25.0557C43.7365 24.2399 42.683 23.074 41.9121 21.558C41.1412 20.042 40.7558 18.2337 40.7558 16.1331C40.7558 14.0261 41.1412 12.2178 41.9121 10.7082C42.683 9.19222 43.7365 8.02952 45.0726 7.22012C46.4152 6.4043 47.9408 5.99639 49.6495 5.99639C51.3518 5.99639 52.871 6.4043 54.2072 7.22012C55.5498 8.02952 56.6065 9.19222 57.3773 10.7082C58.1482 12.2178 58.5336 14.0261 58.5336 16.1331ZM55.5851 16.1331C55.5851 14.5272 55.3249 13.175 54.8046 12.0765C54.2907 10.9716 53.5841 10.1365 52.6848 9.57122C51.7919 8.9995 50.7801 8.71365 49.6495 8.71365C48.5125 8.71365 47.4976 8.9995 46.6047 9.57122C45.7118 10.1365 45.0051 10.9716 44.4848 12.0765C43.9709 13.175 43.714 14.5272 43.714 16.1331C43.714 17.739 43.9709 19.0945 44.4848 20.1993C45.0051 21.2978 45.7118 22.1329 46.6047 22.7046C47.4976 23.2699 48.5125 23.5525 49.6495 23.5525C50.7801 23.5525 51.7919 23.2699 52.6848 22.7046C53.5841 22.1329 54.2907 21.2978 54.8046 20.1993C55.3249 19.0945 55.5851 17.739 55.5851 16.1331ZM78.1735 6.26619V26H75.4369L65.4062 11.5273H65.2231V26H62.2457V6.26619H65.0015L75.0419 20.7582H75.2249V6.26619H78.1735ZM93.2797 11.4502C93.177 10.538 92.753 9.83138 92.0078 9.33033C91.2627 8.82285 90.3248 8.56911 89.1942 8.56911C88.3848 8.56911 87.6846 8.69759 87.0937 8.95454C86.5027 9.20506 86.0434 9.55195 85.7158 9.99519C85.3946 10.432 85.234 10.9298 85.234 11.4887C85.234 11.9576 85.3432 12.3623 85.5616 12.7028C85.7864 13.0433 86.0787 13.3291 86.4384 13.5604C86.8046 13.7852 87.1964 13.9747 87.614 14.1289C88.0315 14.2766 88.433 14.3987 88.8184 14.495L90.7456 14.9961C91.3751 15.1503 92.0207 15.359 92.6823 15.6224C93.344 15.8858 93.9574 16.2327 94.5227 16.6631C95.088 17.0934 95.5441 17.6266 95.891 18.2626C96.2443 18.8985 96.421 19.6597 96.421 20.5462C96.421 21.664 96.1319 22.6564 95.5538 23.5236C94.982 24.3908 94.1502 25.075 93.0581 25.576C91.9725 26.0771 90.6588 26.3276 89.1171 26.3276C87.6397 26.3276 86.3613 26.0931 85.2822 25.6242C84.203 25.1553 83.3582 24.4904 82.748 23.6296C82.1377 22.7624 81.8005 21.7346 81.7362 20.5462H84.7233C84.7811 21.2593 85.0124 21.8535 85.4171 22.3288C85.8282 22.7978 86.3517 23.1478 86.9877 23.3791C87.63 23.6039 88.3334 23.7164 89.0979 23.7164C89.9394 23.7164 90.6878 23.5847 91.343 23.3213C92.0046 23.0515 92.5249 22.6789 92.904 22.2036C93.283 21.7218 93.4725 21.1597 93.4725 20.5173C93.4725 19.9328 93.3054 19.4542 92.9714 19.0816C92.6438 18.709 92.1973 18.4007 91.632 18.1566C91.0732 17.9125 90.4404 17.6973 89.7338 17.511L87.402 16.875C85.8217 16.4446 84.5691 15.8119 83.6441 14.9768C82.7255 14.1417 82.2662 13.0368 82.2662 11.6622C82.2662 10.5251 82.5745 9.53268 83.1912 8.68474C83.8079 7.8368 84.643 7.17837 85.6965 6.70943C86.75 6.23407 87.9384 5.99639 89.2617 5.99639C90.5978 5.99639 91.7766 6.23086 92.798 6.6998C93.8258 7.16873 94.6352 7.81432 95.2261 8.63656C95.8171 9.45238 96.1255 10.3902 96.1512 11.4502H93.2797ZM117.121 16.1331C117.121 18.2401 116.735 20.0516 115.964 21.5676C115.194 23.0772 114.137 24.2399 112.794 25.0557C111.458 25.8651 109.939 26.2698 108.237 26.2698C106.528 26.2698 105.002 25.8651 103.66 25.0557C102.324 24.2399 101.27 23.074 100.499 21.558C99.7284 20.042 99.343 18.2337 99.343 16.1331C99.343 14.0261 99.7284 12.2178 100.499 10.7082C101.27 9.19222 102.324 8.02952 103.66 7.22012C105.002 6.4043 106.528 5.99639 108.237 5.99639C109.939 5.99639 111.458 6.4043 112.794 7.22012C114.137 8.02952 115.194 9.19222 115.964 10.7082C116.735 12.2178 117.121 14.0261 117.121 16.1331ZM114.172 16.1331C114.172 14.5272 113.912 13.175 113.392 12.0765C112.878 10.9716 112.171 10.1365 111.272 9.57122C110.379 8.9995 109.367 8.71365 108.237 8.71365C107.1 8.71365 106.085 8.9995 105.192 9.57122C104.299 10.1365 103.592 10.9716 103.072 12.0765C102.558 13.175 102.301 14.5272 102.301 16.1331C102.301 17.739 102.558 19.0945 103.072 20.1993C103.592 21.2978 104.299 22.1329 105.192 22.7046C106.085 23.2699 107.1 23.5525 108.237 23.5525C109.367 23.5525 110.379 23.2699 111.272 22.7046C112.171 22.1329 112.878 21.2978 113.392 20.1993C113.912 19.0945 114.172 17.739 114.172 16.1331ZM120.833 26V6.26619H127.867C129.396 6.26619 130.664 6.52957 131.673 7.05631C132.688 7.58306 133.446 8.31216 133.947 9.24361C134.448 10.1686 134.699 11.2382 134.699 12.4523C134.699 13.6599 134.445 14.7231 133.937 15.6417C133.436 16.5539 132.678 17.2637 131.663 17.7712C130.655 18.2786 129.386 18.5324 127.857 18.5324H122.529V15.9693H127.587C128.551 15.9693 129.335 15.8312 129.939 15.555C130.549 15.2787 130.995 14.8772 131.278 14.3505C131.561 13.8238 131.702 13.191 131.702 12.4523C131.702 11.7071 131.557 11.0615 131.268 10.5155C130.986 9.96949 130.539 9.55195 129.929 9.26288C129.325 8.96739 128.532 8.81964 127.549 8.81964H123.81V26H120.833ZM130.575 17.0967L135.45 26H132.058L127.279 17.0967H130.575ZM138.322 26V6.26619H150.694V8.82927H141.299V14.8419H150.048V17.3954H141.299V23.4369H150.809V26H138.322ZM161.059 26H154.671V6.26619H161.262C163.195 6.26619 164.856 6.66125 166.243 7.45138C167.631 8.23508 168.694 9.36245 169.433 10.8335C170.178 12.2981 170.55 14.055 170.55 16.1042C170.55 18.1598 170.175 19.9263 169.423 21.4038C168.678 22.8813 167.599 24.0183 166.185 24.8148C164.772 25.6049 163.064 26 161.059 26ZM157.648 23.3984H160.895C162.399 23.3984 163.648 23.1157 164.644 22.5504C165.639 21.9787 166.385 21.1533 166.879 20.0741C167.374 18.9885 167.621 17.6652 167.621 16.1042C167.621 14.5561 167.374 13.2424 166.879 12.1632C166.391 11.084 165.662 10.265 164.692 9.70612C163.722 9.14725 162.517 8.86782 161.079 8.86782H157.648V23.3984ZM181.434 26V6.26619H188.661C190.061 6.26619 191.22 6.49745 192.139 6.95996C193.058 7.41605 193.745 8.03594 194.201 8.81964C194.657 9.59691 194.885 10.4738 194.885 11.4502C194.885 12.2724 194.734 12.9662 194.432 13.5315C194.13 14.0903 193.726 14.54 193.218 14.8805C192.717 15.2145 192.165 15.4586 191.561 15.6128V15.8055C192.216 15.8376 192.855 16.0496 193.478 16.4414C194.108 16.8269 194.628 17.3761 195.039 18.0891C195.451 18.8022 195.656 19.6694 195.656 20.6908C195.656 21.6993 195.418 22.605 194.943 23.408C194.474 24.2046 193.748 24.8373 192.765 25.3062C191.783 25.7687 190.527 26 188.998 26H181.434ZM184.411 23.4466H188.709C190.135 23.4466 191.156 23.1703 191.773 22.6179C192.39 22.0654 192.698 21.3749 192.698 20.5462C192.698 19.9231 192.541 19.3514 192.226 18.8311C191.911 18.3108 191.461 17.8964 190.877 17.5881C190.299 17.2797 189.611 17.1256 188.815 17.1256H184.411V23.4466ZM184.411 14.8034H188.4C189.069 14.8034 189.669 14.6749 190.202 14.418C190.742 14.161 191.169 13.8013 191.484 13.3388C191.805 12.8698 191.966 12.3174 191.966 11.6814C191.966 10.8656 191.68 10.1815 191.108 9.62903C190.536 9.07659 189.66 8.80037 188.478 8.80037H184.411V14.8034ZM197.665 6.26619H201.047L206.202 15.237H206.414L211.569 6.26619H214.951L207.792 18.2529V26H204.824V18.2529L197.665 6.26619Z" fill="white"/>
<defs>
<linearGradient id="paint0_linear_1252_7" x1="-2.84294" y1="163.722" x2="27.9964" y2="178.945" gradientUnits="userSpaceOnUse">
<stop stop-color="#F37920"/>
<stop offset="1" stop-color="#C82D1C"/>
</linearGradient>
<linearGradient id="paint1_linear_1252_7" x1="22.4015" y1="142.776" x2="42.6312" y2="166.237" gradientUnits="userSpaceOnUse">
<stop stop-color="#F37920"/>
<stop offset="1" stop-color="#C82D1C"/>
</linearGradient>
<clipPath id="clip0_1252_7">
<rect width="219.379" height="79.943" fill="white" transform="translate(0 166)"/>
</clipPath>
</defs>
</svg>
