<?xml version="1.0" encoding="UTF-8"?>
<svg xmlns="http://www.w3.org/2000/svg" xmlns:xlink="http://www.w3.org/1999/xlink" width="390.89pt" height="185.28pt" viewBox="0 0 841.89 595.28" version="1.1">
<g id="surface1">
<path style=" stroke:none;fill-rule:nonzero;fill:rgb(13.729858%,12.159729%,12.548828%);fill-opacity:1;" d="M 142.800781 292.785156 L 181.714844 292.785156 L 181.714844 330.644531 C 172.449219 335.9375 160.667969 341.496094 141.871094 341.496094 C 117.914062 341.496094 99.382812 328.527344 99.382812 308.40625 L 99.382812 281.136719 C 99.382812 261.148438 119.105469 248.839844 142.269531 248.839844 C 156.566406 248.839844 170.199219 252.679688 178.671875 258.765625 L 173.90625 267.371094 C 166.492188 262.34375 155.109375 258.898438 142.800781 258.898438 C 125.589844 258.898438 110.898438 267.636719 110.898438 282.0625 L 110.898438 307.480469 C 110.898438 322.4375 124.929688 331.4375 141.871094 331.4375 C 154.976562 331.4375 163.050781 328.128906 170.199219 324.421875 L 170.199219 302.316406 L 142.800781 302.316406 Z M 142.800781 292.785156 "/>
<path style=" stroke:none;fill-rule:nonzero;fill:rgb(13.729858%,12.159729%,12.548828%);fill-opacity:1;" d="M 208.855469 293.050781 L 243.667969 293.050781 C 253.199219 292.65625 262.730469 288.023438 262.730469 278.359375 L 262.730469 275.046875 C 262.730469 266.179688 254.921875 260.222656 242.875 260.222656 L 208.855469 260.222656 Z M 252.671875 300.066406 L 276.230469 340.175781 L 263.523438 340.175781 L 241.417969 302.582031 L 208.855469 302.582031 L 208.855469 340.175781 L 197.339844 340.175781 L 197.339844 250.164062 L 243.535156 250.164062 C 262.199219 250.164062 274.378906 259.164062 274.378906 274.519531 L 274.378906 277.695312 C 274.378906 290.136719 265.246094 297.550781 252.671875 300.066406 "/>
<path style=" stroke:none;fill-rule:nonzero;fill:rgb(13.729858%,12.159729%,12.548828%);fill-opacity:1;" d="M 347.847656 304.035156 L 329.050781 261.679688 L 310.121094 304.035156 Z M 335.273438 249.105469 L 374.984375 340.175781 L 362.144531 340.175781 L 350.628906 313.699219 L 307.34375 313.699219 L 295.5625 340.175781 L 282.855469 340.175781 L 322.960938 249.105469 Z M 335.273438 249.105469 "/>
<path style=" stroke:none;fill-rule:nonzero;fill:rgb(13.729858%,12.159729%,12.548828%);fill-opacity:1;" d="M 449.113281 313.171875 C 449.113281 303.507812 439.582031 298.480469 427.140625 298.480469 L 396.5625 298.480469 L 396.5625 330.644531 L 428.332031 330.644531 C 440.640625 330.644531 449.113281 326.539062 449.113281 317.007812 Z M 396.5625 289.34375 L 426.609375 289.34375 C 437.730469 289.34375 445.804688 284.578125 445.804688 275.976562 L 445.804688 273.59375 C 445.804688 263.53125 438.921875 259.691406 425.023438 259.691406 L 396.5625 259.691406 Z M 441.171875 293.449219 C 452.953125 296.625 460.628906 303.640625 460.628906 313.964844 L 460.628906 317.9375 C 460.628906 332.363281 448.453125 340.175781 429.65625 340.175781 L 385.046875 340.175781 L 385.046875 250.164062 L 426.347656 250.164062 C 445.539062 250.164062 457.320312 258.5 457.320312 273.0625 L 457.320312 275.445312 C 457.320312 283.386719 450.835938 290.800781 441.171875 293.449219 "/>
<path style=" stroke:none;fill-rule:nonzero;fill:rgb(92.939758%,10.978699%,14.118958%);fill-opacity:1;" d="M 494.125 283.121094 L 494.125 306.949219 C 494.125 319.394531 503.785156 324.421875 517.023438 324.421875 C 527.085938 324.421875 536.085938 322.570312 542.96875 318.46875 L 549.585938 333.289062 C 540.058594 339.246094 531.1875 341.496094 515.832031 341.496094 C 491.742188 341.496094 473.871094 330.246094 473.871094 308.140625 L 473.871094 282.0625 C 473.871094 261.414062 493.195312 248.839844 515.699219 248.839844 C 530.921875 248.839844 540.71875 251.222656 550.515625 257.839844 L 543.234375 272.269531 C 536.085938 268.164062 528.011719 265.914062 516.890625 265.914062 C 504.714844 265.914062 494.125 272.003906 494.125 283.121094 "/>
<path style=" stroke:none;fill-rule:nonzero;fill:rgb(92.939758%,10.978699%,14.118958%);fill-opacity:1;" d="M 617.894531 305.097656 L 604.257812 269.355469 L 590.359375 305.097656 Z M 615.378906 249.367188 L 651.648438 340.175781 L 629.277344 340.175781 L 621.730469 320.449219 L 586.519531 320.449219 L 578.84375 340.175781 L 556.472656 340.175781 L 593.007812 249.367188 Z M 615.378906 249.367188 "/>
<path style=" stroke:none;fill-rule:nonzero;fill:rgb(92.939758%,10.978699%,14.118958%);fill-opacity:1;" d="M 726.042969 287.886719 C 726.042969 273.195312 716.910156 266.707031 705.261719 266.707031 L 682.890625 266.707031 L 682.890625 323.628906 L 703.804688 323.628906 C 715.71875 323.628906 726.042969 317.671875 726.042969 302.449219 Z M 704.410156 250.164062 C 728.238281 250.164062 745.183594 261.015625 745.183594 284.578125 L 745.183594 305.757812 C 745.183594 329.453125 726.519531 340.175781 702.957031 340.175781 L 662.1875 340.175781 L 662.1875 250.164062 Z M 704.410156 250.164062 "/>
</g>
</svg>
