<svg width="93" height="53" viewBox="0 0 93 53" fill="none" xmlns="http://www.w3.org/2000/svg">
<path d="M1.14706 14.0131V52.6397H6.47983V14.0131H1.14706ZM7.41667 4.35643C7.41667 2.33862 5.83125 0.753203 3.81344 0.753203C1.79564 0.753203 0.210217 2.33862 0.210217 4.35643C0.210217 6.30217 1.79564 7.95966 3.81344 7.95966C5.83125 7.95966 7.41667 6.30217 7.41667 4.35643ZM44.312 8.31998V19.7782C40.7088 15.9588 35.5922 13.5807 29.9712 13.5807C19.0894 13.5807 10.2255 22.3726 10.2255 33.2543C10.2255 44.1361 19.0894 53 29.9712 53C40.8529 53 49.6448 44.1361 49.6448 33.2543V8.31998H44.312ZM44.312 33.2543C44.312 41.1814 37.8983 47.6672 29.9712 47.6672C22.0441 47.6672 15.5583 41.1814 15.5583 33.2543C15.5583 25.3272 22.0441 18.9135 29.9712 18.9135C37.8983 18.9135 44.312 25.3272 44.312 33.2543ZM73.1114 47.6672C65.1843 47.6672 58.6985 41.1814 58.6985 33.2543C58.6985 25.3272 65.1843 18.9135 73.1114 18.9135C80.1016 18.9135 85.9389 23.958 87.236 30.5879H92.6409C91.3437 21.0033 83.0563 13.5807 73.1114 13.5807C62.2296 13.5807 53.3657 22.3726 53.3657 33.2543C53.3657 44.1361 62.2296 53 73.1114 53C83.0563 53 91.3437 45.5774 92.6409 35.9207H87.236C85.9389 42.6227 80.1016 47.6672 73.1114 47.6672Z" fill="#4C7685"/>
</svg>
