<svg width="970" height="628" viewBox="0 0 970 628" fill="none" xmlns="http://www.w3.org/2000/svg">
<path d="M194.378 392.781L181.054 284.815" stroke="#ACE1AF" stroke-width="3"/>
<path d="M655.12 165.456C662.101 161.117 669.484 157.459 677.168 154.534C729.763 134.432 798.306 141.854 845.829 171.006" stroke="#ACE1AF" stroke-width="3"/>
<path d="M25.0983 342.778L2.72339 228.383" stroke="#ACE1AF" stroke-width="3"/>
<path d="M261.03 491.208C324.257 530.663 424.113 538.069 501.855 503.171C563.321 475.924 595.904 430.657 598.4 386.498" stroke="#ACE1AF" stroke-width="3"/>
<path d="M605.2 271.761L598.399 386.547" stroke="#ACE1AF" stroke-width="3"/>
<path d="M547.762 264.746C546.702 297.886 520.984 331.742 472.549 351.6C395.508 383.666 292.848 364.475 254.425 312.844C215.693 261.149 249.957 201.249 321.567 175.369C393.551 149.586 480.474 163.161 524.572 208.753" stroke="#ACE1AF" stroke-width="3"/>
<path d="M270.081 329.138C283.715 312.747 303.53 298.846 328.4 289.226C396.128 263.427 477.93 276.628 520.348 321.325" stroke="#ACE1AF" stroke-width="3"/>
<path d="M397.074 74.3696L453.354 133.667" stroke="#ACE1AF" stroke-width="3"/>
<path d="M441.938 58.7112L397.074 74.3697" stroke="#ACE1AF" stroke-width="3"/>
<path d="M572.225 107.966C571.263 130.753 581.064 155.169 604.091 178.103C664.628 239.956 802.27 263.444 892.993 224.542C935.932 206.507 960.166 178.966 966.054 149.765" stroke="#ACE1AF" stroke-width="3"/>
<path d="M937.139 69.3889L895.912 85.4218" stroke="#ACE1AF" stroke-width="3"/>
<path d="M217.08 625.819L202.565 510.968" stroke="#ACE1AF" stroke-width="3"/>
<path d="M217.08 625.819L271.81 601.615" stroke="#ACE1AF" stroke-width="3"/>
<path d="M845.829 171.006L863.295 58.8088" stroke="#ACE1AF" stroke-width="3"/>
<path d="M79.0625 216.061L87.0372 265.055" stroke="#ACE1AF" stroke-width="3"/>
<path d="M524.588 208.753C540.75 225.778 548.447 245.181 547.779 264.746" stroke="#ACE1AF" stroke-width="3"/>
<path d="M271.81 601.566L260.59 486.585" stroke="#ACE1AF" stroke-width="3"/>
<path d="M966.102 149.765C971.598 122.696 961.536 94.3253 937.139 69.3889" stroke="#ACE1AF" stroke-width="3"/>
<path d="M605.2 271.761C606.831 243.195 595.578 214.987 571.622 190.636" stroke="#ACE1AF" stroke-width="3"/>
<path d="M76.1107 209.127C68.0381 197.863 46.1197 193.794 26.4357 200.614C6.75157 207.434 -2.54416 222.556 5.13704 234.194C13.1118 246.239 35.552 250.21 55.6927 243C75.8334 235.789 84.4768 220.782 76.1107 209.127Z" stroke="#ACE1AF" stroke-width="3"/>
<path d="M966.103 149.765L942.994 263.33" stroke="#ACE1AF" stroke-width="3"/>
<path d="M202.565 510.919L260.59 486.504" stroke="#ACE1AF" stroke-width="3"/>
<path d="M603.651 297.951C663.551 356.044 788.717 376.78 872.558 338.904C913.606 320.722 937.041 292.84 942.993 263.33" stroke="#ACE1AF" stroke-width="3"/>
<path d="M568.963 187.853L572.225 107.966" stroke="#ACE1AF" stroke-width="3"/>
<path d="M25.0984 342.778C25.5307 344.856 26.3553 346.834 27.5283 348.605C33.4319 357.867 47.245 362.424 61.9388 360.796" stroke="#ACE1AF" stroke-width="3"/>
<path d="M67.9404 394.36L47.1799 279.574" stroke="#ACE1AF" stroke-width="3"/>
<path d="M398.591 128.865L397.074 74.3696" stroke="#ACE1AF" stroke-width="3"/>
<path d="M67.9402 394.36L217.079 625.819" stroke="#ACE1AF" stroke-width="3"/>
<path d="M260.59 486.585L100.769 260.074" stroke="#ACE1AF" stroke-width="3"/>
<path d="M895.911 85.4219C927.647 123.038 915.791 169.753 857.946 193.583" stroke="#ACE1AF" stroke-width="3"/>
<path d="M571.621 190.636L441.938 58.7925" stroke="#ACE1AF" stroke-width="3"/>
<path d="M845.829 171.006L883.974 155.592" stroke="#ACE1AF" stroke-width="3"/>
<path d="M904.196 43.2318C835.799 1.0418 735.357 -9.83125 657.941 17.1886C605.086 36.0211 573.953 69.6332 572.208 107.9" stroke="#ACE1AF" stroke-width="3"/>
<path d="M857.946 193.599C792.501 220.83 694.667 204.602 649.689 160.556C631.75 143.368 624.232 124.747 625.341 107.282" stroke="#ACE1AF" stroke-width="3"/>
<path d="M181.054 284.815C183.06 301.092 189.486 317.565 201.048 333.419C227.027 369.309 275.365 394.962 331.237 405.265C387.11 415.569 450.532 410.539 503.763 388.028C568.588 360.78 602.738 315.628 605.2 271.761" stroke="#ACE1AF" stroke-width="3"/>
<path d="M625.341 107.282C627.118 80.3433 649.086 56.3347 686.774 42.6294C741.651 22.9017 813.294 30.1612 863.295 58.8088" stroke="#ACE1AF" stroke-width="3"/>
<path d="M47.1799 279.574L202.565 510.92" stroke="#ACE1AF" stroke-width="3"/>
<path d="M453.354 133.667C402.684 124.698 347.057 128.019 296.403 145.972C220.488 172.992 174.303 227.032 181.055 284.815" stroke="#ACE1AF" stroke-width="3"/>
<path d="M897.069 84.9985L904.196 43.2317" stroke="#ACE1AF" stroke-width="3"/>
<path d="M879.391 182.433L895.911 85.4219" stroke="#ACE1AF" stroke-width="3"/>
<path d="M863.295 58.8088L904.196 43.2317" stroke="#ACE1AF" stroke-width="3"/>
<path d="M100.704 260.074L47.1799 279.607" stroke="#ACE1AF" stroke-width="3"/>
<path d="M547.762 264.746L546.278 307.538" stroke="#ACE1AF" stroke-width="3"/>
<path d="M545.3 336.641L543.816 379.434" stroke="#ACE1AF" stroke-width="3"/>
<path d="M249.843 389.118C249.261 383.153 249.425 377.138 250.332 371.214" stroke="#ACE1AF" stroke-width="3"/>
<path d="M259.905 343.901C262.835 338.678 266.242 333.736 270.081 329.138" stroke="#ACE1AF" stroke-width="3"/>
<path d="M916.33 181.749L924.092 139.885" stroke="#ACE1AF" stroke-width="3"/>
<path d="M929.376 111.27L937.155 69.3889" stroke="#ACE1AF" stroke-width="3"/>
<path d="M195.21 399.568C195.816 404.405 196.77 409.192 198.064 413.892" stroke="#ACE1AF" stroke-width="3"/>
<path d="M209.496 440.635L214.535 448.464C218.323 453.884 222.504 459.02 227.044 463.83" stroke="#ACE1AF" stroke-width="3"/>
<path d="M248.881 483.053C252.784 485.907 256.834 488.62 261.03 491.192" stroke="#ACE1AF" stroke-width="3"/>
<path d="M912.285 137.704L904.62 180.024" stroke="#ACE1AF" stroke-width="3"/>
<path d="M899.45 208.737L891.802 251.057" stroke="#ACE1AF" stroke-width="3"/>
<path d="M61.8735 360.796C66.567 360.307 71.1772 359.213 75.5888 357.541C90.9838 351.681 99.3173 340.629 97.6539 330.407" stroke="#ACE1AF" stroke-width="3"/>
<path d="M87.0374 265.055L90.0054 283.334" stroke="#ACE1AF" stroke-width="3"/>
<path d="M94.6694 312.079L97.6538 330.358" stroke="#ACE1AF" stroke-width="3"/>
<path d="M271.81 601.566L252.24 572.626" stroke="#ACE1AF" stroke-width="3"/>
<path d="M235.965 548.487L219.656 524.348" stroke="#ACE1AF" stroke-width="3"/>
<path d="M203.364 500.209L187.056 476.054" stroke="#ACE1AF" stroke-width="3"/>
<path d="M170.748 451.915L154.439 427.76" stroke="#ACE1AF" stroke-width="3"/>
<path d="M138.147 403.621L118.577 374.729" stroke="#ACE1AF" stroke-width="3"/>
<path d="M618.182 220.261C618.612 213.671 620.167 207.202 622.781 201.135" stroke="#ACE1AF" stroke-width="3"/>
<path d="M639.48 177.533C644.275 172.995 649.514 168.949 655.12 165.456" stroke="#ACE1AF" stroke-width="3"/>
<path d="M118.643 374.729L67.9402 394.36" stroke="#ACE1AF" stroke-width="3"/>
<path d="M618.182 220.261L620.84 178.299" stroke="#ACE1AF" stroke-width="3"/>
<path d="M622.683 149.26L625.341 107.282" stroke="#ACE1AF" stroke-width="3"/>
<path d="M942.994 263.33C944.994 253.495 945.104 243.37 943.32 233.494" stroke="#ACE1AF" stroke-width="3"/>
<path d="M933.682 206.148C928.914 197.328 923.075 189.127 916.297 181.733" stroke="#ACE1AF" stroke-width="3"/>
<path d="M876.733 198.075C889.78 215.02 894.982 233.51 891.802 251.106" stroke="#ACE1AF" stroke-width="3"/>
<path d="M118.643 374.73L111.924 331.791" stroke="#ACE1AF" stroke-width="3"/>
<path d="M107.439 303.029L100.72 260.074" stroke="#ACE1AF" stroke-width="3"/>
<path d="M97.6539 330.358C97.2283 327.829 96.2421 325.427 94.7673 323.327" stroke="#ACE1AF" stroke-width="3"/>
<path d="M839.452 307.668C828.971 312.144 818.035 315.473 806.835 317.597" stroke="#ACE1AF" stroke-width="3"/>
<path d="M777.97 320.95C768.249 321.351 758.512 321.085 748.827 320.153" stroke="#ACE1AF" stroke-width="3"/>
<path d="M720.059 315.432C710.586 313.233 701.288 310.344 692.237 306.789" stroke="#ACE1AF" stroke-width="3"/>
<path d="M666.128 293.881C657.81 288.847 650.081 282.902 643.084 276.156" stroke="#ACE1AF" stroke-width="3"/>
<path d="M625.537 253.075C620.122 243.021 617.578 231.676 618.182 220.277" stroke="#ACE1AF" stroke-width="3"/>
<path d="M916.33 181.749L876.766 198.026" stroke="#ACE1AF" stroke-width="3"/>
<path d="M885.083 155.136C877.42 150.021 869.434 145.404 861.175 141.317" stroke="#ACE1AF" stroke-width="3"/>
<path d="M834.331 129.988C825.167 126.737 815.836 123.972 806.379 121.703" stroke="#ACE1AF" stroke-width="3"/>
<path d="M777.709 116.348C768.071 115.03 758.368 114.183 748.664 113.809" stroke="#ACE1AF" stroke-width="3"/>
<path d="M719.521 114.167C709.816 114.775 700.152 115.922 690.574 117.601" stroke="#ACE1AF" stroke-width="3"/>
<path d="M662.246 124.487L649.787 128.767C644.655 130.699 639.763 132.782 635.109 135.018" stroke="#ACE1AF" stroke-width="3"/>
<path d="M609.995 149.732C602.105 155.414 594.927 162.021 588.615 169.411" stroke="#ACE1AF" stroke-width="3"/>
<path d="M573.432 194.136C569.914 202.661 567.91 211.733 567.512 220.944" stroke="#ACE1AF" stroke-width="3"/>
<path d="M94.7674 323.327C89.875 316.051 79.4866 311.77 67.8262 311.396" stroke="#ACE1AF" stroke-width="3"/>
<path d="M39.8411 318.265C29.0124 324.564 23.4023 334.053 25.1636 342.778" stroke="#ACE1AF" stroke-width="3"/>
<path d="M567.512 220.944C567.121 230.735 568.496 240.515 571.573 249.82" stroke="#ACE1AF" stroke-width="3"/>
<path d="M584.538 275.765C588.496 281.527 592.902 286.97 597.715 292.042L603.651 297.983" stroke="#ACE1AF" stroke-width="3"/>
<path d="M885.083 155.136L888.606 134.416" stroke="#ACE1AF" stroke-width="3"/>
<path d="M893.498 105.719L897.037 84.9985" stroke="#ACE1AF" stroke-width="3"/>
<path d="M249.843 389.119L245.635 346.245" stroke="#ACE1AF" stroke-width="3"/>
<path d="M242.798 317.288L238.59 274.365" stroke="#ACE1AF" stroke-width="3"/>
<path d="M521.849 323.066C525.528 327.162 528.846 331.568 531.764 336.235" stroke="#ACE1AF" stroke-width="3"/>
<path d="M542.527 363.026C543.581 368.429 544.014 373.933 543.816 379.434" stroke="#ACE1AF" stroke-width="3"/>
<path d="M453.99 247.02C440.687 244.51 427.219 242.971 413.692 242.414" stroke="#ACE1AF" stroke-width="3"/>
<path d="M384.549 242.658C374.839 243.241 365.166 244.327 355.569 245.913" stroke="#ACE1AF" stroke-width="3"/>
<path d="M327.095 252.066C319.398 254.236 311.787 256.71 304.264 259.488L299.371 261.376" stroke="#ACE1AF" stroke-width="3"/>
<path d="M273.147 273.91C264.65 278.636 256.512 283.978 248.799 289.894" stroke="#ACE1AF" stroke-width="3"/>
<path d="M227.337 309.524C220.756 316.669 214.94 324.481 209.985 332.833" stroke="#ACE1AF" stroke-width="3"/>
<path d="M198.472 359.543C194.697 372.552 193.588 386.187 195.21 399.633" stroke="#ACE1AF" stroke-width="3"/>
<path d="M883.974 155.592L885.083 155.136" stroke="#ACE1AF" stroke-width="3"/>
<path d="M400.189 186.811L398.558 128.865" stroke="#ACE1AF" stroke-width="3"/>
<path d="M891.867 251.105C890.274 259.518 886.942 267.506 882.082 274.561" stroke="#ACE1AF" stroke-width="3"/>
<path d="M861.729 295.167C854.775 300.121 847.306 304.312 839.452 307.668" stroke="#ACE1AF" stroke-width="3"/>
<path d="M443.047 170.909L442.639 129.37" stroke="#ACE1AF" stroke-width="3"/>
<path d="M442.362 100.266L441.938 58.7112" stroke="#ACE1AF" stroke-width="3"/>
<path d="M566.696 304.673L554.286 291.277" stroke="#ACE1AF" stroke-width="3"/>
<path d="M534.536 269.889L514.754 248.485" stroke="#ACE1AF" stroke-width="3"/>
<path d="M494.973 227.032L475.207 205.628" stroke="#ACE1AF" stroke-width="3"/>
<path d="M455.425 184.288L443.047 170.909" stroke="#ACE1AF" stroke-width="3"/>
<path d="M520.348 321.325L521.848 322.952" stroke="#ACE1AF" stroke-width="3"/>
<path d="M543.816 379.434C543.362 390.426 540.583 401.199 535.662 411.044" stroke="#ACE1AF" stroke-width="3"/>
<path d="M519.125 434.792C512.444 441.856 504.963 448.122 496.832 453.461" stroke="#ACE1AF" stroke-width="3"/>
<path d="M471.114 467.199C462.131 470.997 452.861 474.078 443.39 476.412" stroke="#ACE1AF" stroke-width="3"/>
<path d="M414.736 481.377C405.059 482.335 395.327 482.629 385.609 482.256" stroke="#ACE1AF" stroke-width="3"/>
<path d="M356.629 479.082C347.055 477.34 337.629 474.87 328.432 471.692" stroke="#ACE1AF" stroke-width="3"/>
<path d="M301.866 459.793C293.413 455.019 285.534 449.295 278.382 442.735" stroke="#ACE1AF" stroke-width="3"/>
<path d="M260.101 420.11C254.491 410.658 250.992 400.109 249.843 389.184" stroke="#ACE1AF" stroke-width="3"/>
<path d="M453.99 247.02L453.745 204.911" stroke="#ACE1AF" stroke-width="3"/>
<path d="M453.582 175.808L453.354 133.667" stroke="#ACE1AF" stroke-width="3"/>
<path d="M567.512 220.944L568.898 187.853" stroke="#ACE1AF" stroke-width="3"/>
<path d="M195.21 399.568L194.378 392.716" stroke="#ACE1AF" stroke-width="3"/>
<path d="M400.189 186.811L417.378 206.051" stroke="#ACE1AF" stroke-width="3"/>
<path d="M436.866 227.781L454.055 247.02" stroke="#ACE1AF" stroke-width="3"/>
<path d="M598.4 386.547C599.005 376.364 598.048 366.149 595.562 356.255" stroke="#ACE1AF" stroke-width="3"/>
<path d="M584.749 329.268C579.708 320.399 573.649 312.145 566.696 304.673" stroke="#ACE1AF" stroke-width="3"/>
<path d="M876.733 198.075L879.391 182.433" stroke="#ACE1AF" stroke-width="3"/>
<path d="M443.047 170.909L400.189 186.811" stroke="#ACE1AF" stroke-width="3"/>
</svg>
