<svg width="702" height="364" viewBox="0 0 702 364" fill="none" xmlns="http://www.w3.org/2000/svg">
<path d="M39.1606 66.9075C39.1606 65.7107 38.1904 64.7405 36.9936 64.7405H7.06258C5.86574 64.7405 4.89551 65.7107 4.89551 66.9075V241.615C4.89551 241.963 4.97935 242.306 5.13993 242.614L20.1054 271.394C20.9147 272.95 23.1414 272.95 23.9507 271.394L38.9162 242.614C39.0768 242.306 39.1606 241.963 39.1606 241.615V66.9075Z" fill="#ACE1AF"/>
<ellipse rx="22.0276" ry="22.8091" transform="matrix(-1 0 0 1 22.0276 23.0488)" fill="white"/>
<path d="M21.6963 276.872C21.8228 277.16 22.2314 277.16 22.3578 276.872L27.9237 264.193C28.0285 263.954 27.8537 263.686 27.593 263.686H16.4614C16.2008 263.686 16.0259 263.954 16.1307 264.193L21.6963 276.872Z" fill="white"/>
<path d="M73.1118 23.7781V83.5891H82.7336V23.7781H73.1118ZM84.4239 9.34539C84.4239 5.83474 81.5634 2.84419 77.9227 2.84419C74.282 2.84419 71.4215 5.83474 71.4215 9.34539C71.4215 12.9861 74.282 15.8466 77.9227 15.8466C81.5634 15.8466 84.4239 12.9861 84.4239 9.34539ZM89.4918 48.6127C89.4918 68.2463 105.355 84.2393 124.988 84.2393V74.6175C110.686 74.4875 99.1136 62.9153 99.1136 48.6127V3.75436H89.4918V48.6127ZM131.775 48.6127C131.775 68.2463 147.638 84.2393 167.272 84.2393V74.6175C152.969 74.4875 141.397 62.9153 141.397 48.6127V3.75436H131.775V48.6127ZM174.058 23.7781V83.5891H183.68V23.7781H174.058ZM185.37 9.34539C185.37 5.83474 182.51 2.84419 178.869 2.84419C175.228 2.84419 172.368 5.83474 172.368 9.34539C172.368 12.9861 175.228 15.8466 178.869 15.8466C182.51 15.8466 185.37 12.9861 185.37 9.34539ZM261.431 48.8727C261.431 29.2391 245.568 13.2461 225.935 13.2461C206.301 13.2461 190.438 28.979 190.438 48.6127V83.5891H200.06V48.8727C200.06 34.5701 211.632 22.8679 225.935 22.8679C240.237 22.8679 251.81 34.5701 251.81 48.8727V83.5891H261.431V48.8727ZM303.648 13.1161C284.014 13.1161 268.021 28.979 268.021 48.6127C268.021 68.2463 284.014 84.2393 303.648 84.2393C323.281 84.2393 339.144 68.2463 339.144 48.6127C339.144 28.979 323.281 13.1161 303.648 13.1161ZM303.648 74.6175C289.345 74.6175 277.643 62.9153 277.643 48.6127C277.643 34.31 289.345 22.7379 303.648 22.7379C317.95 22.7379 329.522 34.31 329.522 48.6127C329.522 62.9153 317.95 74.6175 303.648 74.6175ZM345.858 23.7781V83.5891H355.479V23.7781H345.858ZM357.17 9.34539C357.17 5.83474 354.309 2.84419 350.668 2.84419C347.028 2.84419 344.167 5.83474 344.167 9.34539C344.167 12.9861 347.028 15.8466 350.668 15.8466C354.309 15.8466 357.17 12.9861 357.17 9.34539ZM387.202 13.7662C384.342 25.0783 374.33 33.2698 362.238 33.2698V43.0216C376.02 42.8916 387.982 34.9601 393.833 23.518H423.479V48.6127C423.479 62.9153 411.777 74.6175 397.474 74.6175C384.862 74.6175 374.2 65.5158 371.989 53.4236H362.238C364.578 70.8468 379.531 84.2393 397.474 84.2393C417.108 84.2393 433.101 68.2463 433.101 48.6127V13.7662H387.202ZM134.613 100.624V121.298C128.112 114.407 118.88 110.116 108.738 110.116C89.1048 110.116 73.1118 125.979 73.1118 145.613C73.1118 165.246 89.1048 181.239 108.738 181.239C128.372 181.239 144.235 165.246 144.235 145.613V100.624H134.613ZM134.613 145.613C134.613 159.915 123.041 171.617 108.738 171.617C94.4358 171.617 82.7336 159.915 82.7336 145.613C82.7336 131.31 94.4358 119.738 108.738 119.738C123.041 119.738 134.613 131.31 134.613 145.613ZM219.731 132.87C214.66 119.478 201.658 110.116 186.575 110.116C166.941 110.116 150.948 125.979 150.948 145.613C150.948 165.246 166.941 181.239 186.575 181.239C204.518 181.239 219.471 167.847 221.812 150.424H212.06C209.719 162.516 199.187 171.617 186.575 171.617C184.885 171.617 183.194 171.357 181.504 171.097L219.731 132.87ZM160.57 145.613C160.57 131.31 172.272 119.738 186.575 119.738C195.417 119.738 203.348 124.289 208.029 131.05L172.012 167.067C165.121 162.386 160.57 154.584 160.57 145.613ZM253.496 110.766C250.635 122.078 240.623 130.27 228.531 130.27V140.022C242.314 139.892 254.276 131.96 260.127 120.518H289.773V145.613C289.773 159.915 278.07 171.617 263.768 171.617C251.155 171.617 240.493 162.516 238.283 150.424H228.531C230.872 167.847 245.824 181.239 263.768 181.239C283.401 181.239 299.394 165.246 299.394 145.613V110.766H253.496ZM306.114 120.778V180.589H315.736V120.778H306.114ZM317.426 106.345C317.426 102.835 314.565 99.8442 310.925 99.8442C307.284 99.8442 304.424 102.835 304.424 106.345C304.424 109.986 307.284 112.847 310.925 112.847C314.565 112.847 317.426 109.986 317.426 106.345ZM358.251 150.424H383.605C381.265 162.516 370.733 171.617 358.121 171.617C343.818 171.617 332.116 159.915 332.116 145.613C332.116 131.31 343.818 119.738 358.121 119.738C367.092 119.738 375.024 124.289 379.705 131.18H390.627C385.035 118.698 372.553 110.116 358.121 110.116C338.487 110.116 322.494 125.979 322.494 145.613C322.494 165.246 338.487 181.239 358.121 181.239C377.754 181.239 393.617 165.246 393.617 145.613C393.617 144.052 393.487 142.362 393.357 140.802H358.251V150.424ZM471.324 145.873C471.324 126.239 455.461 110.246 435.827 110.246C416.194 110.246 400.331 125.979 400.331 145.613V180.589H409.952V145.873C409.952 131.57 421.524 119.868 435.827 119.868C450.13 119.868 461.702 131.57 461.702 145.873V180.589H471.324V145.873ZM108.738 268.617C94.4358 268.617 82.7336 256.915 82.7336 242.613C82.7336 228.31 94.4358 216.738 108.738 216.738C121.351 216.738 131.883 225.84 134.223 237.802H143.975C141.634 220.509 126.682 207.116 108.738 207.116C89.1048 207.116 73.1118 222.979 73.1118 242.613C73.1118 262.246 89.1048 278.239 108.738 278.239C126.682 278.239 141.634 264.847 143.975 247.424H134.223C131.883 259.516 121.351 268.617 108.738 268.617ZM160.316 243.263C160.316 228.96 171.888 217.258 186.191 217.258C200.624 217.258 212.196 228.96 212.196 243.263V277.589H221.818V243.263C221.818 223.629 205.955 207.636 186.191 207.636C176.049 207.636 166.818 211.927 160.316 218.818V197.624H150.695V277.589H160.316V243.263ZM299.654 242.613C299.654 222.979 283.791 207.116 264.158 207.116C244.524 207.116 228.531 222.979 228.531 242.613C228.531 262.246 244.524 278.239 264.158 278.239C274.3 278.239 283.531 273.948 290.033 267.057V277.589H299.654V242.613ZM264.158 268.617C249.855 268.617 238.153 256.915 238.153 242.613C238.153 228.31 249.855 216.738 264.158 216.738C278.46 216.738 290.033 228.31 290.033 242.613C290.033 256.915 278.46 268.617 264.158 268.617ZM306.368 242.613C306.368 262.246 322.231 278.239 341.864 278.239V268.617C327.562 268.487 315.99 256.915 315.99 242.613V197.754H306.368V242.613ZM348.651 242.613C348.651 262.246 364.514 278.239 384.148 278.239V268.617C369.845 268.487 358.273 256.915 358.273 242.613V197.754H348.651V242.613ZM459.717 229.87C454.646 216.478 441.644 207.116 426.561 207.116C406.927 207.116 390.934 222.979 390.934 242.613C390.934 262.246 406.927 278.239 426.561 278.239C444.504 278.239 459.457 264.847 461.797 247.424H452.046C449.705 259.516 439.173 268.617 426.561 268.617C424.871 268.617 423.18 268.357 421.49 268.097L459.717 229.87ZM400.556 242.613C400.556 228.31 412.258 216.738 426.561 216.738C435.403 216.738 443.334 221.289 448.015 228.05L411.998 264.067C405.107 259.386 400.556 251.584 400.556 242.613ZM539.51 242.873C539.51 223.239 523.647 207.246 504.014 207.246C484.38 207.246 468.517 222.979 468.517 242.613V277.589H478.139V242.873C478.139 228.57 489.711 216.868 504.014 216.868C518.316 216.868 529.888 228.57 529.888 242.873V277.589H539.51V242.873ZM581.856 247.424H607.211C604.871 259.516 594.339 268.617 581.726 268.617C567.424 268.617 555.722 256.915 555.722 242.613C555.722 228.31 567.424 216.738 581.726 216.738C590.698 216.738 598.629 221.289 603.31 228.18H614.232C608.641 215.698 596.159 207.116 581.726 207.116C562.093 207.116 546.1 222.979 546.1 242.613C546.1 262.246 562.093 278.239 581.726 278.239C601.36 278.239 617.223 262.246 617.223 242.613C617.223 241.052 617.093 239.362 616.963 237.802H581.856V247.424ZM692.719 229.87C687.648 216.478 674.646 207.116 659.563 207.116C639.929 207.116 623.936 222.979 623.936 242.613C623.936 262.246 639.929 278.239 659.563 278.239C677.506 278.239 692.459 264.847 694.8 247.424H685.048C682.707 259.516 672.175 268.617 659.563 268.617C657.873 268.617 656.182 268.357 654.492 268.097L692.719 229.87ZM633.558 242.613C633.558 228.31 645.26 216.738 659.563 216.738C668.405 216.738 676.336 221.289 681.017 228.05L645 264.067C638.109 259.386 633.558 251.584 633.558 242.613Z" fill="#ACE1AF"/>
<path d="M7.35435 324.889V320.779H31.8435V324.889H21.9706V352.422H17.2118V324.889H7.35435ZM41.504 338.331V352.422H36.8843V320.779H41.4422V332.552H41.7358C42.292 331.275 43.1418 330.261 44.2851 329.509C45.4285 328.757 46.922 328.381 48.7658 328.381C50.3932 328.381 51.8147 328.716 53.0301 329.385C54.2559 330.055 55.2035 331.054 55.8731 332.382C56.5529 333.701 56.8928 335.349 56.8928 337.327V352.422H52.2731V337.883C52.2731 336.142 51.825 334.793 50.9289 333.835C50.0327 332.867 48.7864 332.382 47.1898 332.382C46.098 332.382 45.1194 332.614 44.2542 333.078C43.3993 333.541 42.7246 334.221 42.2302 335.117C41.7461 336.003 41.504 337.074 41.504 338.331ZM73.2859 352.901C70.9477 352.901 68.9339 352.401 67.2447 351.402C65.5657 350.393 64.2679 348.976 63.3511 347.153C62.4447 345.32 61.9915 343.172 61.9915 340.71C61.9915 338.279 62.4447 336.137 63.3511 334.283C64.2679 332.429 65.5451 330.982 67.1829 329.941C68.8309 328.901 70.7571 328.381 72.9614 328.381C74.3004 328.381 75.5983 328.602 76.8549 329.045C78.1116 329.488 79.2395 330.183 80.2386 331.131C81.2378 332.079 82.0257 333.309 82.6026 334.824C83.1794 336.328 83.4678 338.156 83.4678 340.309V341.946H64.6026V338.485H78.9408C78.9408 337.27 78.6936 336.194 78.1991 335.256C77.7047 334.309 77.0095 333.562 76.1133 333.016C75.2275 332.47 74.1871 332.197 72.9923 332.197C71.6944 332.197 70.5614 332.516 69.5932 333.155C68.6352 333.783 67.8936 334.607 67.3683 335.627C66.8533 336.637 66.5958 337.734 66.5958 338.918V341.622C66.5958 343.208 66.8739 344.558 67.4301 345.67C67.9966 346.782 68.7846 347.632 69.794 348.219C70.8035 348.796 71.9829 349.085 73.3322 349.085C74.2077 349.085 75.006 348.961 75.7271 348.714C76.4481 348.456 77.0713 348.075 77.5966 347.57C78.1219 347.066 78.5236 346.442 78.8017 345.701L83.1742 346.489C82.824 347.776 82.1957 348.904 81.2893 349.873C80.3931 350.83 79.2652 351.577 77.9056 352.113C76.5562 352.638 75.0163 352.901 73.2859 352.901ZM100.479 320.779H106.273L116.347 345.376H116.717L126.791 320.779H132.585V352.422H128.043V329.524H127.749L118.417 352.376H114.647L105.315 329.509H105.021V352.422H100.479V320.779ZM139.156 352.422V328.69H143.775V352.422H139.156ZM141.489 325.028C140.685 325.028 139.995 324.76 139.418 324.225C138.852 323.679 138.568 323.03 138.568 322.278C138.568 321.516 138.852 320.867 139.418 320.331C139.995 319.785 140.685 319.512 141.489 319.512C142.292 319.512 142.977 319.785 143.544 320.331C144.12 320.867 144.409 321.516 144.409 322.278C144.409 323.03 144.12 323.679 143.544 324.225C142.977 324.76 142.292 325.028 141.489 325.028ZM158.874 352.885C156.959 352.885 155.249 352.396 153.745 351.418C152.251 350.429 151.077 349.023 150.222 347.2C149.377 345.366 148.955 343.167 148.955 340.602C148.955 338.037 149.383 335.843 150.237 334.02C151.103 332.197 152.287 330.801 153.791 329.833C155.295 328.865 157 328.381 158.905 328.381C160.378 328.381 161.563 328.628 162.459 329.122C163.365 329.607 164.066 330.173 164.56 330.822C165.065 331.471 165.456 332.043 165.734 332.537H166.013V320.779H170.632V352.422H166.121V348.729H165.734C165.456 349.234 165.055 349.811 164.529 350.46C164.014 351.109 163.304 351.675 162.397 352.159C161.491 352.643 160.316 352.885 158.874 352.885ZM159.894 348.945C161.223 348.945 162.346 348.595 163.262 347.895C164.189 347.184 164.89 346.2 165.364 344.944C165.848 343.687 166.09 342.224 166.09 340.556C166.09 338.908 165.853 337.466 165.379 336.23C164.905 334.994 164.21 334.031 163.293 333.34C162.377 332.65 161.243 332.305 159.894 332.305C158.504 332.305 157.345 332.666 156.418 333.387C155.491 334.108 154.79 335.091 154.316 336.338C153.853 337.584 153.621 338.99 153.621 340.556C153.621 342.142 153.858 343.569 154.332 344.836C154.806 346.103 155.506 347.107 156.433 347.849C157.371 348.58 158.524 348.945 159.894 348.945ZM182.371 352.422L175.387 328.69H180.161L184.812 346.118H185.044L189.71 328.69H194.484L199.119 346.041H199.351L203.971 328.69H208.745L201.777 352.422H197.064L192.244 335.287H191.888L187.068 352.422H182.371ZM222.635 352.901C220.297 352.901 218.283 352.401 216.594 351.402C214.915 350.393 213.617 348.976 212.7 347.153C211.794 345.32 211.341 343.172 211.341 340.71C211.341 338.279 211.794 336.137 212.7 334.283C213.617 332.429 214.894 330.982 216.532 329.941C218.18 328.901 220.106 328.381 222.311 328.381C223.65 328.381 224.948 328.602 226.204 329.045C227.461 329.488 228.589 330.183 229.588 331.131C230.587 332.079 231.375 333.309 231.952 334.824C232.529 336.328 232.817 338.156 232.817 340.309V341.946H213.952V338.485H228.29C228.29 337.27 228.043 336.194 227.548 335.256C227.054 334.309 226.359 333.562 225.463 333.016C224.577 332.47 223.536 332.197 222.342 332.197C221.044 332.197 219.911 332.516 218.942 333.155C217.984 333.783 217.243 334.607 216.718 335.627C216.203 336.637 215.945 337.734 215.945 338.918V341.622C215.945 343.208 216.223 344.558 216.779 345.67C217.346 346.782 218.134 347.632 219.143 348.219C220.153 348.796 221.332 349.085 222.681 349.085C223.557 349.085 224.355 348.961 225.076 348.714C225.797 348.456 226.42 348.075 226.946 347.57C227.471 347.066 227.873 346.442 228.151 345.701L232.523 346.489C232.173 347.776 231.545 348.904 230.638 349.873C229.742 350.83 228.614 351.577 227.255 352.113C225.905 352.638 224.366 352.901 222.635 352.901ZM255.726 334.484L251.539 335.225C251.364 334.69 251.086 334.18 250.705 333.696C250.334 333.212 249.829 332.815 249.191 332.506C248.552 332.197 247.754 332.043 246.796 332.043C245.488 332.043 244.396 332.336 243.52 332.923C242.645 333.5 242.207 334.247 242.207 335.164C242.207 335.957 242.501 336.595 243.088 337.079C243.675 337.564 244.623 337.96 245.931 338.269L249.701 339.134C251.884 339.639 253.512 340.417 254.583 341.467C255.654 342.518 256.19 343.883 256.19 345.562C256.19 346.983 255.778 348.25 254.954 349.363C254.14 350.465 253.002 351.33 251.539 351.958C250.087 352.587 248.403 352.901 246.487 352.901C243.829 352.901 241.661 352.334 239.982 351.201C238.303 350.058 237.273 348.436 236.892 346.334L241.357 345.655C241.635 346.818 242.207 347.699 243.072 348.297C243.938 348.884 245.065 349.177 246.456 349.177C247.97 349.177 249.18 348.863 250.087 348.235C250.993 347.596 251.447 346.818 251.447 345.902C251.447 345.16 251.168 344.537 250.612 344.032C250.066 343.527 249.227 343.146 248.094 342.889L244.077 342.008C241.862 341.503 240.224 340.7 239.163 339.598C238.113 338.496 237.587 337.1 237.587 335.411C237.587 334.01 237.979 332.784 238.762 331.734C239.544 330.683 240.626 329.864 242.006 329.277C243.387 328.679 244.968 328.381 246.75 328.381C249.314 328.381 251.333 328.937 252.806 330.049C254.279 331.152 255.253 332.63 255.726 334.484ZM272.347 328.69V332.398H259.384V328.69H272.347ZM262.861 323.004H267.48V345.454C267.48 346.35 267.614 347.024 267.882 347.478C268.15 347.921 268.495 348.224 268.917 348.389C269.35 348.544 269.819 348.621 270.323 348.621C270.694 348.621 271.019 348.595 271.297 348.544C271.575 348.492 271.791 348.451 271.946 348.42L272.78 352.236C272.512 352.339 272.131 352.442 271.637 352.545C271.142 352.659 270.524 352.721 269.783 352.731C268.567 352.751 267.434 352.535 266.383 352.082C265.333 351.629 264.483 350.928 263.834 349.981C263.185 349.033 262.861 347.843 262.861 346.412V323.004ZM282.618 320.779V323.746C282.618 324.621 282.453 325.543 282.124 326.511C281.804 327.469 281.351 328.391 280.764 329.277C280.177 330.163 279.487 330.925 278.694 331.564L276.407 329.926C277.015 329.04 277.54 328.098 277.983 327.098C278.436 326.099 278.663 324.997 278.663 323.792V320.779H282.618ZM301.87 334.484L297.682 335.225C297.507 334.69 297.229 334.18 296.848 333.696C296.477 333.212 295.973 332.815 295.334 332.506C294.695 332.197 293.897 332.043 292.939 332.043C291.631 332.043 290.539 332.336 289.664 332.923C288.788 333.5 288.35 334.247 288.35 335.164C288.35 335.957 288.644 336.595 289.231 337.079C289.818 337.564 290.766 337.96 292.074 338.269L295.844 339.134C298.028 339.639 299.655 340.417 300.726 341.467C301.797 342.518 302.333 343.883 302.333 345.562C302.333 346.983 301.921 348.25 301.097 349.363C300.283 350.465 299.145 351.33 297.682 351.958C296.23 352.587 294.546 352.901 292.63 352.901C289.973 352.901 287.804 352.334 286.125 351.201C284.446 350.058 283.416 348.436 283.035 346.334L287.501 345.655C287.779 346.818 288.35 347.699 289.216 348.297C290.081 348.884 291.209 349.177 292.599 349.177C294.113 349.177 295.324 348.863 296.23 348.235C297.137 347.596 297.59 346.818 297.59 345.902C297.59 345.16 297.312 344.537 296.755 344.032C296.21 343.527 295.37 343.146 294.237 342.889L290.22 342.008C288.005 341.503 286.367 340.7 285.307 339.598C284.256 338.496 283.731 337.1 283.731 335.411C283.731 334.01 284.122 332.784 284.905 331.734C285.688 330.683 286.769 329.864 288.149 329.277C289.53 328.679 291.111 328.381 292.893 328.381C295.458 328.381 297.476 328.937 298.949 330.049C300.422 331.152 301.396 332.63 301.87 334.484ZM319.298 352.422V320.779H330.577C333.039 320.779 335.078 321.227 336.695 322.123C338.312 323.019 339.523 324.245 340.326 325.801C341.13 327.346 341.531 329.086 341.531 331.023C341.531 332.97 341.124 334.721 340.311 336.276C339.507 337.821 338.292 339.047 336.664 339.953C335.047 340.849 333.013 341.297 330.561 341.297H322.805V337.249H330.129C331.684 337.249 332.946 336.982 333.914 336.446C334.882 335.9 335.593 335.158 336.046 334.221C336.499 333.284 336.726 332.218 336.726 331.023C336.726 329.828 336.499 328.767 336.046 327.84C335.593 326.913 334.877 326.187 333.899 325.661C332.93 325.136 331.653 324.873 330.067 324.873H324.072V352.422H319.298ZM346.757 352.422V328.69H351.223V332.46H351.47C351.902 331.182 352.665 330.178 353.756 329.447C354.859 328.705 356.105 328.334 357.496 328.334C357.784 328.334 358.124 328.345 358.515 328.365C358.917 328.386 359.231 328.412 359.458 328.443V332.861C359.272 332.81 358.943 332.753 358.469 332.691C357.995 332.619 357.521 332.583 357.047 332.583C355.956 332.583 354.982 332.815 354.127 333.279C353.283 333.732 352.613 334.365 352.119 335.179C351.624 335.982 351.377 336.899 351.377 337.929V352.422H346.757ZM372.834 352.901C370.496 352.901 368.482 352.401 366.793 351.402C365.114 350.393 363.816 348.976 362.899 347.153C361.993 345.32 361.54 343.172 361.54 340.71C361.54 338.279 361.993 336.137 362.899 334.283C363.816 332.429 365.093 330.982 366.731 329.941C368.379 328.901 370.305 328.381 372.51 328.381C373.849 328.381 375.147 328.602 376.403 329.045C377.66 329.488 378.788 330.183 379.787 331.131C380.786 332.079 381.574 333.309 382.151 334.824C382.728 336.328 383.016 338.156 383.016 340.309V341.946H364.151V338.485H378.489C378.489 337.27 378.242 336.194 377.747 335.256C377.253 334.309 376.558 333.562 375.662 333.016C374.776 332.47 373.735 332.197 372.541 332.197C371.243 332.197 370.11 332.516 369.141 333.155C368.183 333.783 367.442 334.607 366.917 335.627C366.402 336.637 366.144 337.734 366.144 338.918V341.622C366.144 343.208 366.422 344.558 366.978 345.67C367.545 346.782 368.333 347.632 369.342 348.219C370.352 348.796 371.531 349.085 372.88 349.085C373.756 349.085 374.554 348.961 375.275 348.714C375.996 348.456 376.619 348.075 377.145 347.57C377.67 347.066 378.072 346.442 378.35 345.701L382.722 346.489C382.372 347.776 381.744 348.904 380.838 349.873C379.941 350.83 378.813 351.577 377.454 352.113C376.104 352.638 374.565 352.901 372.834 352.901ZM388.142 352.422V328.69H392.576V332.552H392.87C393.364 331.244 394.173 330.225 395.295 329.493C396.418 328.752 397.762 328.381 399.328 328.381C400.914 328.381 402.243 328.752 403.314 329.493C404.396 330.235 405.194 331.255 405.709 332.552H405.956C406.523 331.285 407.424 330.276 408.66 329.524C409.896 328.762 411.369 328.381 413.079 328.381C415.232 328.381 416.988 329.055 418.348 330.405C419.718 331.754 420.403 333.788 420.403 336.508V352.422H415.783V336.94C415.783 335.334 415.345 334.17 414.47 333.449C413.594 332.728 412.549 332.367 411.333 332.367C409.829 332.367 408.66 332.831 407.826 333.758C406.991 334.674 406.574 335.854 406.574 337.296V352.422H401.97V336.647C401.97 335.359 401.568 334.324 400.765 333.541C399.961 332.758 398.916 332.367 397.628 332.367C396.753 332.367 395.944 332.599 395.203 333.062C394.471 333.516 393.879 334.149 393.426 334.963C392.983 335.776 392.761 336.719 392.761 337.79V352.422H388.142ZM426.594 352.422V328.69H431.214V352.422H426.594ZM428.927 325.028C428.124 325.028 427.434 324.76 426.857 324.225C426.291 323.679 426.007 323.03 426.007 322.278C426.007 321.516 426.291 320.867 426.857 320.331C427.434 319.785 428.124 319.512 428.927 319.512C429.731 319.512 430.416 319.785 430.982 320.331C431.559 320.867 431.848 321.516 431.848 322.278C431.848 323.03 431.559 323.679 430.982 324.225C430.416 324.76 429.731 325.028 428.927 325.028ZM447.657 352.901C445.319 352.901 443.306 352.401 441.616 351.402C439.937 350.393 438.639 348.976 437.723 347.153C436.816 345.32 436.363 343.172 436.363 340.71C436.363 338.279 436.816 336.137 437.723 334.283C438.639 332.429 439.917 330.982 441.554 329.941C443.203 328.901 445.129 328.381 447.333 328.381C448.672 328.381 449.97 328.602 451.227 329.045C452.483 329.488 453.611 330.183 454.61 331.131C455.609 332.079 456.397 333.309 456.974 334.824C457.551 336.328 457.839 338.156 457.839 340.309V341.946H438.974V338.485H453.312C453.312 337.27 453.065 336.194 452.571 335.256C452.076 334.309 451.381 333.562 450.485 333.016C449.599 332.47 448.559 332.197 447.364 332.197C446.066 332.197 444.933 332.516 443.965 333.155C443.007 333.783 442.265 334.607 441.74 335.627C441.225 336.637 440.967 337.734 440.967 338.918V341.622C440.967 343.208 441.245 344.558 441.802 345.67C442.368 346.782 443.156 347.632 444.166 348.219C445.175 348.796 446.354 349.085 447.704 349.085C448.579 349.085 449.378 348.961 450.099 348.714C450.82 348.456 451.443 348.075 451.968 347.57C452.493 347.066 452.895 346.442 453.173 345.701L457.546 346.489C457.196 347.776 456.567 348.904 455.661 349.873C454.765 350.83 453.637 351.577 452.277 352.113C450.928 352.638 449.388 352.901 447.657 352.901ZM462.965 352.422V328.69H467.43V332.46H467.678C468.11 331.182 468.872 330.178 469.964 329.447C471.066 328.705 472.313 328.334 473.703 328.334C473.992 328.334 474.332 328.345 474.723 328.365C475.125 328.386 475.439 328.412 475.665 328.443V332.861C475.48 332.81 475.15 332.753 474.677 332.691C474.203 332.619 473.729 332.583 473.255 332.583C472.163 332.583 471.19 332.815 470.335 333.279C469.49 333.732 468.821 334.365 468.326 335.179C467.832 335.982 467.585 336.899 467.585 337.929V352.422H462.965ZM517.83 331.069H513.01C512.824 330.039 512.479 329.133 511.974 328.35C511.47 327.567 510.852 326.903 510.12 326.357C509.389 325.811 508.57 325.399 507.664 325.121C506.768 324.843 505.815 324.704 504.805 324.704C502.982 324.704 501.35 325.162 499.907 326.079C498.476 326.995 497.343 328.34 496.508 330.111C495.684 331.883 495.272 334.046 495.272 336.6C495.272 339.176 495.684 341.349 496.508 343.121C497.343 344.892 498.481 346.231 499.923 347.138C501.365 348.044 502.987 348.497 504.79 348.497C505.789 348.497 506.737 348.364 507.633 348.096C508.539 347.818 509.358 347.411 510.089 346.875C510.821 346.339 511.439 345.685 511.943 344.913C512.458 344.13 512.814 343.234 513.01 342.224L517.83 342.24C517.573 343.795 517.073 345.227 516.331 346.535C515.6 347.833 514.658 348.956 513.504 349.903C512.361 350.841 511.052 351.567 509.58 352.082C508.107 352.597 506.5 352.854 504.759 352.854C502.019 352.854 499.578 352.206 497.435 350.908C495.293 349.6 493.604 347.73 492.368 345.299C491.142 342.868 490.529 339.969 490.529 336.6C490.529 333.222 491.147 330.322 492.383 327.902C493.619 325.471 495.308 323.607 497.451 322.309C499.593 321.001 502.029 320.346 504.759 320.346C506.438 320.346 508.004 320.589 509.456 321.073C510.919 321.546 512.232 322.247 513.396 323.174C514.56 324.091 515.523 325.213 516.285 326.542C517.047 327.861 517.562 329.37 517.83 331.069ZM526.003 352.422H520.936L532.323 320.779H537.839L549.226 352.422H544.158L535.212 326.527H534.965L526.003 352.422ZM526.853 340.031H543.293V344.048H526.853V340.031ZM564.039 352.422H553.795V320.779H564.363C567.464 320.779 570.126 321.413 572.351 322.679C574.576 323.936 576.281 325.744 577.466 328.103C578.66 330.451 579.258 333.268 579.258 336.554C579.258 339.85 578.655 342.683 577.45 345.052C576.255 347.421 574.525 349.244 572.259 350.521C569.993 351.788 567.253 352.422 564.039 352.422ZM558.569 348.25H563.776C566.187 348.25 568.19 347.797 569.787 346.891C571.383 345.974 572.578 344.65 573.371 342.92C574.164 341.179 574.561 339.057 574.561 336.554C574.561 334.072 574.164 331.965 573.371 330.235C572.588 328.504 571.419 327.191 569.864 326.295C568.308 325.399 566.377 324.951 564.07 324.951H558.569V348.25ZM591.73 352.947C590.226 352.947 588.867 352.669 587.651 352.113C586.436 351.546 585.473 350.727 584.762 349.656C584.062 348.585 583.711 347.272 583.711 345.716C583.711 344.377 583.969 343.275 584.484 342.41C584.999 341.545 585.694 340.86 586.57 340.355C587.445 339.85 588.424 339.469 589.505 339.212C590.587 338.954 591.689 338.758 592.812 338.625C594.233 338.46 595.387 338.326 596.273 338.223C597.159 338.109 597.802 337.929 598.204 337.682C598.606 337.435 598.807 337.033 598.807 336.477V336.369C598.807 335.019 598.425 333.974 597.663 333.232C596.911 332.491 595.789 332.12 594.295 332.12C592.74 332.12 591.514 332.465 590.618 333.155C589.732 333.835 589.119 334.592 588.779 335.426L584.438 334.437C584.953 332.995 585.705 331.831 586.693 330.946C587.692 330.049 588.841 329.401 590.139 328.999C591.437 328.587 592.801 328.381 594.233 328.381C595.181 328.381 596.185 328.494 597.246 328.721C598.317 328.937 599.316 329.339 600.244 329.926C601.181 330.513 601.948 331.352 602.546 332.444C603.143 333.526 603.442 334.932 603.442 336.662V352.422H598.93V349.177H598.745C598.446 349.775 597.998 350.362 597.401 350.939C596.803 351.515 596.036 351.994 595.098 352.376C594.161 352.757 593.038 352.947 591.73 352.947ZM592.735 349.239C594.012 349.239 595.104 348.987 596.01 348.482C596.927 347.977 597.622 347.318 598.096 346.504C598.58 345.68 598.822 344.8 598.822 343.862V340.803C598.657 340.968 598.338 341.122 597.864 341.267C597.401 341.4 596.87 341.519 596.273 341.622C595.675 341.715 595.093 341.802 594.527 341.885C593.96 341.957 593.486 342.018 593.105 342.07C592.209 342.183 591.39 342.374 590.649 342.642C589.917 342.909 589.33 343.296 588.887 343.8C588.455 344.295 588.238 344.954 588.238 345.778C588.238 346.921 588.661 347.787 589.505 348.374C590.35 348.951 591.426 349.239 592.735 349.239ZM620.673 328.69V332.398H607.71V328.69H620.673ZM611.186 323.004H615.806V345.454C615.806 346.35 615.94 347.024 616.208 347.478C616.476 347.921 616.821 348.224 617.243 348.389C617.676 348.544 618.144 348.621 618.649 348.621C619.02 348.621 619.344 348.595 619.622 348.544C619.901 348.492 620.117 348.451 620.271 348.42L621.106 352.236C620.838 352.339 620.457 352.442 619.962 352.545C619.468 352.659 618.85 352.721 618.108 352.731C616.893 352.751 615.76 352.535 614.709 352.082C613.659 351.629 612.809 350.928 612.16 349.981C611.511 349.033 611.186 347.843 611.186 346.412V323.004ZM630.913 338.331V352.422H626.293V320.779H630.851V332.552H631.145C631.701 331.275 632.551 330.261 633.694 329.509C634.837 328.757 636.331 328.381 638.175 328.381C639.802 328.381 641.224 328.716 642.439 329.385C643.665 330.055 644.612 331.054 645.282 332.382C645.962 333.701 646.302 335.349 646.302 337.327V352.422H641.682V337.883C641.682 336.142 641.234 334.793 640.338 333.835C639.442 332.867 638.195 332.382 636.599 332.382C635.507 332.382 634.528 332.614 633.663 333.078C632.808 333.541 632.134 334.221 631.639 335.117C631.155 336.003 630.913 337.074 630.913 338.331ZM662.463 352.901C660.238 352.901 658.297 352.391 656.638 351.371C654.98 350.351 653.692 348.925 652.776 347.091C651.859 345.258 651.4 343.115 651.4 340.664C651.4 338.202 651.859 336.049 652.776 334.206C653.692 332.362 654.98 330.93 656.638 329.91C658.297 328.891 660.238 328.381 662.463 328.381C664.688 328.381 666.63 328.891 668.288 329.91C669.946 330.93 671.234 332.362 672.151 334.206C673.067 336.049 673.526 338.202 673.526 340.664C673.526 343.115 673.067 345.258 672.151 347.091C671.234 348.925 669.946 350.351 668.288 351.371C666.63 352.391 664.688 352.901 662.463 352.901ZM662.479 349.023C663.921 349.023 665.115 348.642 666.063 347.879C667.011 347.117 667.711 346.103 668.164 344.836C668.628 343.569 668.86 342.173 668.86 340.649C668.86 339.134 668.628 337.744 668.164 336.477C667.711 335.2 667.011 334.175 666.063 333.402C665.115 332.63 663.921 332.243 662.479 332.243C661.026 332.243 659.821 332.63 658.863 333.402C657.915 334.175 657.21 335.2 656.746 336.477C656.293 337.744 656.067 339.134 656.067 340.649C656.067 342.173 656.293 343.569 656.746 344.836C657.21 346.103 657.915 347.117 658.863 347.879C659.821 348.642 661.026 349.023 662.479 349.023ZM683.302 338.331V352.422H678.682V328.69H683.117V332.552H683.41C683.956 331.296 684.811 330.286 685.975 329.524C687.149 328.762 688.627 328.381 690.409 328.381C692.026 328.381 693.443 328.721 694.658 329.401C695.874 330.07 696.816 331.069 697.486 332.398C698.155 333.727 698.49 335.37 698.49 337.327V352.422H693.87V337.883C693.87 336.163 693.422 334.819 692.526 333.85C691.63 332.872 690.399 332.382 688.833 332.382C687.762 332.382 686.809 332.614 685.975 333.078C685.151 333.541 684.497 334.221 684.013 335.117C683.539 336.003 683.302 337.074 683.302 338.331Z" fill="white"/>
</svg>
