<svg width="238" height="119" viewBox="0 0 702 351" fill="none" xmlns="http://www.w3.org/2000/svg">
<path d="M73.1123 23.7781V83.5891H82.7341V23.7781H73.1123ZM84.4244 9.34539C84.4244 5.83474 81.5639 2.84419 77.9232 2.84419C74.2825 2.84419 71.422 5.83474 71.422 9.34539C71.422 12.9861 74.2825 15.8466 77.9232 15.8466C81.5639 15.8466 84.4244 12.9861 84.4244 9.34539ZM89.4923 48.6127C89.4923 68.2463 105.355 84.2393 124.989 84.2393V74.6175C110.686 74.4875 99.1141 62.9153 99.1141 48.6127V3.75436H89.4923V48.6127ZM131.776 48.6127C131.776 68.2463 147.638 84.2393 167.272 84.2393V74.6175C152.969 74.4875 141.397 62.9153 141.397 48.6127V3.75436H131.776V48.6127ZM174.059 23.7781V83.5891H183.68V23.7781H174.059ZM185.371 9.34539C185.371 5.83474 182.51 2.84419 178.87 2.84419C175.229 2.84419 172.368 5.83474 172.368 9.34539C172.368 12.9861 175.229 15.8466 178.87 15.8466C182.51 15.8466 185.371 12.9861 185.371 9.34539ZM261.432 48.8727C261.432 29.2391 245.569 13.2461 225.935 13.2461C206.302 13.2461 190.439 28.979 190.439 48.6127V83.5891H200.06V48.8727C200.06 34.5701 211.633 22.8679 225.935 22.8679C240.238 22.8679 251.81 34.5701 251.81 48.8727V83.5891H261.432V48.8727ZM303.648 13.1161C284.014 13.1161 268.021 28.979 268.021 48.6127C268.021 68.2463 284.014 84.2393 303.648 84.2393C323.282 84.2393 339.145 68.2463 339.145 48.6127C339.145 28.979 323.282 13.1161 303.648 13.1161ZM303.648 74.6175C289.345 74.6175 277.643 62.9153 277.643 48.6127C277.643 34.31 289.345 22.7379 303.648 22.7379C317.951 22.7379 329.523 34.31 329.523 48.6127C329.523 62.9153 317.951 74.6175 303.648 74.6175ZM345.858 23.7781V83.5891H355.48V23.7781H345.858ZM357.17 9.34539C357.17 5.83474 354.31 2.84419 350.669 2.84419C347.028 2.84419 344.168 5.83474 344.168 9.34539C344.168 12.9861 347.028 15.8466 350.669 15.8466C354.31 15.8466 357.17 12.9861 357.17 9.34539ZM387.203 13.7662C384.342 25.0783 374.33 33.2698 362.238 33.2698V43.0216C376.021 42.8916 387.983 34.9601 393.834 23.518H423.479V48.6127C423.479 62.9153 411.777 74.6175 397.475 74.6175C384.862 74.6175 374.2 65.5158 371.99 53.4236H362.238C364.579 70.8468 379.531 84.2393 397.475 84.2393C417.108 84.2393 433.101 68.2463 433.101 48.6127V13.7662H387.203ZM134.614 100.624V121.298C128.112 114.407 118.881 110.116 108.739 110.116C89.1053 110.116 73.1123 125.979 73.1123 145.613C73.1123 165.246 89.1053 181.239 108.739 181.239C128.373 181.239 144.235 165.246 144.235 145.613V100.624H134.614ZM134.614 145.613C134.614 159.915 123.042 171.617 108.739 171.617C94.4363 171.617 82.7341 159.915 82.7341 145.613C82.7341 131.31 94.4363 119.738 108.739 119.738C123.042 119.738 134.614 131.31 134.614 145.613ZM219.732 132.87C214.661 119.478 201.658 110.116 186.576 110.116C166.942 110.116 150.949 125.979 150.949 145.613C150.949 165.246 166.942 181.239 186.576 181.239C204.519 181.239 219.472 167.847 221.812 150.424H212.06C209.72 162.516 199.188 171.617 186.576 171.617C184.885 171.617 183.195 171.357 181.505 171.097L219.732 132.87ZM160.571 145.613C160.571 131.31 172.273 119.738 186.576 119.738C195.417 119.738 203.349 124.289 208.03 131.05L172.013 167.067C165.122 162.386 160.571 154.584 160.571 145.613ZM253.496 110.766C250.636 122.078 240.624 130.27 228.532 130.27V140.022C242.314 139.892 254.276 131.96 260.128 120.518H289.773V145.613C289.773 159.915 278.071 171.617 263.768 171.617C251.156 171.617 240.494 162.516 238.283 150.424H228.532C230.872 167.847 245.825 181.239 263.768 181.239C283.402 181.239 299.395 165.246 299.395 145.613V110.766H253.496ZM306.114 120.778V180.589H315.736V120.778H306.114ZM317.427 106.345C317.427 102.835 314.566 99.8442 310.925 99.8442C307.285 99.8442 304.424 102.835 304.424 106.345C304.424 109.986 307.285 112.847 310.925 112.847C314.566 112.847 317.427 109.986 317.427 106.345ZM358.251 150.424H383.606C381.265 162.516 370.733 171.617 358.121 171.617C343.818 171.617 332.116 159.915 332.116 145.613C332.116 131.31 343.818 119.738 358.121 119.738C367.093 119.738 375.024 124.289 379.705 131.18H390.627C385.036 118.698 372.554 110.116 358.121 110.116C338.487 110.116 322.494 125.979 322.494 145.613C322.494 165.246 338.487 181.239 358.121 181.239C377.755 181.239 393.618 165.246 393.618 145.613C393.618 144.052 393.488 142.362 393.358 140.802H358.251V150.424ZM471.324 145.873C471.324 126.239 455.461 110.246 435.828 110.246C416.194 110.246 400.331 125.979 400.331 145.613V180.589H409.953V145.873C409.953 131.57 421.525 119.868 435.828 119.868C450.13 119.868 461.702 131.57 461.702 145.873V180.589H471.324V145.873ZM108.739 268.617C94.4363 268.617 82.7341 256.915 82.7341 242.613C82.7341 228.31 94.4363 216.738 108.739 216.738C121.351 216.738 131.883 225.84 134.224 237.802H143.975C141.635 220.509 126.682 207.116 108.739 207.116C89.1053 207.116 73.1123 222.979 73.1123 242.613C73.1123 262.246 89.1053 278.239 108.739 278.239C126.682 278.239 141.635 264.847 143.975 247.424H134.224C131.883 259.516 121.351 268.617 108.739 268.617ZM160.317 243.263C160.317 228.96 171.889 217.258 186.192 217.258C200.624 217.258 212.196 228.96 212.196 243.263V277.589H221.818V243.263C221.818 223.629 205.955 207.636 186.192 207.636C176.05 207.636 166.818 211.927 160.317 218.818V197.624H150.695V277.589H160.317V243.263ZM299.655 242.613C299.655 222.979 283.792 207.116 264.158 207.116C244.525 207.116 228.532 222.979 228.532 242.613C228.532 262.246 244.525 278.239 264.158 278.239C274.3 278.239 283.532 273.948 290.033 267.057V277.589H299.655V242.613ZM264.158 268.617C249.856 268.617 238.153 256.915 238.153 242.613C238.153 228.31 249.856 216.738 264.158 216.738C278.461 216.738 290.033 228.31 290.033 242.613C290.033 256.915 278.461 268.617 264.158 268.617ZM306.368 242.613C306.368 262.246 322.231 278.239 341.865 278.239V268.617C327.562 268.487 315.99 256.915 315.99 242.613V197.754H306.368V242.613ZM348.652 242.613C348.652 262.246 364.515 278.239 384.148 278.239V268.617C369.846 268.487 358.273 256.915 358.273 242.613V197.754H348.652V242.613ZM459.718 229.87C454.647 216.478 441.644 207.116 426.561 207.116C406.928 207.116 390.935 222.979 390.935 242.613C390.935 262.246 406.928 278.239 426.561 278.239C444.505 278.239 459.457 264.847 461.798 247.424H452.046C449.706 259.516 439.174 268.617 426.561 268.617C424.871 268.617 423.181 268.357 421.49 268.097L459.718 229.87ZM400.557 242.613C400.557 228.31 412.259 216.738 426.561 216.738C435.403 216.738 443.334 221.289 448.015 228.05L411.999 264.067C405.107 259.386 400.557 251.584 400.557 242.613ZM539.511 242.873C539.511 223.239 523.648 207.246 504.014 207.246C484.38 207.246 468.518 222.979 468.518 242.613V277.589H478.139V242.873C478.139 228.57 489.711 216.868 504.014 216.868C518.317 216.868 529.889 228.57 529.889 242.873V277.589H539.511V242.873ZM581.857 247.424H607.212C604.871 259.516 594.339 268.617 581.727 268.617C567.424 268.617 555.722 256.915 555.722 242.613C555.722 228.31 567.424 216.738 581.727 216.738C590.698 216.738 598.63 221.289 603.311 228.18H614.233C608.642 215.698 596.159 207.116 581.727 207.116C562.093 207.116 546.1 222.979 546.1 242.613C546.1 262.246 562.093 278.239 581.727 278.239C601.36 278.239 617.223 262.246 617.223 242.613C617.223 241.052 617.093 239.362 616.963 237.802H581.857V247.424ZM692.72 229.87C687.649 216.478 674.646 207.116 659.563 207.116C639.93 207.116 623.937 222.979 623.937 242.613C623.937 262.246 639.93 278.239 659.563 278.239C677.507 278.239 692.46 264.847 694.8 247.424H685.048C682.708 259.516 672.176 268.617 659.563 268.617C657.873 268.617 656.183 268.357 654.493 268.097L692.72 229.87ZM633.559 242.613C633.559 228.31 645.261 216.738 659.563 216.738C668.405 216.738 676.337 221.289 681.017 228.05L645.001 264.067C638.11 259.386 633.559 251.584 633.559 242.613Z" fill="#ACE1AF"/>
<path d="M39.1602 68.8545C39.1602 66.9215 37.5932 65.3545 35.6602 65.3545H8.39502C6.46202 65.3545 4.89502 66.9215 4.89502 68.8545V241.903C4.89502 242.465 5.03042 243.019 5.28978 243.518L18.9223 269.733C20.2295 272.247 23.8257 272.247 25.1328 269.733L38.7654 243.518C39.0248 243.019 39.1602 242.465 39.1602 241.903V68.8545Z" fill="#ACE1AF"/>
<ellipse rx="22.0276" ry="22.8091" transform="matrix(-1 0 0 1 22.0271 23.6626)" fill="#317DEE"/>
<path d="M7.11177 326.375V322.786H28.5003V326.375H19.8774V350.422H15.7211V326.375H7.11177ZM33.2267 350.422V322.786H37.3964V334.795H51.1741V322.786H55.3573V350.422H51.1741V338.371H37.3964V350.422H33.2267ZM61.4298 350.422V322.786H78.7565V326.375H65.5995V334.795H77.8524V338.371H65.5995V346.832H78.9184V350.422H61.4298ZM94.3829 322.786H99.4433L108.242 344.268H108.565L117.364 322.786H122.424V350.422H118.457V330.423H118.2L110.05 350.381H106.757L98.6066 330.41H98.3502V350.422H94.3829V322.786ZM132.656 322.786V350.422H128.486V322.786H132.656ZM147.675 350.422H138.729V322.786H147.959C150.667 322.786 152.992 323.339 154.935 324.445C156.878 325.543 158.367 327.122 159.402 329.182C160.445 331.233 160.967 333.693 160.967 336.563C160.967 339.442 160.441 341.916 159.388 343.985C158.345 346.054 156.833 347.647 154.854 348.762C152.875 349.869 150.482 350.422 147.675 350.422ZM142.898 346.778H147.446C149.551 346.778 151.301 346.383 152.695 345.591C154.09 344.79 155.133 343.634 155.826 342.123C156.519 340.603 156.865 338.749 156.865 336.563C156.865 334.395 156.519 332.555 155.826 331.044C155.142 329.533 154.121 328.386 152.763 327.603C151.404 326.82 149.717 326.429 147.702 326.429H142.898V346.778ZM171.23 350.422L163.565 322.786H167.951L173.335 344.188H173.591L179.191 322.786H183.536L189.137 344.201H189.393L194.764 322.786H199.163L191.485 350.422H187.288L181.472 329.722H181.256L175.44 350.422H171.23ZM202.965 350.422V322.786H220.292V326.375H207.135V334.795H219.388V338.371H207.135V346.832H220.454V350.422H202.965ZM240.935 330.045C240.791 328.768 240.197 327.778 239.153 327.077C238.11 326.366 236.796 326.011 235.213 326.011C234.079 326.011 233.099 326.191 232.271 326.55C231.444 326.901 230.8 327.387 230.342 328.008C229.892 328.62 229.667 329.317 229.667 330.099C229.667 330.756 229.82 331.323 230.126 331.8C230.44 332.277 230.85 332.677 231.354 333.001C231.866 333.316 232.415 333.581 233 333.797C233.585 334.004 234.147 334.175 234.687 334.31L237.386 335.011C238.267 335.227 239.171 335.52 240.098 335.888C241.025 336.257 241.884 336.743 242.675 337.346C243.467 337.949 244.106 338.695 244.592 339.586C245.086 340.477 245.334 341.543 245.334 342.784C245.334 344.349 244.929 345.739 244.119 346.954C243.319 348.168 242.154 349.126 240.624 349.828C239.104 350.53 237.264 350.881 235.105 350.881C233.036 350.881 231.246 350.552 229.734 349.896C228.223 349.239 227.04 348.308 226.185 347.102C225.331 345.888 224.858 344.448 224.768 342.784H228.952C229.033 343.783 229.356 344.615 229.923 345.281C230.499 345.937 231.232 346.428 232.123 346.751C233.022 347.066 234.007 347.224 235.078 347.224C236.257 347.224 237.305 347.039 238.222 346.67C239.149 346.293 239.878 345.771 240.408 345.105C240.939 344.43 241.204 343.643 241.204 342.744C241.204 341.925 240.971 341.255 240.503 340.733C240.044 340.211 239.419 339.779 238.627 339.438C237.844 339.096 236.958 338.794 235.969 338.533L232.703 337.643C230.49 337.04 228.736 336.154 227.44 334.984C226.154 333.815 225.511 332.268 225.511 330.342C225.511 328.75 225.942 327.36 226.806 326.173C227.67 324.985 228.839 324.063 230.315 323.406C231.79 322.741 233.454 322.408 235.307 322.408C237.179 322.408 238.829 322.736 240.26 323.393C241.699 324.049 242.833 324.954 243.66 326.105C244.488 327.248 244.92 328.561 244.956 330.045H240.935ZM248.954 326.375V322.786H270.342V326.375H261.719V350.422H257.563V326.375H248.954ZM278.213 322.786V325.376C278.213 326.141 278.069 326.946 277.781 327.792C277.502 328.629 277.106 329.434 276.593 330.207C276.081 330.981 275.478 331.647 274.785 332.205L272.788 330.774C273.319 330 273.777 329.177 274.164 328.305C274.56 327.432 274.758 326.469 274.758 325.417V322.786H278.213ZM297.712 330.045C297.568 328.768 296.974 327.778 295.931 327.077C294.887 326.366 293.574 326.011 291.99 326.011C290.857 326.011 289.876 326.191 289.049 326.55C288.221 326.901 287.578 327.387 287.119 328.008C286.669 328.62 286.444 329.317 286.444 330.099C286.444 330.756 286.597 331.323 286.903 331.8C287.218 332.277 287.627 332.677 288.131 333.001C288.644 333.316 289.193 333.581 289.777 333.797C290.362 334.004 290.924 334.175 291.464 334.31L294.163 335.011C295.045 335.227 295.949 335.52 296.875 335.888C297.802 336.257 298.661 336.743 299.453 337.346C300.244 337.949 300.883 338.695 301.369 339.586C301.864 340.477 302.111 341.543 302.111 342.784C302.111 344.349 301.706 345.739 300.897 346.954C300.096 348.168 298.931 349.126 297.402 349.828C295.881 350.53 294.041 350.881 291.882 350.881C289.813 350.881 288.023 350.552 286.512 349.896C285 349.239 283.817 348.308 282.963 347.102C282.108 345.888 281.636 344.448 281.546 342.784H285.729C285.81 343.783 286.134 344.615 286.701 345.281C287.276 345.937 288.009 346.428 288.9 346.751C289.8 347.066 290.785 347.224 291.855 347.224C293.034 347.224 294.082 347.039 295 346.67C295.926 346.293 296.655 345.771 297.186 345.105C297.716 344.43 297.982 343.643 297.982 342.744C297.982 341.925 297.748 341.255 297.28 340.733C296.821 340.211 296.196 339.779 295.404 339.438C294.622 339.096 293.736 338.794 292.746 338.533L289.48 337.643C287.267 337.04 285.513 336.154 284.218 334.984C282.931 333.815 282.288 332.268 282.288 330.342C282.288 328.75 282.72 327.36 283.583 326.173C284.447 324.985 285.617 324.063 287.092 323.406C288.567 322.741 290.232 322.408 292.085 322.408C293.956 322.408 295.607 322.736 297.037 323.393C298.477 324.049 299.61 324.954 300.438 326.105C301.265 327.248 301.697 328.561 301.733 330.045H297.712ZM317.15 350.422V322.786H327.001C329.151 322.786 330.933 323.177 332.345 323.96C333.757 324.742 334.815 325.813 335.516 327.171C336.218 328.521 336.569 330.041 336.569 331.732C336.569 333.433 336.213 334.962 335.503 336.32C334.801 337.67 333.739 338.74 332.318 339.532C330.906 340.315 329.129 340.706 326.988 340.706H320.214V337.17H326.61C327.968 337.17 329.07 336.937 329.916 336.469C330.762 335.992 331.382 335.344 331.778 334.526C332.174 333.707 332.372 332.776 332.372 331.732C332.372 330.689 332.174 329.762 331.778 328.952C331.382 328.143 330.757 327.509 329.903 327.05C329.057 326.591 327.941 326.362 326.556 326.362H321.32V350.422H317.15ZM341.457 350.422V322.786H351.308C353.449 322.786 355.226 323.154 356.638 323.892C358.06 324.63 359.121 325.651 359.823 326.955C360.525 328.251 360.875 329.749 360.875 331.449C360.875 333.14 360.52 334.629 359.809 335.915C359.108 337.193 358.046 338.187 356.625 338.898C355.212 339.608 353.436 339.964 351.294 339.964H343.832V336.374H350.917C352.266 336.374 353.364 336.181 354.209 335.794C355.064 335.407 355.689 334.845 356.085 334.107C356.481 333.37 356.679 332.483 356.679 331.449C356.679 330.405 356.476 329.501 356.071 328.737C355.676 327.972 355.05 327.387 354.196 326.982C353.35 326.568 352.239 326.362 350.863 326.362H345.627V350.422H341.457ZM355.1 337.953L361.928 350.422H357.178L350.485 337.953H355.1ZM365.949 350.422V322.786H383.276V326.375H370.119V334.795H382.372V338.371H370.119V346.832H383.438V350.422H365.949ZM388.846 322.786H393.906L402.704 344.268H403.028L411.827 322.786H416.887V350.422H412.92V330.423H412.663L404.513 350.381H401.22L393.07 330.41H392.813V350.422H388.846V322.786ZM427.119 322.786V350.422H422.949V322.786H427.119ZM433.191 350.422V322.786H450.518V326.375H437.361V334.795H449.614V338.371H437.361V346.832H450.68V350.422H433.191ZM456.088 350.422V322.786H465.939C468.08 322.786 469.857 323.154 471.269 323.892C472.69 324.63 473.752 325.651 474.454 326.955C475.155 328.251 475.506 329.749 475.506 331.449C475.506 333.14 475.151 334.629 474.44 335.915C473.739 337.193 472.677 338.187 471.256 338.898C469.843 339.608 468.066 339.964 465.925 339.964H458.463V336.374H465.547C466.897 336.374 467.994 336.181 468.84 335.794C469.695 335.407 470.32 334.845 470.716 334.107C471.112 333.37 471.31 332.483 471.31 331.449C471.31 330.405 471.107 329.501 470.702 328.737C470.306 327.972 469.681 327.387 468.827 326.982C467.981 326.568 466.87 326.362 465.494 326.362H460.258V350.422H456.088ZM469.731 337.953L476.559 350.422H471.809L465.116 337.953H469.731ZM513.591 331.773H509.38C509.218 330.873 508.917 330.081 508.476 329.398C508.035 328.714 507.496 328.134 506.857 327.657C506.218 327.18 505.503 326.82 504.711 326.577C503.929 326.335 503.097 326.213 502.215 326.213C500.623 326.213 499.197 326.613 497.937 327.414C496.687 328.215 495.697 329.389 494.968 330.936C494.249 332.483 493.889 334.373 493.889 336.604C493.889 338.853 494.249 340.751 494.968 342.298C495.697 343.846 496.691 345.015 497.951 345.807C499.21 346.598 500.627 346.994 502.201 346.994C503.074 346.994 503.902 346.877 504.684 346.643C505.476 346.401 506.191 346.045 506.83 345.577C507.469 345.11 508.008 344.538 508.449 343.864C508.899 343.18 509.209 342.397 509.38 341.516L513.591 341.529C513.366 342.888 512.929 344.138 512.282 345.281C511.643 346.414 510.82 347.395 509.812 348.222C508.814 349.041 507.671 349.675 506.385 350.125C505.098 350.575 503.695 350.8 502.174 350.8C499.781 350.8 497.649 350.233 495.778 349.099C493.907 347.957 492.432 346.324 491.352 344.201C490.281 342.078 489.746 339.545 489.746 336.604C489.746 333.653 490.286 331.121 491.366 329.006C492.445 326.883 493.92 325.255 495.792 324.121C497.663 322.979 499.79 322.408 502.174 322.408C503.641 322.408 505.008 322.619 506.277 323.042C507.554 323.456 508.701 324.067 509.718 324.877C510.734 325.678 511.575 326.658 512.241 327.819C512.907 328.97 513.357 330.288 513.591 331.773ZM520.729 350.422H516.303L526.248 322.786H531.066L541.011 350.422H536.585L528.772 327.805H528.556L520.729 350.422ZM521.471 339.599H535.829V343.108H521.471V339.599ZM553.949 350.422H545.002V322.786H554.232C556.94 322.786 559.266 323.339 561.209 324.445C563.152 325.543 564.641 327.122 565.675 329.182C566.719 331.233 567.241 333.693 567.241 336.563C567.241 339.442 566.714 341.916 565.662 343.985C564.618 346.054 563.107 347.647 561.128 348.762C559.149 349.869 556.756 350.422 553.949 350.422ZM549.172 346.778H553.719C555.824 346.778 557.574 346.383 558.969 345.591C560.363 344.79 561.407 343.634 562.099 342.123C562.792 340.603 563.138 338.749 563.138 336.563C563.138 334.395 562.792 332.555 562.099 331.044C561.416 329.533 560.395 328.386 559.036 327.603C557.678 326.82 555.991 326.429 553.976 326.429H549.172V346.778ZM573.387 350.422H568.961L578.907 322.786H583.724L593.669 350.422H589.243L581.43 327.805H581.214L573.387 350.422ZM574.13 339.599H588.487V343.108H574.13V339.599ZM593.032 326.375V322.786H614.42V326.375H605.797V350.422H601.641V326.375H593.032ZM619.147 350.422V322.786H623.316V334.795H637.094V322.786H641.277V350.422H637.094V338.371H623.316V350.422H619.147ZM671.356 336.604C671.356 339.554 670.816 342.091 669.737 344.214C668.657 346.329 667.177 347.957 665.297 349.099C663.426 350.233 661.298 350.8 658.914 350.8C656.521 350.8 654.385 350.233 652.505 349.099C650.633 347.957 649.158 346.324 648.078 344.201C646.999 342.078 646.459 339.545 646.459 336.604C646.459 333.653 646.999 331.121 648.078 329.006C649.158 326.883 650.633 325.255 652.505 324.121C654.385 322.979 656.521 322.408 658.914 322.408C661.298 322.408 663.426 322.979 665.297 324.121C667.177 325.255 668.657 326.883 669.737 329.006C670.816 331.121 671.356 333.653 671.356 336.604ZM667.227 336.604C667.227 334.355 666.862 332.461 666.134 330.923C665.414 329.375 664.425 328.206 663.165 327.414C661.915 326.613 660.498 326.213 658.914 326.213C657.322 326.213 655.901 326.613 654.65 327.414C653.4 328.206 652.41 329.375 651.681 330.923C650.962 332.461 650.602 334.355 650.602 336.604C650.602 338.853 650.962 340.751 651.681 342.298C652.41 343.837 653.4 345.006 654.65 345.807C655.901 346.598 657.322 346.994 658.914 346.994C660.498 346.994 661.915 346.598 663.165 345.807C664.425 345.006 665.414 343.837 666.134 342.298C666.862 340.751 667.227 338.853 667.227 336.604ZM698.861 322.786V350.422H695.028L680.981 330.153H680.725V350.422H676.555V322.786H680.414L694.475 343.081H694.732V322.786H698.861Z" fill="white"/>
</svg>
